<svg version="1.1" xmlns="http://www.w3.org/2000/svg" xmlns:xlink="http://www.w3.org/1999/xlink" viewBox="0 0 172 172"><g fill="none" fill-rule="nonzero" stroke="none" stroke-width="1" stroke-linecap="butt" stroke-linejoin="miter" stroke-miterlimit="10" stroke-dasharray="" stroke-dashoffset="0" font-family="none" font-weight="none" font-size="none" text-anchor="none" style="mix-blend-mode: normal"><path d="M0,172v-172h172v172z" fill="none"></path><g fill="#0505fe"><path d="M12.09375,13.4375c-5.19255,0.00574 -9.40051,4.2137 -9.40625,9.40625v120.9375c0.00574,5.19255 4.2137,9.40051 9.40625,9.40625h147.8125c5.19255,-0.00574 9.40051,-4.2137 9.40625,-9.40625v-120.9375c-0.00574,-5.19255 -4.2137,-9.40051 -9.40625,-9.40625zM12.09375,18.8125h147.8125c2.22563,0.00185 4.0294,1.80562 4.03125,4.03125v6.71875h-155.875v-6.71875c0.00185,-2.22563 1.80562,-4.0294 4.03125,-4.03125zM13.4375,21.5c-1.48427,0 -2.6875,1.20323 -2.6875,2.6875c0,1.48427 1.20323,2.6875 2.6875,2.6875h2.6875c1.48427,0 2.6875,-1.20323 2.6875,-2.6875c0,-1.48427 -1.20323,-2.6875 -2.6875,-2.6875zM24.1875,21.5c-1.48427,0 -2.6875,1.20323 -2.6875,2.6875c0,1.48427 1.20323,2.6875 2.6875,2.6875h2.6875c1.48427,0 2.6875,-1.20323 2.6875,-2.6875c0,-1.48427 -1.20323,-2.6875 -2.6875,-2.6875zM34.9375,21.5c-1.48427,0 -2.6875,1.20323 -2.6875,2.6875c0,1.48427 1.20323,2.6875 2.6875,2.6875h2.6875c1.48427,0 2.6875,-1.20323 2.6875,-2.6875c0,-1.48427 -1.20323,-2.6875 -2.6875,-2.6875zM8.0625,34.9375h155.875v108.84375c-0.00185,2.22563 -1.80562,4.0294 -4.03125,4.03125h-147.8125c-2.22563,-0.00185 -4.0294,-1.80562 -4.03125,-4.03125zM91.40649,40.3125c-0.32339,-0.00377 -0.64481,0.05091 -0.94876,0.16141l-29.11896,10.58859h-37.15127c-1.48427,0 -2.6875,1.20323 -2.6875,2.6875v5.375h-5.375c-1.48427,0 -2.6875,1.20323 -2.6875,2.6875v16.125c0,1.48427 1.20323,2.6875 2.6875,2.6875h5.375v5.375c0,1.48427 1.20323,2.6875 2.6875,2.6875h6.1243l7.45099,22.34969c0.36576,1.09753 1.39284,1.83784 2.54971,1.83781h10.75c0.86386,0.00002 1.67507,-0.41521 2.18021,-1.11599c0.50514,-0.70077 0.64262,-1.60165 0.36951,-2.4212l-6.88344,-20.65031h14.61l29.11896,10.58859c0.82384,0.29915 1.7418,0.17777 2.45958,-0.32522c0.71778,-0.50299 1.14518,-1.3244 1.14519,-2.20087v-53.75c0.00109,-0.87678 -0.42676,-1.69865 -1.1456,-2.20065c-0.44292,-0.31075 -0.96939,-0.48044 -1.51041,-0.48685zM88.6875,46.83638v46.07724l-24.1875,-8.79474v-28.48776zM107.27233,53.5735c-1.14538,-0.02842 -2.18283,0.67242 -2.58402,1.74561c-0.40119,1.07319 -0.07789,2.28273 0.80526,3.01262c2.97887,2.55132 4.6935,6.27741 4.6935,10.19951c0,3.9221 -1.71463,7.64819 -4.6935,10.19951c-1.10146,0.97132 -1.21927,2.64694 -0.26456,3.76283c0.95471,1.11589 2.62837,1.25879 3.75844,0.32091c4.17182,-3.57268 6.57315,-8.7907 6.57315,-14.28325c0,-5.49255 -2.40133,-10.71057 -6.57315,-14.28325c-0.47433,-0.41996 -1.08178,-0.65885 -1.71512,-0.6745zM26.875,56.4375h32.25v26.875h-32.25zM102.01543,59.72404c-1.12877,-0.00901 -2.14287,0.6883 -2.5385,1.74551c-0.39563,1.0572 -0.08845,2.24896 0.76892,2.98321c1.19257,1.01978 1.87918,2.51034 1.87918,4.07947c0,1.56913 -0.68662,3.05969 -1.87918,4.07947v-0.00131c-1.12787,0.96535 -1.25963,2.66225 -0.29427,3.79012c0.96535,1.12787 2.66225,1.25963 3.79012,0.29427c2.38526,-2.04102 3.75843,-5.02325 3.75843,-8.16256c0,-3.13931 -1.37316,-6.12154 -3.75843,-8.16256c-0.48134,-0.41196 -1.09274,-0.64062 -1.72627,-0.64563zM18.8125,64.5h2.6875v10.75h-2.6875zM35.97878,88.6875h5.08302l6.27193,18.8125h-5.08302zM75.25,107.5c-1.48427,0 -2.6875,1.20323 -2.6875,2.6875v13.4375c0,1.48427 1.20323,2.6875 2.6875,2.6875h80.625c1.48427,0 2.6875,-1.20323 2.6875,-2.6875v-13.4375c0,-1.48427 -1.20323,-2.6875 -2.6875,-2.6875zM77.9375,112.875h75.25v8.0625h-75.25zM75.25,129c-1.48427,0 -2.6875,1.20323 -2.6875,2.6875c0,1.48427 1.20323,2.6875 2.6875,2.6875h80.625c1.48427,0 2.6875,-1.20323 2.6875,-2.6875c0,-1.48427 -1.20323,-2.6875 -2.6875,-2.6875zM75.25,137.0625c-1.48427,0 -2.6875,1.20323 -2.6875,2.6875c0,1.48427 1.20323,2.6875 2.6875,2.6875h59.125c1.48427,0 2.6875,-1.20323 2.6875,-2.6875c0,-1.48427 -1.20323,-2.6875 -2.6875,-2.6875zM142.4375,137.0625c-1.48427,0 -2.6875,1.20323 -2.6875,2.6875c0,1.48427 1.20323,2.6875 2.6875,2.6875h2.6875c1.48427,0 2.6875,-1.20323 2.6875,-2.6875c0,-1.48427 -1.20323,-2.6875 -2.6875,-2.6875z"></path></g></g></svg>