<svg version="1.1" xmlns="http://www.w3.org/2000/svg" xmlns:xlink="http://www.w3.org/1999/xlink" viewBox="0 0 172 172"><g fill="none" fill-rule="nonzero" stroke="none" stroke-width="1" stroke-linecap="butt" stroke-linejoin="miter" stroke-miterlimit="10" stroke-dasharray="" stroke-dashoffset="0" font-family="none" font-weight="none" font-size="none" text-anchor="none" style="mix-blend-mode: normal"><path d="M0,172v-172h172v172z" fill="none"></path><g fill="#0505fe"><path d="M12.09375,16.125c-5.19255,0.00574 -9.40051,4.2137 -9.40625,9.40625v120.9375c0.00574,5.19255 4.2137,9.40051 9.40625,9.40625h147.8125c5.19255,-0.00574 9.40051,-4.2137 9.40625,-9.40625v-120.9375c-0.00574,-5.19255 -4.2137,-9.40051 -9.40625,-9.40625zM12.09375,21.5h147.8125c2.22563,0.00185 4.0294,1.80562 4.03125,4.03125v6.71875h-155.875v-6.71875c0.00185,-2.22563 1.80562,-4.0294 4.03125,-4.03125zM13.4375,24.1875c-1.48427,0 -2.6875,1.20323 -2.6875,2.6875c0,1.48427 1.20323,2.6875 2.6875,2.6875h2.6875c1.48427,0 2.6875,-1.20323 2.6875,-2.6875c0,-1.48427 -1.20323,-2.6875 -2.6875,-2.6875zM24.1875,24.1875c-1.48427,0 -2.6875,1.20323 -2.6875,2.6875c0,1.48427 1.20323,2.6875 2.6875,2.6875h2.6875c1.48427,0 2.6875,-1.20323 2.6875,-2.6875c0,-1.48427 -1.20323,-2.6875 -2.6875,-2.6875zM34.9375,24.1875c-1.48427,0 -2.6875,1.20323 -2.6875,2.6875c0,1.48427 1.20323,2.6875 2.6875,2.6875h2.6875c1.48427,0 2.6875,-1.20323 2.6875,-2.6875c0,-1.48427 -1.20323,-2.6875 -2.6875,-2.6875zM8.0625,37.625h155.875v108.84375c-0.00185,2.22563 -1.80562,4.0294 -4.03125,4.03125h-147.8125c-2.22563,-0.00185 -4.0294,-1.80562 -4.03125,-4.03125zM64.5,45.6875c-1.48427,0 -2.6875,1.20323 -2.6875,2.6875v40.3125c0,1.48427 1.20323,2.6875 2.6875,2.6875h40.3125c1.48427,0 2.6875,-1.20323 2.6875,-2.6875c-0.02666,-23.73719 -19.26281,-42.97334 -43,-43zM112.875,51.0625c-1.48427,0 -2.6875,1.20323 -2.6875,2.6875c0,1.48427 1.20323,2.6875 2.6875,2.6875h43c1.48427,0 2.6875,-1.20323 2.6875,-2.6875c0,-1.48427 -1.20323,-2.6875 -2.6875,-2.6875zM67.1875,51.15633c18.65012,1.36257 33.4811,16.19356 34.84367,34.84367h-34.84367zM56.4375,53.75c-23.74824,0 -43,19.25176 -43,43c0,23.74824 19.25176,43 43,43c23.74824,0 43,-19.25176 43,-43c0,-1.48427 -1.20323,-2.6875 -2.6875,-2.6875h-37.625v-37.625c0,-1.48427 -1.20323,-2.6875 -2.6875,-2.6875zM112.875,59.125c-1.48427,0 -2.6875,1.20323 -2.6875,2.6875c0,1.48427 1.20323,2.6875 2.6875,2.6875h21.5c1.48427,0 2.6875,-1.20323 2.6875,-2.6875c0,-1.48427 -1.20323,-2.6875 -2.6875,-2.6875zM142.4375,59.125c-1.48427,0 -2.6875,1.20323 -2.6875,2.6875c0,1.48427 1.20323,2.6875 2.6875,2.6875h2.6875c1.48427,0 2.6875,-1.20323 2.6875,-2.6875c0,-1.48427 -1.20323,-2.6875 -2.6875,-2.6875zM53.75,59.22014v36.41576l-25.74974,25.75105c-5.94893,-6.8264 -9.21419,-15.58218 -9.18776,-24.63695c0.02437,-19.72747 15.2622,-36.09594 34.9375,-37.52986zM112.875,69.875c-1.48427,0 -2.6875,1.20323 -2.6875,2.6875v21.5c0,1.48427 1.20323,2.6875 2.6875,2.6875h43c1.48427,0 2.6875,-1.20323 2.6875,-2.6875v-21.5c0,-1.48427 -1.20323,-2.6875 -2.6875,-2.6875zM115.5625,75.25h37.625v16.125h-37.625zM57.55095,99.4375h36.41576c-1.43422,19.6749 -17.80212,34.91246 -37.5292,34.9375c-9.05475,0.02634 -17.8105,-3.23891 -24.63695,-9.18776zM112.875,102.125c-1.48427,0 -2.6875,1.20323 -2.6875,2.6875c0,1.48427 1.20323,2.6875 2.6875,2.6875h32.25c1.48427,0 2.6875,-1.20323 2.6875,-2.6875c0,-1.48427 -1.20323,-2.6875 -2.6875,-2.6875zM153.1875,102.125c-1.48427,0 -2.6875,1.20323 -2.6875,2.6875c0,1.48427 1.20323,2.6875 2.6875,2.6875h2.6875c1.48427,0 2.6875,-1.20323 2.6875,-2.6875c0,-1.48427 -1.20323,-2.6875 -2.6875,-2.6875zM112.875,112.875c-1.48427,0 -2.6875,1.20323 -2.6875,2.6875c0,1.48427 1.20323,2.6875 2.6875,2.6875h32.25c1.48427,0 2.6875,-1.20323 2.6875,-2.6875c0,-1.48427 -1.20323,-2.6875 -2.6875,-2.6875zM153.1875,112.875c-1.48427,0 -2.6875,1.20323 -2.6875,2.6875c0,1.48427 1.20323,2.6875 2.6875,2.6875h2.6875c1.48427,0 2.6875,-1.20323 2.6875,-2.6875c0,-1.48427 -1.20323,-2.6875 -2.6875,-2.6875zM112.875,123.625c-1.48427,0 -2.6875,1.20323 -2.6875,2.6875c0,1.48427 1.20323,2.6875 2.6875,2.6875h32.25c1.48427,0 2.6875,-1.20323 2.6875,-2.6875c0,-1.48427 -1.20323,-2.6875 -2.6875,-2.6875zM153.1875,123.625c-1.48427,0 -2.6875,1.20323 -2.6875,2.6875c0,1.48427 1.20323,2.6875 2.6875,2.6875h2.6875c1.48427,0 2.6875,-1.20323 2.6875,-2.6875c0,-1.48427 -1.20323,-2.6875 -2.6875,-2.6875zM112.875,134.375c-1.48427,0 -2.6875,1.20323 -2.6875,2.6875c0,1.48427 1.20323,2.6875 2.6875,2.6875h32.25c1.48427,0 2.6875,-1.20323 2.6875,-2.6875c0,-1.48427 -1.20323,-2.6875 -2.6875,-2.6875zM153.1875,134.375c-1.48427,0 -2.6875,1.20323 -2.6875,2.6875c0,1.48427 1.20323,2.6875 2.6875,2.6875h2.6875c1.48427,0 2.6875,-1.20323 2.6875,-2.6875c0,-1.48427 -1.20323,-2.6875 -2.6875,-2.6875z"></path></g></g></svg>