<svg version="1.1" xmlns="http://www.w3.org/2000/svg" xmlns:xlink="http://www.w3.org/1999/xlink" viewBox="0 0 172 172"><g fill="none" fill-rule="nonzero" stroke="none" stroke-width="1" stroke-linecap="butt" stroke-linejoin="miter" stroke-miterlimit="10" stroke-dasharray="" stroke-dashoffset="0" font-family="none" font-weight="none" font-size="none" text-anchor="none" style="mix-blend-mode: normal"><path d="M0,172v-172h172v172z" fill="none"></path><g fill="#0505fe"><path d="M32.25,2.6875c-8.89294,0 -16.125,7.23206 -16.125,16.125c0,4.97188 2.26317,9.42082 5.81067,12.38245c-6.579,2.93206 -11.18567,9.52337 -11.18567,17.18005v2.6875h-5.375c-1.48619,0 -2.6875,1.204 -2.6875,2.6875v96.75c0,1.4835 1.20131,2.6875 2.6875,2.6875h7.21741c-1.16638,2.44831 -1.84241,5.17344 -1.84241,8.0625v5.375c0,1.4835 1.20131,2.6875 2.6875,2.6875h37.625c1.48619,0 2.6875,-1.204 2.6875,-2.6875v-5.375c0,-2.88906 -0.67603,-5.61419 -1.84241,-8.0625h14.43482c-1.16638,2.44831 -1.84241,5.17344 -1.84241,8.0625v5.375c0,1.4835 1.20131,2.6875 2.6875,2.6875h37.625c1.48619,0 2.6875,-1.204 2.6875,-2.6875v-5.375c0,-2.88906 -0.67603,-5.61419 -1.84241,-8.0625h14.43482c-1.16637,2.44831 -1.84241,5.17344 -1.84241,8.0625v5.375c0,1.4835 1.20131,2.6875 2.6875,2.6875h37.625c1.48619,0 2.6875,-1.204 2.6875,-2.6875v-5.375c0,-2.88906 -0.67603,-5.61419 -1.84241,-8.0625h7.21741c1.48619,0 2.6875,-1.204 2.6875,-2.6875v-96.75c0,-1.4835 -1.20131,-2.6875 -2.6875,-2.6875h-5.375v-2.6875c0,-7.65669 -4.60667,-14.24799 -11.18567,-17.18005c3.5475,-2.96163 5.81067,-7.41057 5.81067,-12.38245c0,-8.89294 -7.23206,-16.125 -16.125,-16.125c-8.89294,0 -16.125,7.23206 -16.125,16.125c0,4.97188 2.26317,9.42082 5.81067,12.38245c-6.579,2.93206 -11.18567,9.52337 -11.18567,17.18005v2.6875h-10.75v-2.6875c0,-7.65669 -4.60667,-14.24799 -11.18567,-17.18005c3.5475,-2.96163 5.81067,-7.41057 5.81067,-12.38245c0,-8.89294 -7.23206,-16.125 -16.125,-16.125c-8.89294,0 -16.125,7.23206 -16.125,16.125c0,4.97188 2.26317,9.42082 5.81067,12.38245c-6.579,2.93206 -11.18567,9.52337 -11.18567,17.18005v2.6875h-10.75v-2.6875c0,-7.65669 -4.60667,-14.24799 -11.18567,-17.18005c3.5475,-2.96163 5.81067,-7.41057 5.81067,-12.38245c0,-8.89294 -7.23206,-16.125 -16.125,-16.125zM32.25,8.0625c3.53137,0 6.64396,1.736 8.60315,4.37244c-5.60344,1.31419 -11.60286,1.31419 -17.2063,0c1.96187,-2.63644 5.07177,-4.37244 8.60315,-4.37244zM86,8.0625c3.53137,0 6.64396,1.736 8.60315,4.37244c-5.60344,1.31419 -11.60286,1.31419 -17.2063,0c1.96188,-2.63644 5.07177,-4.37244 8.60315,-4.37244zM139.75,8.0625c3.53137,0 6.64396,1.736 8.60315,4.37244c-5.60344,1.31419 -11.60286,1.31419 -17.2063,0c1.96187,-2.63644 5.07177,-4.37244 8.60315,-4.37244zM21.63647,17.474c3.43463,0.8815 6.98809,1.3385 10.61353,1.3385c3.62544,0 7.1789,-0.457 10.61353,-1.3385c0.05375,0.44344 0.13647,0.87894 0.13647,1.3385c0,5.92863 -4.82138,10.75 -10.75,10.75c-5.92862,0 -10.75,-4.82137 -10.75,-10.75c0,-0.45956 0.08272,-0.89506 0.13647,-1.3385zM75.38647,17.474c3.43462,0.8815 6.98809,1.3385 10.61353,1.3385c3.62544,0 7.1789,-0.457 10.61353,-1.3385c0.05375,0.44344 0.13647,0.87894 0.13647,1.3385c0,5.92863 -4.82137,10.75 -10.75,10.75c-5.92862,0 -10.75,-4.82137 -10.75,-10.75c0,-0.45956 0.08272,-0.89506 0.13647,-1.3385zM129.13647,17.474c3.43463,0.8815 6.98809,1.3385 10.61353,1.3385c3.62544,0 7.1789,-0.457 10.61353,-1.3385c0.05375,0.44344 0.13647,0.87894 0.13647,1.3385c0,5.92863 -4.82137,10.75 -10.75,10.75c-5.92863,0 -10.75,-4.82137 -10.75,-10.75c0,-0.45956 0.08272,-0.89506 0.13647,-1.3385zM31.76709,34.9375h0.96582l2.07336,10.37207l-2.55627,5.1178l-2.55627,-5.1178zM85.51709,34.9375h0.96582l2.07336,10.37207l-2.55627,5.1178l-2.55627,-5.1178zM139.26709,34.9375h0.96582l2.07336,10.37207l-2.55627,5.1178l-2.55627,-5.1178zM26.18738,35.42041l-1.94739,9.74219c-0.11825,0.58587 -0.03779,1.19212 0.23096,1.72693l2.08911,4.17297h-10.43506v-2.6875c0,-6.23769 4.29232,-11.4469 10.06238,-12.95459zM38.31262,35.42041c5.77275,1.50768 10.06238,6.7169 10.06238,12.95459v2.6875h-10.43506l2.08911,-4.17297c0.26875,-0.53481 0.34921,-1.14362 0.23096,-1.73218zM79.93738,35.42041l-1.94739,9.73694c-0.11825,0.58588 -0.03779,1.19737 0.23096,1.73218l2.08911,4.17297h-10.43506v-2.6875c0,-6.23769 4.29232,-11.4469 10.06238,-12.95459zM92.06262,35.42041c5.77275,1.50768 10.06238,6.7169 10.06238,12.95459v2.6875h-10.43506l2.08911,-4.17297c0.26875,-0.53481 0.34921,-1.14362 0.23096,-1.73218zM133.68738,35.42041l-1.94739,9.73694c-0.11825,0.58588 -0.03779,1.19737 0.23096,1.73218l2.08911,4.17297h-10.43506v-2.6875c0,-6.23769 4.29232,-11.4469 10.06238,-12.95459zM145.81262,35.42041c5.77275,1.50768 10.06238,6.7169 10.06238,12.95459v2.6875h-10.43506l2.08911,-4.17297c0.26875,-0.53481 0.34921,-1.14362 0.23096,-1.73218zM8.0625,56.4375h155.875v91.375h-8.36169c-1.591,-1.55606 -3.45285,-2.82612 -5.51147,-3.74255c3.55019,-2.96162 5.81067,-7.41057 5.81067,-12.38245c0,-8.89294 -7.23206,-16.125 -16.125,-16.125c-8.89294,0 -16.125,7.23206 -16.125,16.125c0,4.97188 2.26317,9.42082 5.81067,12.38245c-2.05862,0.91644 -3.92572,2.18649 -5.51672,3.74255h-22.09314c-1.591,-1.55606 -3.45285,-2.82612 -5.51147,-3.74255c3.55019,-2.96162 5.81067,-7.41057 5.81067,-12.38245c0,-8.89294 -7.23206,-16.125 -16.125,-16.125c-8.89294,0 -16.125,7.23206 -16.125,16.125c0,4.97188 2.26317,9.42082 5.81067,12.38245c-2.05863,0.91644 -3.92572,2.18649 -5.51672,3.74255h-22.09314c-1.591,-1.55606 -3.45285,-2.82612 -5.51147,-3.74255c3.55019,-2.96162 5.81067,-7.41057 5.81067,-12.38245c0,-8.89294 -7.23206,-16.125 -16.125,-16.125c-8.89294,0 -16.125,7.23206 -16.125,16.125c0,4.97188 2.26317,9.42082 5.81067,12.38245c-2.05862,0.91644 -3.92316,2.18649 -5.51147,3.74255h-8.36169zM145.125,64.5v2.6875c-2.96431,0 -5.375,2.41069 -5.375,5.375v5.375c0,2.96431 2.41069,5.375 5.375,5.375h5.375v5.375h-5.375v-2.6875h-5.375v2.6875c0,2.96431 2.41069,5.375 5.375,5.375v2.6875h5.375v-2.6875c2.96431,0 5.375,-2.41069 5.375,-5.375v-5.375c0,-2.96431 -2.41069,-5.375 -5.375,-5.375h-5.375v-5.375h5.375v2.6875h5.375v-2.6875c0,-2.96431 -2.41069,-5.375 -5.375,-5.375v-2.6875zM113.09021,68.5365c-1.2069,-0.01701 -2.42874,0.09839 -3.64282,0.35168c-6.26994,1.30075 -11.26344,6.43631 -12.42444,12.77613c-0.77937,4.24356 0.12203,8.51039 2.53003,12.02026c1.68506,2.451 2.57202,5.3713 2.57202,8.44043c0,1.4835 1.20131,2.6875 2.6875,2.6875h16.125c1.48619,0 2.6875,-1.204 2.6875,-2.6875c0,-3.15781 0.83443,-5.99497 2.4093,-8.20947c1.94038,-2.72243 2.9657,-5.92678 2.9657,-9.25928c0,-4.87244 -2.17108,-9.4338 -5.95239,-12.51367c-2.838,-2.30991 -6.3367,-3.55506 -9.9574,-3.60608zM30.90625,69.875c-5.18688,0 -9.40625,4.21937 -9.40625,9.40625v4.03125h5.375v-4.03125c0,-2.22256 1.80869,-4.03125 4.03125,-4.03125c2.22256,0 4.03125,1.80869 4.03125,4.03125v1.24927c0,1.075 -0.42047,2.08697 -1.18103,2.85022l-6.09412,6.09412c-0.50525,0.50256 -0.78735,1.18796 -0.78735,1.90015v8.0625h5.375v-6.94971l5.30676,-5.30676c1.77644,-1.77912 2.75574,-4.14039 2.75574,-6.65051v-1.24927c0,-5.18688 -4.21937,-9.40625 -9.40625,-9.40625zM113.00098,73.9115c2.42845,0.02469 4.72962,0.84194 6.65051,2.40405c2.52625,2.05056 3.97351,5.09151 3.97351,8.3407c0,2.20913 -0.68107,4.33267 -1.96838,6.14136c-1.75225,2.46175 -2.85152,5.40696 -3.2439,8.63464h-2.85022v-5.36975c0,-0.41656 -0.09801,-0.83115 -0.28345,-1.20203l-0.74536,-1.48547h3.71631v-5.375h-8.0625c-0.93256,0 -1.79676,0.48539 -2.28857,1.27551c-0.49181,0.79281 -0.53204,1.78089 -0.11548,2.61402l2.40405,4.8081v4.73462h-2.86072c-0.4085,-3.17125 -1.543,-6.16386 -3.34363,-8.78686c-1.59906,-2.33006 -2.19313,-5.17726 -1.67444,-8.01526c0.77131,-4.21131 4.08097,-7.61449 8.23047,-8.47717c0.82775,-0.16998 1.65231,-0.24968 2.46179,-0.24146zM72.5625,83.3125v24.1875h5.375v-24.1875zM61.8125,91.375v16.125h5.375v-16.125zM51.0625,96.75v10.75h5.375v-10.75zM26.875,102.125v5.375h5.375v-5.375zM104.8125,107.5v5.375h16.125v-5.375zM110.1875,115.5625v5.375h5.375v-5.375zM32.25,120.9375c5.92862,0 10.75,4.82137 10.75,10.75c0,5.92863 -4.82138,10.75 -10.75,10.75c-5.92862,0 -10.75,-4.82137 -10.75,-10.75c0,-5.92863 4.82138,-10.75 10.75,-10.75zM86,120.9375c5.92863,0 10.75,4.82137 10.75,10.75c0,5.92863 -4.82137,10.75 -10.75,10.75c-5.92862,0 -10.75,-4.82137 -10.75,-10.75c0,-5.92863 4.82138,-10.75 10.75,-10.75zM139.75,120.9375c5.92863,0 10.75,4.82137 10.75,10.75c0,5.92863 -4.82137,10.75 -10.75,10.75c-5.92863,0 -10.75,-4.82137 -10.75,-10.75c0,-5.92863 4.82137,-10.75 10.75,-10.75zM29.5625,147.8125h5.375c7.40944,0 13.4375,6.02806 13.4375,13.4375v2.6875h-32.25v-2.6875c0,-7.40944 6.02806,-13.4375 13.4375,-13.4375zM83.3125,147.8125h5.375c7.40944,0 13.4375,6.02806 13.4375,13.4375v2.6875h-32.25v-2.6875c0,-7.40944 6.02806,-13.4375 13.4375,-13.4375zM137.0625,147.8125h5.375c7.40944,0 13.4375,6.02806 13.4375,13.4375v2.6875h-32.25v-2.6875c0,-7.40944 6.02806,-13.4375 13.4375,-13.4375z"></path></g></g></svg>