<svg version="1.1" xmlns="http://www.w3.org/2000/svg" xmlns:xlink="http://www.w3.org/1999/xlink" viewBox="0 0 172 172"><g fill="none" fill-rule="nonzero" stroke="none" stroke-width="1" stroke-linecap="butt" stroke-linejoin="miter" stroke-miterlimit="10" stroke-dasharray="" stroke-dashoffset="0" font-family="none" font-weight="none" font-size="none" text-anchor="none" style="mix-blend-mode: normal"><path d="M0,172v-172h172v172z" fill="none"></path><g fill="#0505fe"><path d="M8.0625,5.375c-1.4835,0 -2.6875,1.204 -2.6875,2.6875v104.8125c0,1.4835 1.204,2.6875 2.6875,2.6875h5.375v-5.375h-2.6875v-99.4375h150.5v99.4375h-110.1875v5.375h112.875c1.4835,0 2.6875,-1.204 2.6875,-2.6875v-104.8125c0,-1.4835 -1.204,-2.6875 -2.6875,-2.6875zM153.01953,18.8125c-0.22928,0.01495 -0.45864,0.06055 -0.68237,0.13647l-16.125,5.375c-0.93256,0.31175 -1.62317,1.11111 -1.79517,2.07861c-0.172,0.97019 0.1972,1.95658 0.96582,2.57202l5.1178,4.09424l-12.91785,12.92309c-19.36344,19.36344 -43.33329,34.17291 -69.31335,42.83203l1.70593,5.10205c26.76481,-8.9225 51.45572,-24.18448 71.40772,-44.13379l13.34302,-13.34302l4.09424,3.27539c0.48644,0.387 1.07769,0.58789 1.67969,0.58789c0.32519,0 0.65151,-0.05753 0.96057,-0.17847c0.88956,-0.34131 1.53431,-1.12749 1.69018,-2.06812l2.6875,-16.125c0.15588,-0.92987 -0.19052,-1.87529 -0.90808,-2.48804c-0.53817,-0.46158 -1.22281,-0.68523 -1.91065,-0.64038zM85.91602,21.5c-2.01562,0.00538 -4.02495,0.23881 -5.97339,0.68762l1.20727,5.23328c1.55875,-0.36012 3.16667,-0.54321 4.78186,-0.5459zM91.8894,22.15088l-1.17053,5.24377c1.56681,0.34938 3.09184,0.88133 4.5404,1.57471l2.32532,-4.8501c-1.81406,-0.86806 -3.73332,-1.53032 -5.69519,-1.96838zM74.26843,24.1875c-1.806,0.87881 -3.51424,1.95721 -5.08105,3.21765l3.36462,4.19397c1.25506,-1.00781 2.62481,-1.87058 4.06799,-2.57202zM149.80188,25.46301l-1.19678,7.20166l-6.00488,-4.80286zM102.6814,27.30542l-3.33313,4.20972c1.26044,0.99975 2.40405,2.13849 3.41186,3.39087l4.19397,-3.36987c-1.26044,-1.56144 -2.70052,-2.98371 -4.27271,-4.23071zM64.95142,31.66736c-1.25506,1.57487 -2.32859,3.29336 -3.19665,5.10205l4.84485,2.32532c0.69338,-1.44588 1.55652,-2.8233 2.55627,-4.08374zM83.3125,32.25v2.6875c-2.96431,0 -5.375,2.41069 -5.375,5.375v5.375c0,2.96431 2.41069,5.375 5.375,5.375h5.375v5.375h-5.375v-2.6875h-5.375v2.6875c0,2.96431 2.41069,5.375 5.375,5.375v2.6875h5.375v-2.6875c2.96431,0 5.375,-2.41069 5.375,-5.375v-5.375c0,-2.96431 -2.41069,-5.375 -5.375,-5.375h-5.375v-5.375h5.375v2.6875h5.375v-2.6875c0,-2.96431 -2.41069,-5.375 -5.375,-5.375v-2.6875zM110.17175,36.61719l-4.83435,2.35681c0.70144,1.44319 1.24595,2.9631 1.61145,4.52991l5.23328,-1.21777c-0.45419,-1.95919 -1.13156,-3.86295 -2.01038,-5.66895zM32.47046,40.31775c-1.20677,-0.01709 -2.42807,0.09771 -3.64282,0.35168c-6.26994,1.30075 -11.26344,6.439 -12.42444,12.77613c-0.77938,4.24356 0.11678,8.51039 2.52478,12.02026c1.68238,2.44831 2.57202,5.36862 2.57202,8.44043c0,1.4835 1.204,2.6875 2.6875,2.6875h16.125c1.4835,0 2.6875,-1.204 2.6875,-2.6875c0,-3.15512 0.83174,-5.99229 2.4093,-8.20947c1.94037,-2.72244 2.9657,-5.92409 2.9657,-9.25928c0,-4.87244 -2.17108,-9.4338 -5.95239,-12.51367c-2.838,-2.30789 -6.33183,-3.55481 -9.95215,-3.60608zM59.78113,42.45935c-0.43538,1.92963 -0.65613,3.91884 -0.65613,5.91565v0.05249l5.375,-0.05249c0,-1.60175 0.17553,-3.19456 0.5249,-4.73987zM32.38123,45.6875c2.42921,0.02431 4.72962,0.84719 6.65051,2.4093c2.52087,2.05056 3.96826,5.09151 3.96826,8.3407c0,2.20913 -0.68107,4.33536 -1.96838,6.14136c-1.75225,2.46175 -2.85421,5.40952 -3.2439,8.63989h-2.85022v-5.375c0,-0.41656 -0.09801,-0.83115 -0.28345,-1.20203l-0.74536,-1.48547h3.71631v-5.375h-8.0625c-0.93256,0 -1.79676,0.48539 -2.28857,1.27551c-0.48913,0.79281 -0.53204,1.78089 -0.11548,2.61402l2.40405,4.8081v4.73987h-2.85547c-0.4085,-3.17125 -1.54825,-6.16911 -3.34888,-8.79211c-1.59906,-2.33006 -2.19056,-5.17726 -1.66919,-8.01526c0.77131,-4.20862 4.07828,-7.61449 8.23047,-8.47717c0.8291,-0.17066 1.65206,-0.25481 2.46179,-0.2467zM111.98792,48.29102l-4.48792,0.08398c0,1.61519 -0.17809,3.22311 -0.53015,4.78186l5.23853,1.19153c0.44344,-1.94575 0.66663,-3.95856 0.66663,-6.05212zM65.0459,53.2041l-5.23853,1.19678c0.44881,1.95918 1.11582,3.87332 1.99463,5.68469l4.8396,-2.34631c-0.70144,-1.44588 -1.23827,-2.97103 -1.5957,-4.53516zM137.0625,56.4375c-1.4835,0 -2.6875,1.204 -2.6875,2.6875v43c0,1.4835 1.204,2.6875 2.6875,2.6875h13.4375c1.4835,0 2.6875,-1.204 2.6875,-2.6875v-43c0,-1.4835 -1.204,-2.6875 -2.6875,-2.6875zM69.20837,61.80725l-4.19397,3.35938c1.25775,1.56681 2.68746,2.99152 4.25696,4.24121l3.34887,-4.19922c-1.25775,-1.00244 -2.40674,-2.1463 -3.41186,-3.40137zM139.75,61.8125h8.0625v37.625h-8.0625zM76.69348,67.76489l-2.32532,4.8396c1.81137,0.87344 3.72282,1.54069 5.68469,1.98413l1.18628,-5.24377c-1.56681,-0.35206 -3.09709,-0.88389 -4.54566,-1.57995zM112.875,72.5625c-1.4835,0 -2.6875,1.204 -2.6875,2.6875v26.875c0,1.4835 1.204,2.6875 2.6875,2.6875h13.4375c1.4835,0 2.6875,-1.204 2.6875,-2.6875v-26.875c0,-1.4835 -1.204,-2.6875 -2.6875,-2.6875zM115.5625,77.9375h8.0625v21.5h-8.0625zM24.1875,79.28125v5.375h16.125v-5.375zM88.6875,86c-1.4835,0 -2.6875,1.204 -2.6875,2.6875v13.4375c0,1.4835 1.204,2.6875 2.6875,2.6875h13.4375c1.4835,0 2.6875,-1.204 2.6875,-2.6875v-13.4375c0,-1.4835 -1.204,-2.6875 -2.6875,-2.6875zM29.5625,87.34375v5.375h5.375v-5.375zM91.375,91.375h8.0625v8.0625h-8.0625zM32.25,96.75c-8.89294,0 -16.125,7.23206 -16.125,16.125c0,4.97187 2.26317,9.42082 5.81067,12.38245c-6.579,2.93206 -11.18567,9.52337 -11.18567,17.18005v21.5c0,1.4835 1.204,2.6875 2.6875,2.6875h37.625c1.4835,0 2.6875,-1.204 2.6875,-2.6875v-21.5c0,-7.65669 -4.60667,-14.24799 -11.18567,-17.18005c3.5475,-2.96162 5.81067,-7.41057 5.81067,-12.38245c0,-8.89294 -7.23206,-16.125 -16.125,-16.125zM32.25,102.125c3.53137,0 6.64396,1.736 8.60315,4.37244c-5.60612,1.31419 -11.60017,1.31419 -17.2063,0c1.96187,-2.63644 5.07177,-4.37244 8.60315,-4.37244zM21.63647,111.5365c3.43463,0.8815 6.98809,1.3385 10.61353,1.3385c3.62544,0 7.1789,-0.457 10.61353,-1.3385c0.05375,0.44344 0.13647,0.87894 0.13647,1.3385c0,5.92863 -4.82138,10.75 -10.75,10.75c-5.92862,0 -10.75,-4.82137 -10.75,-10.75c0,-0.45956 0.08272,-0.89506 0.13647,-1.3385zM88.6875,123.625c-5.92862,0 -10.75,4.82137 -10.75,10.75c0,3.00731 1.24708,5.72026 3.2439,7.67407c-3.57706,2.41606 -5.9314,6.50786 -5.9314,11.13843v10.75c0,1.4835 1.204,2.6875 2.6875,2.6875h21.5c1.4835,0 2.6875,-1.204 2.6875,-2.6875v-10.75c0,-4.63056 -2.35433,-8.72236 -5.9314,-11.13843c1.99681,-1.95381 3.2439,-4.66676 3.2439,-7.67407c0,-5.92863 -4.82137,-10.75 -10.75,-10.75zM120.9375,123.625c-5.92863,0 -10.75,4.82137 -10.75,10.75c0,3.00731 1.24708,5.72026 3.2439,7.67407c-3.57706,2.41606 -5.9314,6.50786 -5.9314,11.13843v10.75c0,1.4835 1.204,2.6875 2.6875,2.6875h21.5c1.4835,0 2.6875,-1.204 2.6875,-2.6875v-10.75c0,-4.63056 -2.35433,-8.72236 -5.9314,-11.13843c1.99681,-1.95381 3.2439,-4.66676 3.2439,-7.67407c0,-5.92863 -4.82137,-10.75 -10.75,-10.75zM153.1875,123.625c-5.92863,0 -10.75,4.82137 -10.75,10.75c0,3.00731 1.24708,5.72026 3.2439,7.67407c-3.57706,2.41606 -5.9314,6.50786 -5.9314,11.13843v10.75c0,1.4835 1.204,2.6875 2.6875,2.6875h21.5c1.4835,0 2.6875,-1.204 2.6875,-2.6875v-10.75c0,-4.63056 -2.35433,-8.72236 -5.9314,-11.13843c1.99681,-1.95381 3.2439,-4.66676 3.2439,-7.67407c0,-5.92863 -4.82137,-10.75 -10.75,-10.75zM31.76709,129h0.96582l2.07336,10.37207l-2.55627,5.1178l-2.55627,-5.1178zM88.6875,129c2.96431,0 5.375,2.41069 5.375,5.375c0,2.96431 -2.41069,5.375 -5.375,5.375c-2.96431,0 -5.375,-2.41069 -5.375,-5.375c0,-2.96431 2.41069,-5.375 5.375,-5.375zM120.9375,129c2.96431,0 5.375,2.41069 5.375,5.375c0,2.96431 -2.41069,5.375 -5.375,5.375c-2.96431,0 -5.375,-2.41069 -5.375,-5.375c0,-2.96431 2.41069,-5.375 5.375,-5.375zM153.1875,129c2.96431,0 5.375,2.41069 5.375,5.375c0,2.96431 -2.41069,5.375 -5.375,5.375c-2.96431,0 -5.375,-2.41069 -5.375,-5.375c0,-2.96431 2.41069,-5.375 5.375,-5.375zM26.18738,129.48291l-1.94739,9.74219c-0.11825,0.58588 -0.03511,1.19212 0.23096,1.72693l5.375,10.75c0.45419,0.90838 1.38549,1.48547 2.40405,1.48547c1.01856,0 1.94718,-0.57441 2.40405,-1.48547l5.375,-10.75c0.26606,-0.53481 0.34921,-1.14362 0.23096,-1.73218l-1.94739,-9.73694c5.77006,1.50768 10.06238,6.7169 10.06238,12.95459v18.8125h-32.25v-18.8125c0,-6.23769 4.29232,-11.4469 10.06238,-12.95459zM88.6875,145.125c4.44513,0 8.0625,3.61737 8.0625,8.0625v8.0625h-16.125v-8.0625c0,-4.44513 3.61737,-8.0625 8.0625,-8.0625zM120.9375,145.125c4.44513,0 8.0625,3.61737 8.0625,8.0625v8.0625h-16.125v-8.0625c0,-4.44513 3.61737,-8.0625 8.0625,-8.0625zM153.1875,145.125c4.44513,0 8.0625,3.61737 8.0625,8.0625v8.0625h-16.125v-8.0625c0,-4.44513 3.61737,-8.0625 8.0625,-8.0625z"></path></g></g></svg>