<svg version="1.1" xmlns="http://www.w3.org/2000/svg" xmlns:xlink="http://www.w3.org/1999/xlink" viewBox="0 0 172 172"><g fill="none" fill-rule="nonzero" stroke="none" stroke-width="1" stroke-linecap="butt" stroke-linejoin="miter" stroke-miterlimit="10" stroke-dasharray="" stroke-dashoffset="0" font-family="none" font-weight="none" font-size="none" text-anchor="none" style="mix-blend-mode: normal"><path d="M0,172v-172h172v172z" fill="none"></path><g fill="#0505fe"><path d="M166.625,120.9375h-2.6875v-5.375c0,-1.48427 -1.20323,-2.6875 -2.6875,-2.6875h-26.875v-18.8125c0,-1.48427 -1.20323,-2.6875 -2.6875,-2.6875h-43v-13.4375h27.00937c13.06877,-0.00099 24.00379,-9.91874 25.27684,-22.92536c1.27305,-13.00662 -7.53143,-24.8564 -20.35199,-27.39136c-3.82573,-13.65931 -15.69901,-23.53007 -29.82731,-24.79668c-14.12829,-1.26661 -27.56797,6.33482 -33.7623,19.09582c-0.24523,-0.01008 -0.48711,-0.0168 -0.72898,-0.0168c-8.23361,0.00981 -14.90581,6.68202 -14.91563,14.91563c0,0.17133 0.00336,0.34266 0.01008,0.51734c-8.37656,5.11396 -12.32934,15.17532 -9.67376,24.62345c2.65558,9.44813 11.27132,15.97686 21.08556,15.97796h30.50313v13.4375h-43c-1.48427,0 -2.6875,1.20323 -2.6875,2.6875v18.8125h-3.43664l-2.07609,-6.22492c-0.36585,-1.09746 -1.39293,-1.83766 -2.54977,-1.83758h-18.8125c-1.48427,0 -2.6875,1.20323 -2.6875,2.6875v13.4375h-2.6875c-1.48427,0 -2.6875,1.20323 -2.6875,2.6875v43c0,1.48427 1.20323,2.6875 2.6875,2.6875h69.875c1.48427,0 2.6875,-1.20323 2.6875,-2.6875v-43c0,-1.48427 -1.20323,-2.6875 -2.6875,-2.6875h-2.6875v-5.375c0,-1.48427 -1.20323,-2.6875 -2.6875,-2.6875h-26.875v-16.125h86v16.125h-3.43664l-2.07609,-6.22492c-0.36585,-1.09746 -1.39293,-1.83766 -2.54977,-1.83758h-18.8125c-1.48427,0 -2.6875,1.20323 -2.6875,2.6875v13.4375h-2.6875c-1.48427,0 -2.6875,1.20323 -2.6875,2.6875v43c0,1.48427 1.20323,2.6875 2.6875,2.6875h69.875c1.48427,0 2.6875,-1.20323 2.6875,-2.6875v-43c0,-1.48427 -1.20323,-2.6875 -2.6875,-2.6875zM72.5625,126.3125v37.625h-64.5v-37.625zM67.1875,118.25v2.6875h-53.75v-10.75h14.18664l2.07609,6.22492c0.36585,1.09746 1.39293,1.83766 2.54977,1.83758zM52.80938,72.5625c-7.67257,0.00245 -14.33799,-5.27555 -16.09446,-12.74436c-1.75647,-7.46881 1.8579,-15.16435 8.72735,-18.58181c1.05604,-0.52692 1.64474,-1.68116 1.45125,-2.84539c-0.51561,-3.09011 0.51841,-6.23647 2.7666,-8.41827c2.24819,-2.18181 5.42411,-3.1211 8.49739,-2.51313c1.25681,0.24837 2.51371,-0.42723 2.99992,-1.6125c4.79197,-11.60506 16.55749,-18.76112 29.06624,-17.67875c12.50875,1.08237 22.87019,10.15305 25.59751,22.40875c0.24705,1.11491 1.17083,1.9525 2.30453,2.08953c10.5073,1.28388 18.19972,10.52483 17.55648,21.09072c-0.64324,10.56589 -9.39985,18.80544 -19.9853,18.80521zM104.8125,110.1875h14.18664l2.07609,6.22492c0.36585,1.09746 1.39293,1.83766 2.54977,1.83758h34.9375v2.6875h-53.75zM163.9375,163.9375h-64.5v-37.625h64.5z"></path></g></g></svg>