<svg version="1.1" xmlns="http://www.w3.org/2000/svg" xmlns:xlink="http://www.w3.org/1999/xlink" viewBox="0 0 172 172"><g fill="none" fill-rule="nonzero" stroke="none" stroke-width="1" stroke-linecap="butt" stroke-linejoin="miter" stroke-miterlimit="10" stroke-dasharray="" stroke-dashoffset="0" font-family="none" font-weight="none" font-size="none" text-anchor="none" style="mix-blend-mode: normal"><path d="M0,172v-172h172v172z" fill="none"></path><g fill="#0505fe"><path d="M65.84375,2.6875c-5.19255,0.00574 -9.40051,4.2137 -9.40625,9.40625v6.71875h-18.8125c-1.48427,0 -2.6875,1.20323 -2.6875,2.6875v32.25c0,1.48427 1.20323,2.6875 2.6875,2.6875h18.8125v28.21875c0.00574,5.19255 4.2137,9.40051 9.40625,9.40625h40.3125c5.19255,-0.00574 9.40051,-4.2137 9.40625,-9.40625v-14.78125h18.8125c1.48427,0 2.6875,-1.20323 2.6875,-2.6875v-32.25c0,-1.48427 -1.20323,-2.6875 -2.6875,-2.6875h-18.8125v-20.15625c-0.00574,-5.19255 -4.2137,-9.40051 -9.40625,-9.40625zM65.84375,8.0625h7.46805l2.07599,6.22469c0.36576,1.09753 1.39284,1.83784 2.54971,1.83781h16.125c1.15687,0.00003 2.18395,-0.74028 2.54971,-1.83781l2.07599,-6.22469h7.46805c2.22563,0.00185 4.0294,1.80562 4.03125,4.03125v20.15625h-18.8125c-1.48427,0 -2.6875,1.20323 -2.6875,2.6875v32.25c0,1.48427 1.20323,2.6875 2.6875,2.6875h2.6875v5.375c-0.00012,1.01807 0.57503,1.94881 1.48561,2.4041c0.91059,0.45529 2.00027,0.35697 2.81465,-0.25397l10.03416,-7.52513h1.79057v14.78125c-0.00185,2.22563 -1.80562,4.0294 -4.03125,4.03125h-40.3125c-2.22563,-0.00185 -4.0294,-1.80562 -4.03125,-4.03125v-28.21875h1.79057l10.03416,7.52513c0.46508,0.3493 1.03112,0.5379 1.61276,0.53737c0.71318,0.00134 1.39754,-0.28137 1.90183,-0.78567c0.50429,-0.50429 0.78701,-1.18865 0.78567,-1.90183v-5.375h2.6875c1.48427,0 2.6875,-1.20323 2.6875,-2.6875v-32.25c0,-1.48427 -1.20323,-2.6875 -2.6875,-2.6875h-18.8125v-6.71875c0.00185,-2.22563 1.80562,-4.0294 4.03125,-4.03125zM78.97878,8.0625h14.04245l-0.89693,2.6875h-12.2486zM40.3125,24.1875h37.625v26.875h-2.6875c-1.48427,0 -2.6875,1.20323 -2.6875,2.6875v2.6875l-6.44974,-4.83763c-0.46508,-0.3493 -1.03112,-0.5379 -1.61276,-0.53737h-24.1875zM48.375,34.9375c-1.48427,0 -2.6875,1.20323 -2.6875,2.6875c0,1.48427 1.20323,2.6875 2.6875,2.6875c1.48427,0 2.6875,-1.20323 2.6875,-2.6875c0,-1.48427 -1.20323,-2.6875 -2.6875,-2.6875zM59.125,34.9375c-1.48427,0 -2.6875,1.20323 -2.6875,2.6875c0,1.48427 1.20323,2.6875 2.6875,2.6875c1.48427,0 2.6875,-1.20323 2.6875,-2.6875c0,-1.48427 -1.20323,-2.6875 -2.6875,-2.6875zM69.875,34.9375c-1.48427,0 -2.6875,1.20323 -2.6875,2.6875c0,1.48427 1.20323,2.6875 2.6875,2.6875c1.48427,0 2.6875,-1.20323 2.6875,-2.6875c0,-1.48427 -1.20323,-2.6875 -2.6875,-2.6875zM94.0625,37.625h37.625v26.875h-24.1875c-0.58164,-0.00053 -1.14768,0.18807 -1.61276,0.53737l-6.44974,4.83763v-2.6875c0,-1.48427 -1.20323,-2.6875 -2.6875,-2.6875h-2.6875zM102.125,48.375c-1.48427,0 -2.6875,1.20323 -2.6875,2.6875c0,1.48427 1.20323,2.6875 2.6875,2.6875c1.48427,0 2.6875,-1.20323 2.6875,-2.6875c0,-1.48427 -1.20323,-2.6875 -2.6875,-2.6875zM112.875,48.375c-1.48427,0 -2.6875,1.20323 -2.6875,2.6875c0,1.48427 1.20323,2.6875 2.6875,2.6875c1.48427,0 2.6875,-1.20323 2.6875,-2.6875c0,-1.48427 -1.20323,-2.6875 -2.6875,-2.6875zM123.625,48.375c-1.48427,0 -2.6875,1.20323 -2.6875,2.6875c0,1.48427 1.20323,2.6875 2.6875,2.6875c1.48427,0 2.6875,-1.20323 2.6875,-2.6875c0,-1.48427 -1.20323,-2.6875 -2.6875,-2.6875zM77.9375,80.625c-1.48427,0 -2.6875,1.20323 -2.6875,2.6875c0,1.48427 1.20323,2.6875 2.6875,2.6875h16.125c1.48427,0 2.6875,-1.20323 2.6875,-2.6875c0,-1.48427 -1.20323,-2.6875 -2.6875,-2.6875zM29.5625,99.4375c-8.90168,0.00944 -16.11556,7.22332 -16.125,16.125v10.75c0.00445,5.75706 3.07715,11.07528 8.0625,13.95453v2.17047h-2.6875c-8.90168,0.00944 -16.11556,7.22332 -16.125,16.125v8.0625c0,1.48427 1.20323,2.6875 2.6875,2.6875h48.375c1.48427,0 2.6875,-1.20323 2.6875,-2.6875v-8.0625c-0.00944,-8.90168 -7.22332,-16.11556 -16.125,-16.125h-2.6875v-2.17047c4.98535,-2.87925 8.05805,-8.19746 8.0625,-13.95453v-10.75c0,-0.07727 -0.00312,-0.15107 -0.00984,-0.22833c-0.13959,-4.1124 -1.80847,-8.02478 -4.68016,-10.97177c-2.97832,-3.13555 -7.11042,-4.91518 -11.435,-4.9249zM86,99.4375c-8.90168,0.00944 -16.11556,7.22332 -16.125,16.125v10.75c0.00445,5.75706 3.07715,11.07528 8.0625,13.95453v2.17047h-2.6875c-8.90168,0.00944 -16.11556,7.22332 -16.125,16.125v8.0625c0,1.48427 1.20323,2.6875 2.6875,2.6875h48.375c1.48427,0 2.6875,-1.20323 2.6875,-2.6875v-8.0625c-0.00944,-8.90168 -7.22332,-16.11556 -16.125,-16.125h-2.6875v-2.17047c4.98535,-2.87925 8.05805,-8.19746 8.0625,-13.95453v-10.75c0,-0.07727 -0.00312,-0.15107 -0.00984,-0.22833c-0.13959,-4.1124 -1.80847,-8.02478 -4.68016,-10.97177c-2.97832,-3.13555 -7.11042,-4.91518 -11.435,-4.9249zM142.4375,99.4375c-8.90168,0.00944 -16.11556,7.22332 -16.125,16.125v10.75c0.00445,5.75706 3.07715,11.07528 8.0625,13.95453v2.17047h-2.6875c-8.90168,0.00944 -16.11556,7.22332 -16.125,16.125v8.0625c0,1.48427 1.20323,2.6875 2.6875,2.6875h48.375c1.48427,0 2.6875,-1.20323 2.6875,-2.6875v-8.0625c-0.00944,-8.90168 -7.22332,-16.11556 -16.125,-16.125h-2.6875v-2.17047c4.98535,-2.87925 8.05805,-8.19746 8.0625,-13.95453v-10.75c0,-0.07727 -0.00312,-0.15107 -0.00984,-0.22833c-0.13959,-4.1124 -1.80847,-8.02478 -4.68016,-10.97177c-2.97832,-3.13555 -7.11042,-4.91518 -11.435,-4.9249zM29.5625,104.8125c4.24961,0 8.01539,2.70088 9.74547,6.49698c-6.665,2.96969 -12.13372,3.95435 -15.6913,4.2399c-1.59831,0.13289 -3.20451,0.14166 -4.80417,0.02624v-0.01312c0.00666,-5.9343 4.8157,-10.74334 10.75,-10.75zM86,104.8125c4.24961,0 8.01539,2.70088 9.74547,6.49698c-6.665,2.96969 -12.13372,3.95435 -15.6913,4.2399c-1.5983,0.13289 -3.20451,0.14166 -4.80417,0.02624v-0.01312c0.00666,-5.9343 4.8157,-10.74334 10.75,-10.75zM142.4375,104.8125c4.24961,0 8.01539,2.70088 9.74547,6.49698c-6.665,2.96969 -12.13372,3.95435 -15.6913,4.2399c-1.5983,0.13289 -3.20451,0.14166 -4.80417,0.02624v-0.01312c0.00666,-5.9343 4.8157,-10.74334 10.75,-10.75zM40.3125,116.735v9.5775c0,5.93706 -4.81294,10.75 -10.75,10.75c-5.93706,0 -10.75,-4.81294 -10.75,-10.75v-5.3481c0.63156,0.04031 1.34026,0.06693 2.13307,0.06693c4.34703,0 11.06591,-0.78578 19.36693,-4.29633zM96.75,116.735v9.5775c0,5.93706 -4.81294,10.75 -10.75,10.75c-5.93706,0 -10.75,-4.81294 -10.75,-10.75v-5.3481c0.63156,0.04031 1.34026,0.06693 2.13307,0.06693c4.34703,0 11.06591,-0.78578 19.36693,-4.29633zM153.1875,116.735v9.5775c0,5.93706 -4.81294,10.75 -10.75,10.75c-5.93706,0 -10.75,-4.81294 -10.75,-10.75v-5.3481c0.63156,0.04031 1.34026,0.06693 2.13307,0.06693c4.34703,0 11.06591,-0.78578 19.36693,-4.29633zM26.875,142.20917c1.77872,0.30458 3.59628,0.30458 5.375,0v2.91583c0,1.48427 -1.20323,2.6875 -2.6875,2.6875c-1.48427,0 -2.6875,-1.20323 -2.6875,-2.6875zM83.3125,142.20917c1.77872,0.30458 3.59628,0.30458 5.375,0v2.91583c0,1.48427 -1.20323,2.6875 -2.6875,2.6875c-1.48427,0 -2.6875,-1.20323 -2.6875,-2.6875zM139.75,142.20917c1.77872,0.30458 3.59628,0.30458 5.375,0v2.91583c0,1.48427 -1.20323,2.6875 -2.6875,2.6875c-1.48427,0 -2.6875,-1.20323 -2.6875,-2.6875zM18.8125,147.8125h3.15138c1.13812,3.22057 4.18286,5.37385 7.59862,5.37385c3.41575,0 6.4605,-2.15329 7.59862,-5.37385h3.15138c5.9343,0.00666 10.74334,4.8157 10.75,10.75v5.375h-5.375v-2.6875c0,-1.48427 -1.20323,-2.6875 -2.6875,-2.6875c-1.48427,0 -2.6875,1.20323 -2.6875,2.6875v2.6875h-21.5v-2.6875c0,-1.48427 -1.20323,-2.6875 -2.6875,-2.6875c-1.48427,0 -2.6875,1.20323 -2.6875,2.6875v2.6875h-5.375v-5.375c0.00666,-5.9343 4.8157,-10.74334 10.75,-10.75zM75.25,147.8125h3.15138c1.13812,3.22057 4.18286,5.37385 7.59862,5.37385c3.41575,0 6.4605,-2.15329 7.59862,-5.37385h3.15138c5.9343,0.00666 10.74334,4.8157 10.75,10.75v5.375h-5.375v-2.6875c0,-1.48427 -1.20323,-2.6875 -2.6875,-2.6875c-1.48427,0 -2.6875,1.20323 -2.6875,2.6875v2.6875h-21.5v-2.6875c0,-1.48427 -1.20323,-2.6875 -2.6875,-2.6875c-1.48427,0 -2.6875,1.20323 -2.6875,2.6875v2.6875h-5.375v-5.375c0.00666,-5.9343 4.8157,-10.74334 10.75,-10.75zM131.6875,147.8125h3.15138c1.13812,3.22057 4.18286,5.37385 7.59862,5.37385c3.41575,0 6.4605,-2.15329 7.59862,-5.37385h3.15138c5.9343,0.00666 10.74334,4.8157 10.75,10.75v5.375h-5.375v-2.6875c0,-1.48427 -1.20323,-2.6875 -2.6875,-2.6875c-1.48427,0 -2.6875,1.20323 -2.6875,2.6875v2.6875h-21.5v-2.6875c0,-1.48427 -1.20323,-2.6875 -2.6875,-2.6875c-1.48427,0 -2.6875,1.20323 -2.6875,2.6875v2.6875h-5.375v-5.375c0.00666,-5.9343 4.8157,-10.74334 10.75,-10.75z"></path></g></g></svg>