<svg version="1.1" xmlns="http://www.w3.org/2000/svg" xmlns:xlink="http://www.w3.org/1999/xlink" viewBox="0 0 172 172"><g fill="none" fill-rule="nonzero" stroke="none" stroke-width="1" stroke-linecap="butt" stroke-linejoin="miter" stroke-miterlimit="10" stroke-dasharray="" stroke-dashoffset="0" font-family="none" font-weight="none" font-size="none" text-anchor="none" style="mix-blend-mode: normal"><path d="M0,172v-172h172v172z" fill="none"></path><g fill="#0505fe"><path d="M12.09375,16.125c-5.19255,0.00574 -9.40051,4.2137 -9.40625,9.40625v120.9375c0.00574,5.19255 4.2137,9.40051 9.40625,9.40625h147.8125c5.19255,-0.00574 9.40051,-4.2137 9.40625,-9.40625v-120.9375c-0.00574,-5.19255 -4.2137,-9.40051 -9.40625,-9.40625zM12.09375,21.5h147.8125c2.22563,0.00185 4.0294,1.80562 4.03125,4.03125v6.71875h-155.875v-6.71875c0.00185,-2.22563 1.80562,-4.0294 4.03125,-4.03125zM13.4375,24.1875c-1.48427,0 -2.6875,1.20323 -2.6875,2.6875c0,1.48427 1.20323,2.6875 2.6875,2.6875h2.6875c1.48427,0 2.6875,-1.20323 2.6875,-2.6875c0,-1.48427 -1.20323,-2.6875 -2.6875,-2.6875zM24.1875,24.1875c-1.48427,0 -2.6875,1.20323 -2.6875,2.6875c0,1.48427 1.20323,2.6875 2.6875,2.6875h2.6875c1.48427,0 2.6875,-1.20323 2.6875,-2.6875c0,-1.48427 -1.20323,-2.6875 -2.6875,-2.6875zM34.9375,24.1875c-1.48427,0 -2.6875,1.20323 -2.6875,2.6875c0,1.48427 1.20323,2.6875 2.6875,2.6875h2.6875c1.48427,0 2.6875,-1.20323 2.6875,-2.6875c0,-1.48427 -1.20323,-2.6875 -2.6875,-2.6875zM8.0625,37.625h155.875v108.84375c-0.00185,2.22563 -1.80562,4.0294 -4.03125,4.03125h-147.8125c-2.22563,-0.00185 -4.0294,-1.80562 -4.03125,-4.03125zM33.59375,43c-5.19247,0.00592 -9.40033,4.21378 -9.40625,9.40625v83.3125c0.00592,5.19247 4.21378,9.40033 9.40625,9.40625h104.8125c5.19247,-0.00592 9.40033,-4.21378 9.40625,-9.40625v-83.3125c-0.00592,-5.19247 -4.21378,-9.40033 -9.40625,-9.40625zM33.59375,48.375h104.8125c2.2254,0.00241 4.02884,1.80585 4.03125,4.03125v83.3125c-0.00241,2.2254 -1.80585,4.02884 -4.03125,4.03125h-104.8125c-2.2254,-0.00241 -4.02884,-1.80585 -4.03125,-4.03125v-83.3125c0.00241,-2.2254 1.80585,-4.02884 4.03125,-4.03125zM102.0666,75.23885c-1.03656,0.01873 -1.96991,0.632 -2.39852,1.57598c-0.42861,0.94398 -0.27604,2.05031 0.39208,2.84304l12.00386,14.40463l-12.00386,14.40463c-0.95013,1.14038 -0.79591,2.83507 0.34447,3.7852c1.14038,0.95013 2.83507,0.79591 3.7852,-0.34447l13.4375,-16.125c0.8304,-0.9966 0.8304,-2.44413 0,-3.44073l-13.4375,-16.125c-0.52142,-0.63296 -1.3033,-0.99321 -2.12323,-0.97829zM69.86056,75.25c-0.79265,0.00423 -1.543,0.35816 -2.0504,0.96713l-13.4375,16.125c-0.8304,0.9966 -0.8304,2.44413 0,3.44073l13.4375,16.125c0.95013,1.14038 2.64482,1.2946 3.7852,0.34447c1.14038,-0.95013 1.2946,-2.64482 0.34447,-3.7852l-12.00386,-14.40463l12.00386,-14.40463c0.4563,-0.54762 0.67635,-1.25407 0.61175,-1.96394c-0.0646,-0.70987 -0.40856,-1.365 -0.95622,-1.82125c-0.48679,-0.40556 -1.10121,-0.6261 -1.7348,-0.62267zM93.96474,75.25197c-0.98196,0.03582 -1.86608,0.60469 -2.30563,1.48351l-16.125,32.25c-0.44591,0.86064 -0.39383,1.89471 0.1363,2.7062c0.53013,0.81148 1.45616,1.27462 2.42343,1.21204c0.96728,-0.06258 1.82591,-0.64117 2.24706,-1.51419l16.125,-32.25c0.6637,-1.32737 0.12586,-2.94146 -1.20137,-3.60542c-0.40278,-0.20146 -0.84973,-0.29848 -1.29979,-0.28213z"></path></g></g></svg>