<svg version="1.1" xmlns="http://www.w3.org/2000/svg" xmlns:xlink="http://www.w3.org/1999/xlink" viewBox="0 0 172 172"><g fill="none" fill-rule="nonzero" stroke="none" stroke-width="1" stroke-linecap="butt" stroke-linejoin="miter" stroke-miterlimit="10" stroke-dasharray="" stroke-dashoffset="0" font-family="none" font-weight="none" font-size="none" text-anchor="none" style="mix-blend-mode: normal"><path d="M0,172v-172h172v172z" fill="none"></path><g fill="#0505fe"><path d="M29.5625,5.375c-4.45073,0.00497 -8.05753,3.61177 -8.0625,8.0625v40.38533l-0.30576,-1.0754c-1.23403,-4.26205 -5.67992,-6.72596 -9.94807,-5.51322c-4.26815,1.21274 -6.75422,5.64628 -5.56279,9.92043l15.81662,55.66458v45.74327c0.00509,4.45069 3.61181,8.05741 8.0625,8.0625h134.375c0.71278,0.00002 1.39636,-0.28312 1.90037,-0.78713c0.50401,-0.50401 0.78715,-1.1876 0.78713,-1.90037v-8.0625c-0.0044,-3.41501 -2.15656,-6.45803 -5.375,-7.59993v-30.02507c0.00308,-9.17142 -3.90777,-17.90831 -10.75,-24.01559v-80.79691c-0.00497,-4.45073 -3.61177,-8.05753 -8.0625,-8.0625zM29.5625,10.75h112.875c1.48356,0.0017 2.6858,1.20394 2.6875,2.6875v76.89163c-1.71132,-0.99202 -3.51063,-1.8238 -5.375,-2.48476v-69.03187c0.00002,-0.71278 -0.28312,-1.39636 -0.78713,-1.90037c-0.50401,-0.50401 -1.1876,-0.78715 -1.90037,-0.78713h-102.125c-0.71278,-0.00002 -1.39636,0.28312 -1.90037,0.78713c-0.50401,0.50401 -0.78715,1.1876 -0.78713,1.90037v72.84332l-5.375,-18.91617v-59.30215c0.0017,-1.48356 1.20394,-2.6858 2.6875,-2.6875zM37.625,21.5h96.75v64.9501c-1.776,-0.29951 -3.57392,-0.45007 -5.375,-0.4501c-0.71278,-0.00002 -1.39636,0.28312 -1.90037,0.78713c-0.50401,0.50401 -0.78715,1.1876 -0.78713,1.90037v11.77684l-14.63952,7.31976c-0.91035,0.45517 -1.48542,1.3856 -1.48548,2.4034v5.375c0.00497,4.45073 3.61177,8.05753 8.0625,8.0625h5.56659c-4.91319,7.31361 -7.74255,15.82685 -8.18454,24.62645c-1.30137,0.44907 -2.46651,1.22304 -3.38496,2.24855h-67.20784l1.83782,-5.71422c0.16261,-0.50516 0.17197,-1.04717 0.0269,-1.55764l-9.27896,-32.65549zM53.75,26.875c-4.45069,0.00509 -8.05741,3.61181 -8.0625,8.0625v24.1875c0.00006,1.0178 0.57513,1.94822 1.48548,2.4034c0.9103,0.45538 1.99976,0.35733 2.81413,-0.25327l10.03351,-7.52513h20.60438c4.45069,-0.00509 8.05741,-3.61181 8.0625,-8.0625v-16.125c0.00002,-0.71278 -0.28312,-1.39636 -0.78713,-1.90037c-0.50401,-0.50401 -1.1876,-0.78715 -1.90037,-0.78713zM53.75,32.25h29.5625v13.4375c-0.0017,1.48356 -1.20394,2.6858 -2.6875,2.6875h-21.5c-0.58135,0.00003 -1.14701,0.18859 -1.61211,0.53737l-6.45039,4.83763v-18.8125c0.0017,-1.48356 1.20394,-2.6858 2.6875,-2.6875zM113.00491,34.94012c-2.89837,-0.05144 -5.6012,1.45717 -7.07886,3.9511c-1.47765,2.49394 -1.50259,5.58919 -0.06532,8.10661c1.43727,2.51742 4.11545,4.06939 7.01427,4.06466c1.20252,0.00131 2.38992,-0.26801 3.4742,-0.78801l4.5883,4.58896v20.38655h5.375v-21.5c-0.00006,-0.71274 -0.28329,-1.39625 -0.78735,-1.90015l-5.37566,-5.37566c1.18251,-2.47691 1.0236,-5.38527 -0.42174,-7.71859c-1.44534,-2.33332 -3.9785,-3.771 -6.72284,-3.81548zM56.4375,37.625v5.375h21.5v-5.375zM112.875,40.3125c1.48427,0 2.6875,1.20323 2.6875,2.6875c0,1.48427 -1.20323,2.6875 -2.6875,2.6875c-1.48427,0 -2.6875,-1.20323 -2.6875,-2.6875c0.0017,-1.48356 1.20394,-2.6858 2.6875,-2.6875zM13.31284,52.26846c1.24634,-0.05871 2.36918,0.74809 2.71112,1.94804l1.46907,5.17029l-5.17029,1.46907l-1.46907,-5.17029c-0.22351,-0.78897 -0.0746,-1.63683 0.4044,-2.30241c0.479,-0.66558 1.23565,-1.07607 2.05477,-1.1147zM72.5625,61.8125c-1.0178,0.00006 -1.94822,0.57513 -2.4034,1.48548l-4.63292,9.26452h-3.71368c0.00002,-0.71278 -0.28312,-1.39636 -0.78713,-1.90037c-0.50401,-0.50401 -1.1876,-0.78715 -1.90037,-0.78713h-10.75c-0.71278,-0.00002 -1.39636,0.28312 -1.90037,0.78713c-0.50401,0.50401 -0.78715,1.1876 -0.78713,1.90037v21.5c-0.00002,0.71278 0.28312,1.39636 0.78713,1.90037c0.50401,0.50401 1.1876,0.78715 1.90037,0.78713h10.75c0.71278,0.00002 1.39636,-0.28312 1.90037,-0.78713c0.50401,-0.50401 0.78715,-1.1876 0.78713,-1.90037v-2.6875h3.71368l1.94542,3.88952c0.45517,0.91035 1.3856,1.48542 2.4034,1.48548h11.46321c4.00605,-0.01675 7.39843,-2.95877 7.98179,-6.92215l1.15151,-8.0625c0.33054,-2.31372 -0.3592,-4.65701 -1.8905,-6.42271c-1.53129,-1.7657 -3.75344,-2.78002 -6.09064,-2.78014h-1.11082l0.53343,-2.13504c0.51774,-2.07132 0.05233,-4.26566 -1.26163,-5.94848c-1.31396,-1.68283 -3.32995,-2.66646 -5.46499,-2.66647zM102.25491,64.50262c-2.89837,-0.05144 -5.6012,1.45717 -7.07886,3.9511c-1.47765,2.49394 -1.50259,5.58919 -0.06532,8.10661c1.43727,2.51742 4.11545,4.06939 7.01427,4.06466c1.20252,0.00131 2.38992,-0.26801 3.4742,-0.78801l5.37566,5.37566c0.5039,0.50407 1.18741,0.78729 1.90015,0.78735h8.0625v-5.375h-6.94905l-4.58896,-4.5883c1.18251,-2.47691 1.0236,-5.38527 -0.42174,-7.71859c-1.44534,-2.33332 -3.9785,-3.771 -6.72284,-3.81548zM18.9621,64.55708l22.54915,79.35736l-1.48351,4.61258l-3.68678,-3.14285l-22.54915,-79.35802zM74.22382,67.1875h0.96254c0.48007,-0.00012 0.9334,0.22099 1.22885,0.59937c0.29545,0.37838 0.40004,0.8718 0.28352,1.33751l-1.36868,5.47342c-0.20085,0.80295 -0.02051,1.65366 0.48885,2.30606c0.50936,0.6524 1.29092,1.03371 2.11861,1.03363h4.55287c0.77907,-0.00004 1.51982,0.33801 2.0303,0.92654c0.51048,0.58853 0.74044,1.36961 0.6303,2.14086l-1.15216,8.0625c-0.1944,1.32119 -1.32519,2.30196 -2.6606,2.3076h-9.8019l-1.94542,-3.88952c-0.45517,-0.91035 -1.3856,-1.48542 -2.4034,-1.48548h-5.375v-8.0625h5.375c1.0178,-0.00006 1.94822,-0.57513 2.4034,-1.48548zM102.125,69.875c1.48427,0 2.6875,1.20323 2.6875,2.6875c0,1.48427 -1.20323,2.6875 -2.6875,2.6875c-1.48427,0 -2.6875,-1.20323 -2.6875,-2.6875c0.0017,-1.48356 1.20394,-2.6858 2.6875,-2.6875zM51.0625,75.25h5.375v16.125h-5.375zM131.6875,91.50819c13.72464,1.39745 24.1703,12.94622 24.1875,26.74181v29.5625h-8.0625v-29.5625c-0.01244,-9.34667 -6.87584,-17.27102 -16.125,-18.61763zM102.125,94.0625c-0.71274,0.00006 -1.39625,0.28329 -1.90015,0.78735l-8.06316,8.06316c-3.24007,-1.54698 -7.11268,-0.76481 -9.49836,1.91842c-2.38568,2.68323 -2.70938,6.62076 -0.79394,9.65758c1.91544,3.03682 5.60832,4.44094 9.05753,3.44388c3.44921,-0.99706 5.82336,-4.15496 5.82307,-7.74539c0.00131,-1.20252 -0.26801,-2.38992 -0.78801,-3.4742l7.27646,-7.2758h15.01155v-5.375zM58.73198,104.78494c-5.70767,0.15972 -10.69282,3.90482 -12.43561,9.34225c-1.74279,5.43743 0.13645,11.38268 4.68781,14.83059c4.55136,3.44791 10.78336,3.64737 15.54588,0.49757l9.50729,9.50729l3.80029,-3.80029l-9.50729,-9.50729c1.45803,-2.19421 2.23464,-4.77059 2.23215,-7.40506c0.00442,-3.63635 -1.4633,-7.11963 -4.06878,-9.65627c-2.60548,-2.53663 -6.12681,-3.91057 -9.76174,-3.80879zM129.60757,104.82628c7.17394,0.33316 12.82146,6.24206 12.82993,13.42372v29.5625h-21.39371c0.70475,-10.49045 5.20533,-20.36533 12.66064,-27.77915l-3.80029,-3.80029c-0.6567,0.6567 -1.29176,1.32891 -1.90474,2.01694h-9.7494c-1.48356,-0.0017 -2.6858,-1.20394 -2.6875,-2.6875v-3.71368zM88.76624,107.50131c1.4662,0.04577 2.62484,1.2588 2.60335,2.72557c-0.02149,1.46676 -1.21518,2.64533 -2.68209,2.64812c-1.48356,-0.0017 -2.6858,-1.20394 -2.6875,-2.6875c0.00004,-0.7264 0.29413,-1.42184 0.81525,-1.92788c0.52112,-0.50604 1.2249,-0.77959 1.95098,-0.7583zM58.78972,110.19472c2.19453,-0.09134 4.33134,0.71661 5.91644,2.23706c1.5851,1.52045 2.48127,3.62179 2.48134,5.81822c-0.00509,4.45069 -3.61181,8.05741 -8.0625,8.0625c-4.38523,-0.0031 -7.96385,-3.51054 -8.05505,-7.89482c-0.0912,-4.38428 3.33846,-8.0375 7.71977,-8.22297zM102.125,123.625c-0.71274,0.00006 -1.39625,0.28329 -1.90015,0.78735l-5.37566,5.37566c-3.54463,-1.69363 -7.7939,-0.58709 -10.06227,2.62029c-2.26837,3.20738 -1.89595,7.58254 0.88189,10.36038c2.77784,2.77784 7.153,3.15026 10.36038,0.88189c3.20738,-2.26837 4.31392,-6.51763 2.62029,-10.06227l4.58896,-4.5883h6.94905v-5.375zM26.875,131.7354l4.5181,15.89995c0.14475,0.51047 0.43745,0.96663 0.84116,1.31094l7.37422,6.28636c0.48645,0.41469 1.10477,0.64243 1.74399,0.64235h68.83504v5.375h-80.625c-1.48356,-0.0017 -2.6858,-1.20394 -2.6875,-2.6875zM91.26346,134.37762c0.73144,-0.03038 1.44361,0.23893 1.97193,0.74569c0.52831,0.50676 0.82703,1.20712 0.82712,1.93918c-0.0017,1.48356 -1.20394,2.6858 -2.6875,2.6875c-1.45981,-0.00379 -2.64964,-1.17221 -2.67994,-2.63171c-0.0303,-1.4595 1.11001,-2.67629 2.5684,-2.74067zM118.25,153.1875h40.3125c1.48356,0.0017 2.6858,1.20394 2.6875,2.6875v5.375h-45.6875v-5.375c0.0017,-1.48356 1.20394,-2.6858 2.6875,-2.6875z"></path></g></g></svg>