<svg version="1.1" xmlns="http://www.w3.org/2000/svg" xmlns:xlink="http://www.w3.org/1999/xlink" viewBox="0 0 172 172"><g fill="none" fill-rule="nonzero" stroke="none" stroke-width="1" stroke-linecap="butt" stroke-linejoin="miter" stroke-miterlimit="10" stroke-dasharray="" stroke-dashoffset="0" font-family="none" font-weight="none" font-size="none" text-anchor="none" style="mix-blend-mode: normal"><path d="M0,172v-172h172v172z" fill="none"></path><g fill="#0505fe"><path d="M38.96875,26.875c-5.19255,0.00574 -9.40051,4.2137 -9.40625,9.40625v17.46875h-17.46875c-5.19255,0.00574 -9.40051,4.2137 -9.40625,9.40625v72.5625c0.00574,5.19255 4.2137,9.40051 9.40625,9.40625h40.3125c5.19255,-0.00574 9.40051,-4.2137 9.40625,-9.40625v-6.71875h21.01643l-1.79386,10.75h-8.47258c-1.48427,0 -2.6875,1.20323 -2.6875,2.6875c0,1.48427 1.20323,2.6875 2.6875,2.6875h53.75c1.48427,0 2.6875,-1.20323 2.6875,-2.6875c0,-1.48427 -1.20323,-2.6875 -2.6875,-2.6875h-8.47258l-1.79386,-10.75h43.86018c5.19255,-0.00574 9.40051,-4.2137 9.40625,-9.40625v-83.3125c-0.00574,-5.19255 -4.2137,-9.40051 -9.40625,-9.40625zM38.96875,32.25h120.9375c2.22563,0.00185 4.0294,1.80562 4.03125,4.03125v76.59375h-102.125v-49.71875c-0.00574,-5.19255 -4.2137,-9.40051 -9.40625,-9.40625h-17.46875v-17.46875c0.00185,-2.22563 1.80562,-4.0294 4.03125,-4.03125zM99.43225,51.0625c-0.57977,0.00104 -1.14367,0.18954 -1.60751,0.53737l-10.75,8.0625c-0.01344,0.00974 -0.0243,0.0217 -0.0374,0.03346c-0.05241,0.04065 -0.10285,0.08327 -0.15156,0.12795c-0.02385,0.0215 -0.04802,0.04278 -0.07086,0.06496c-0.05912,0.05745 -0.11523,0.11762 -0.16797,0.18044c-0.00873,0.01008 -0.01882,0.01977 -0.02756,0.03018c-0.06209,0.07424 -0.12014,0.15178 -0.17387,0.23227c-0.01176,0.01814 -0.02204,0.03729 -0.03346,0.05577c-0.04031,0.06383 -0.07792,0.12932 -0.11285,0.19684c-0.01243,0.02452 -0.02399,0.04928 -0.03609,0.07414c-0.03023,0.06383 -0.05845,0.12835 -0.08398,0.19487c-0.01041,0.02687 -0.02012,0.05349 -0.02953,0.08071c-0.02239,0.06719 -0.04222,0.13509 -0.06036,0.2034c-0.00705,0.02755 -0.0156,0.05479 -0.02165,0.08267c-0.01613,0.07122 -0.02764,0.14394 -0.03805,0.21718c-0.0037,0.02553 -0.00879,0.05124 -0.01181,0.07677c-0.02328,0.19834 -0.02328,0.39873 0,0.59708c0.00302,0.02553 0.00812,0.05124 0.01181,0.07677c0.01041,0.07323 0.02193,0.14596 0.03805,0.21718c0.00605,0.02788 0.01426,0.05513 0.02165,0.08267c0.0178,0.06887 0.03718,0.13688 0.06036,0.2034c0.00941,0.02721 0.01911,0.05383 0.02953,0.08071c0.02553,0.06719 0.05375,0.13104 0.08398,0.19487c0.01209,0.02486 0.02366,0.04962 0.03609,0.07414c0.0336,0.06719 0.07254,0.13435 0.11285,0.19684c0.01142,0.01848 0.0217,0.03763 0.03346,0.05577c0.05343,0.08139 0.11126,0.1598 0.17322,0.23489c0.00806,0.01008 0.01785,0.01913 0.02624,0.02887c0.05375,0.06316 0.10974,0.12397 0.16797,0.18175c0.02284,0.02217 0.04767,0.0428 0.07152,0.0643c0.04871,0.04468 0.0985,0.0873 0.15091,0.12795c0.0131,0.01041 0.02462,0.02238 0.03806,0.03346l10.75,8.0625c0.76722,0.59008 1.79248,0.72202 2.68411,0.34542c0.89163,-0.3766 1.51187,-1.20355 1.6238,-2.16495c0.11192,-0.9614 -0.30177,-1.90873 -1.08304,-2.48008l-4.29829,-3.22749h18.8125c1.48427,0 2.6875,-1.20323 2.6875,-2.6875c0,-1.48427 -1.20323,-2.6875 -2.6875,-2.6875h-18.8125l4.30026,-3.22487c0.92636,-0.69464 1.30367,-1.90451 0.9364,-3.00259c-0.36727,-1.09808 -1.39654,-1.83749 -2.55441,-1.83504zM12.09375,59.125h7.46805l2.07599,6.22469c0.36576,1.09753 1.39284,1.83784 2.54971,1.83781h16.125c1.15687,0.00003 2.18395,-0.74028 2.54971,-1.83781l2.07599,-6.22469h7.46805c2.22563,0.00185 4.0294,1.80562 4.03125,4.03125v72.5625c-0.00185,2.22563 -1.80562,4.0294 -4.03125,4.03125h-40.3125c-2.22563,-0.00185 -4.0294,-1.80562 -4.03125,-4.03125v-72.5625c0.00185,-2.22563 1.80562,-4.0294 4.03125,-4.03125zM25.22877,59.125h14.04245l-0.89693,2.6875h-12.2486zM104.92863,77.93488c-1.17728,-0.05136 -2.2507,0.67021 -2.64761,1.77976c-0.3969,1.10955 -0.02469,2.34824 0.91805,3.05525l4.30092,3.23012h-18.8125c-1.48427,0 -2.6875,1.20323 -2.6875,2.6875c0,1.48427 1.20323,2.6875 2.6875,2.6875h18.8125l-4.30026,3.22487c-1.18748,0.8907 -1.42807,2.57541 -0.53737,3.76289c0.8907,1.18748 2.57541,1.42807 3.76289,0.53737l10.75,-8.0625c0.01344,-0.00974 0.0243,-0.0217 0.0374,-0.03346c0.05241,-0.04065 0.10285,-0.08327 0.15156,-0.12795c0.02385,-0.0215 0.04802,-0.04278 0.07086,-0.06496c0.05957,-0.05778 0.11556,-0.11793 0.16797,-0.18109c0.0084,-0.00974 0.01818,-0.01879 0.02624,-0.02887c0.06198,-0.07531 0.11981,-0.15394 0.17322,-0.23555c0.01176,-0.01814 0.02204,-0.03664 0.03346,-0.05511c0.04031,-0.06383 0.07857,-0.12932 0.11351,-0.19684c0.01243,-0.02452 0.02399,-0.04994 0.03609,-0.0748c0.03023,-0.06383 0.0578,-0.12835 0.08333,-0.19487c0.01041,-0.02688 0.02012,-0.05349 0.02953,-0.08071c0.02318,-0.06719 0.04322,-0.13387 0.06102,-0.20274c0.00739,-0.02755 0.01495,-0.05479 0.021,-0.08267c0.01612,-0.07122 0.0283,-0.1446 0.03871,-0.21783c0.0037,-0.02553 0.00879,-0.05058 0.01181,-0.07611c0.02333,-0.19856 0.02333,-0.39917 0,-0.59773c-0.00302,-0.02553 -0.00812,-0.05058 -0.01181,-0.07611c-0.01041,-0.07323 -0.02259,-0.14661 -0.03871,-0.21783c-0.00605,-0.02788 -0.01394,-0.05513 -0.021,-0.08267c-0.01769,-0.06898 -0.03818,-0.13623 -0.06102,-0.20274c-0.00941,-0.02721 -0.01911,-0.05383 -0.02953,-0.08071c-0.02553,-0.06719 -0.05309,-0.13104 -0.08333,-0.19487c-0.01209,-0.02486 -0.02366,-0.05027 -0.03609,-0.0748c-0.03359,-0.06719 -0.0732,-0.13435 -0.11351,-0.19684c-0.01142,-0.01848 -0.0217,-0.03697 -0.03346,-0.05511c-0.05321,-0.08158 -0.11082,-0.16022 -0.17256,-0.23555c-0.00873,-0.01041 -0.01882,-0.01945 -0.02756,-0.02953c-0.05375,-0.06282 -0.10985,-0.12365 -0.16797,-0.18109c-0.02284,-0.02217 -0.04701,-0.0428 -0.07086,-0.0643c-0.04871,-0.04468 -0.09916,-0.0873 -0.15156,-0.12795c-0.0131,-0.01041 -0.02396,-0.02238 -0.0374,-0.03346l-10.75,-8.0625c-0.4333,-0.32516 -0.95475,-0.51179 -1.49597,-0.5354zM61.8125,118.25h102.125v1.34375c-0.00185,2.22563 -1.80562,4.0294 -4.03125,4.03125h-98.09375zM88.27742,129h22.32016l1.79386,10.75h-25.90787zM24.1875,131.6875c-1.48427,0 -2.6875,1.20323 -2.6875,2.6875c0,1.48427 1.20323,2.6875 2.6875,2.6875h16.125c1.48427,0 2.6875,-1.20323 2.6875,-2.6875c0,-1.48427 -1.20323,-2.6875 -2.6875,-2.6875z"></path></g></g></svg>