<svg version="1.1" xmlns="http://www.w3.org/2000/svg" xmlns:xlink="http://www.w3.org/1999/xlink" viewBox="0 0 172 172"><g fill="none" fill-rule="nonzero" stroke="none" stroke-width="1" stroke-linecap="butt" stroke-linejoin="miter" stroke-miterlimit="10" stroke-dasharray="" stroke-dashoffset="0" font-family="none" font-weight="none" font-size="none" text-anchor="none" style="mix-blend-mode: normal"><path d="M0,172v-172h172v172z" fill="none"></path><g fill="#0505fe"><path d="M12.09375,10.75c-5.19255,0.00574 -9.40051,4.2137 -9.40625,9.40625v120.9375c0.00574,5.19255 4.2137,9.40051 9.40625,9.40625h42.6575l6.54422,6.54422c0.99958,1.00145 2.60515,1.05429 3.66841,0.12073l5.58627,-4.88422c1.36536,0.67208 2.77261,1.25549 4.213,1.74661l0.49341,7.40047c0.09362,1.41188 1.26596,2.50933 2.68094,2.50969h16.125c1.41498,-0.00035 2.58732,-1.09781 2.68094,-2.50969l0.49341,-7.40047c1.44039,-0.49112 2.84763,-1.07453 4.213,-1.74661l5.58627,4.88422c1.06327,0.93357 2.66883,0.88073 3.66841,-0.12073l6.54422,-6.54422h42.6575c5.19255,-0.00574 9.40051,-4.2137 9.40625,-9.40625v-120.9375c-0.00574,-5.19255 -4.2137,-9.40051 -9.40625,-9.40625zM12.09375,16.125h147.8125c2.22563,0.00185 4.0294,1.80562 4.03125,4.03125v6.71875h-155.875v-6.71875c0.00185,-2.22563 1.80562,-4.0294 4.03125,-4.03125zM13.4375,18.8125c-1.48427,0 -2.6875,1.20323 -2.6875,2.6875c0,1.48427 1.20323,2.6875 2.6875,2.6875h2.6875c1.48427,0 2.6875,-1.20323 2.6875,-2.6875c0,-1.48427 -1.20323,-2.6875 -2.6875,-2.6875zM24.1875,18.8125c-1.48427,0 -2.6875,1.20323 -2.6875,2.6875c0,1.48427 1.20323,2.6875 2.6875,2.6875h2.6875c1.48427,0 2.6875,-1.20323 2.6875,-2.6875c0,-1.48427 -1.20323,-2.6875 -2.6875,-2.6875zM34.9375,18.8125c-1.48427,0 -2.6875,1.20323 -2.6875,2.6875c0,1.48427 1.20323,2.6875 2.6875,2.6875h2.6875c1.48427,0 2.6875,-1.20323 2.6875,-2.6875c0,-1.48427 -1.20323,-2.6875 -2.6875,-2.6875zM8.0625,32.25h155.875v108.84375c-0.00185,2.22563 -1.80562,4.0294 -4.03125,4.03125h-37.39995c0.60405,-1.00005 0.49126,-2.27608 -0.27885,-3.15466l-4.88422,-5.583c0.67208,-1.36536 1.25549,-2.77261 1.74661,-4.213l7.40047,-0.49341c1.41188,-0.09362 2.50933,-1.26596 2.50969,-2.68094v-16.125c-0.00035,-1.41498 -1.09781,-2.58732 -2.50969,-2.68094l-7.40047,-0.49341c-0.49172,-1.44016 -1.07512,-2.84737 -1.74661,-4.213l4.88422,-5.583c0.93311,-1.06466 0.8803,-2.67062 -0.12073,-3.67169l-11.40219,-11.40219c-0.99958,-1.00145 -2.60515,-1.05429 -3.66841,-0.12073l-5.58627,4.88422c-1.36536,-0.67208 -2.77261,-1.25549 -4.213,-1.74661l-0.49341,-7.40047c-0.09362,-1.41188 -1.26596,-2.50933 -2.68094,-2.50969h-16.125c-1.41498,0.00035 -2.58732,1.09781 -2.68094,2.50969l-0.49341,7.40047c-1.44039,0.49112 -2.84763,1.07453 -4.213,1.74661l-5.58627,-4.88422c-1.06327,-0.93357 -2.66883,-0.88073 -3.66841,0.12073l-11.40219,11.40219c-1.00103,1.00107 -1.05383,2.60703 -0.12073,3.67169l4.88422,5.583c-0.67149,1.36563 -1.25489,2.77284 -1.74661,4.213l-7.40047,0.49341c-1.41188,0.09362 -2.50933,1.26596 -2.50969,2.68094v16.125c0.00035,1.41498 1.09781,2.58732 2.50969,2.68094l7.40047,0.49341c0.49112,1.44039 1.07453,2.84763 1.74661,4.213l-4.88422,5.583c-0.77011,0.87859 -0.8829,2.15461 -0.27886,3.15466h-37.39995c-2.22563,-0.00185 -4.0294,-1.80562 -4.03125,-4.03125zM13.4375,37.625c-1.48427,0 -2.6875,1.20323 -2.6875,2.6875c0,1.48427 1.20323,2.6875 2.6875,2.6875h43c1.48427,0 2.6875,-1.20323 2.6875,-2.6875c0,-1.48427 -1.20323,-2.6875 -2.6875,-2.6875zM112.875,37.625c-1.48427,0 -2.6875,1.20323 -2.6875,2.6875v21.5c0,1.48427 1.20323,2.6875 2.6875,2.6875h43c1.48427,0 2.6875,-1.20323 2.6875,-2.6875v-21.5c0,-1.48427 -1.20323,-2.6875 -2.6875,-2.6875zM115.5625,43h37.625v16.125h-37.625zM13.4375,45.6875c-1.48427,0 -2.6875,1.20323 -2.6875,2.6875c0,1.48427 1.20323,2.6875 2.6875,2.6875h21.5c1.48427,0 2.6875,-1.20323 2.6875,-2.6875c0,-1.48427 -1.20323,-2.6875 -2.6875,-2.6875zM43,45.6875c-1.48427,0 -2.6875,1.20323 -2.6875,2.6875c0,1.48427 1.20323,2.6875 2.6875,2.6875h2.6875c1.48427,0 2.6875,-1.20323 2.6875,-2.6875c0,-1.48427 -1.20323,-2.6875 -2.6875,-2.6875zM13.4375,53.75c-1.48427,0 -2.6875,1.20323 -2.6875,2.6875v21.5c0,1.48427 1.20323,2.6875 2.6875,2.6875h43c1.48427,0 2.6875,-1.20323 2.6875,-2.6875v-21.5c0,-1.48427 -1.20323,-2.6875 -2.6875,-2.6875zM16.125,59.125h37.625v16.125h-37.625zM112.875,67.1875c-1.48427,0 -2.6875,1.20323 -2.6875,2.6875c0,1.48427 1.20323,2.6875 2.6875,2.6875h43c1.48427,0 2.6875,-1.20323 2.6875,-2.6875c0,-1.48427 -1.20323,-2.6875 -2.6875,-2.6875zM112.875,75.25c-1.48427,0 -2.6875,1.20323 -2.6875,2.6875c0,1.48427 1.20323,2.6875 2.6875,2.6875h21.5c1.48427,0 2.6875,-1.20323 2.6875,-2.6875c0,-1.48427 -1.20323,-2.6875 -2.6875,-2.6875zM142.4375,75.25c-1.48427,0 -2.6875,1.20323 -2.6875,2.6875c0,1.48427 1.20323,2.6875 2.6875,2.6875h2.6875c1.48427,0 2.6875,-1.20323 2.6875,-2.6875c0,-1.48427 -1.20323,-2.6875 -2.6875,-2.6875zM80.45047,83.3125h11.09906l0.44682,6.73581c0.07662,1.13852 0.86276,2.10503 1.96182,2.41193c2.28393,0.63758 4.48239,1.549 6.5475,2.7144c0.99305,0.56123 2.2322,0.43445 3.09102,-0.31625l5.08565,-4.44723l7.84401,7.84401l-4.44723,5.08237c-0.75008,0.86037 -0.87677,2.09997 -0.31625,3.0943c1.1654,2.06511 2.07682,4.26357 2.7144,6.5475c0.3069,1.09906 1.2734,1.8852 2.41193,1.96182l6.73581,0.44682v11.09906l-6.73581,0.44682c-1.13852,0.07662 -2.10503,0.86276 -2.41193,1.96182c-0.63818,2.28477 -1.54956,4.48424 -2.7144,6.55078c-0.5604,0.99322 -0.43367,2.23186 0.31625,3.09102l4.44723,5.08237l-2.27414,2.27414l-0.03674,0.0374l-5.53313,5.53247l-5.08565,-4.44723c-0.85882,-0.7507 -2.09797,-0.87749 -3.09102,-0.31625c-2.06511,1.1654 -4.26357,2.07682 -6.5475,2.7144c-1.09906,0.3069 -1.8852,1.2734 -1.96182,2.41193l-0.44682,6.73581h-11.09906l-0.44682,-6.73581c-0.07662,-1.13852 -0.86276,-2.10503 -1.96182,-2.41193c-2.28393,-0.63758 -4.48239,-1.549 -6.5475,-2.7144c-0.99305,-0.56123 -2.2322,-0.43445 -3.09102,0.31625l-5.08565,4.44723l-5.53313,-5.53247l-0.03674,-0.0374l-2.27414,-2.27414l4.44723,-5.08237c0.74993,-0.85916 0.87666,-2.0978 0.31625,-3.09102c-1.16484,-2.06654 -2.07622,-4.26601 -2.7144,-6.55078c-0.3069,-1.09906 -1.2734,-1.8852 -2.41193,-1.96182l-6.73581,-0.44682v-11.09906l6.73581,-0.44682c1.13852,-0.07662 2.10503,-0.86276 2.41193,-1.96182c0.63758,-2.28393 1.549,-4.48239 2.7144,-6.5475c0.56052,-0.99432 0.43383,-2.23392 -0.31625,-3.0943l-4.44723,-5.08237l7.84401,-7.84401l5.08565,4.44723c0.85882,0.7507 2.09797,0.87749 3.09102,0.31625c2.06511,-1.1654 4.26357,-2.07682 6.5475,-2.7144c1.09906,-0.3069 1.8852,-1.2734 1.96182,-2.41193zM86,96.75c-13.35839,0 -24.1875,10.82911 -24.1875,24.1875c0,13.35839 10.82911,24.1875 24.1875,24.1875c13.35839,0 24.1875,-10.82911 24.1875,-24.1875c-0.015,-13.35217 -10.83533,-24.1725 -24.1875,-24.1875zM85.2179,102.1414c5.12062,-0.21307 10.10651,1.67223 13.80505,5.22004c3.69853,3.54781 5.78952,8.45101 5.78955,13.57605c-0.01166,10.38502 -8.42748,18.80084 -18.8125,18.8125c-10.23613,-0.00182 -18.59227,-8.18745 -18.8051,-18.42136c-0.21282,-10.23391 7.79579,-18.75987 18.02299,-19.18723zM86,112.875c-4.4528,0 -8.0625,3.6097 -8.0625,8.0625c0,4.4528 3.6097,8.0625 8.0625,8.0625c4.4528,0 8.0625,-3.6097 8.0625,-8.0625c-0.005,-4.45072 -3.61178,-8.0575 -8.0625,-8.0625zM85.88846,118.25262c0.73144,-0.03038 1.44361,0.23893 1.97193,0.74569c0.52831,0.50676 0.82703,1.20712 0.82712,1.93918c-0.00167,1.48357 -1.20393,2.68583 -2.6875,2.6875c-1.45981,-0.00379 -2.64964,-1.17221 -2.67994,-2.63171c-0.0303,-1.4595 1.11001,-2.67629 2.5684,-2.74067z"></path></g></g></svg>