<svg version="1.1" xmlns="http://www.w3.org/2000/svg" xmlns:xlink="http://www.w3.org/1999/xlink" viewBox="0 0 172 172"><g fill="none" fill-rule="nonzero" stroke="none" stroke-width="1" stroke-linecap="butt" stroke-linejoin="miter" stroke-miterlimit="10" stroke-dasharray="" stroke-dashoffset="0" font-family="none" font-weight="none" font-size="none" text-anchor="none" style="mix-blend-mode: normal"><path d="M0,172v-172h172v172z" fill="none"></path><g fill="#0505fe"><path d="M40.3125,5.375c-1.0181,0.00011 -1.94898,0.57474 -2.40537,1.48482l-5.97273,11.95268h-19.84065c-5.19255,0.00574 -9.40051,4.2137 -9.40625,9.40625v104.8125c0.00574,5.19255 4.2137,9.40051 9.40625,9.40625h54.05247l-3.58443,10.75h-11.4993c-1.48427,0 -2.6875,1.20323 -2.6875,2.6875v8.0625c0,1.48427 1.20323,2.6875 2.6875,2.6875h69.875c1.48427,0 2.6875,-1.20323 2.6875,-2.6875v-8.0625c0,-1.48427 -1.20323,-2.6875 -2.6875,-2.6875h-11.4993l-3.58443,-10.75h54.05247c5.19255,-0.00574 9.40051,-4.2137 9.40625,-9.40625v-104.8125c-0.00574,-5.19255 -4.2137,-9.40051 -9.40625,-9.40625h-19.84065l-5.97273,-11.95268c-0.45638,-0.91008 -1.38726,-1.48471 -2.40537,-1.48482zM41.97185,10.75h88.05631l8.0625,16.125h-104.18131zM12.09375,24.1875h17.15315l-2.08977,4.17232l0.00328,0.00328c-0.18797,0.37185 -0.28575,0.78274 -0.28542,1.1994v14.78125c0.00651,4.67329 3.43803,8.63539 8.0625,9.30914v48.47211h-8.0625c-1.48427,0 -2.6875,1.20323 -2.6875,2.6875v8.0625c0,1.48427 1.20323,2.6875 2.6875,2.6875h118.25c1.48427,0 2.6875,-1.20323 2.6875,-2.6875v-8.0625c0,-1.48427 -1.20323,-2.6875 -2.6875,-2.6875h-8.0625v-48.47211c4.62447,-0.67375 8.05599,-4.63585 8.0625,-9.30914v-14.78125c0.00033,-0.41666 -0.09744,-0.82755 -0.28542,-1.1994l0.00328,-0.00328l-2.08977,-4.17232h17.15315c2.22563,0.00185 4.0294,1.80562 4.03125,4.03125v95.40625h-155.875v-95.40625c0.00185,-2.22563 1.80562,-4.0294 4.03125,-4.03125zM32.25,32.25h10.75v12.09375c-0.00185,2.22563 -1.80562,4.0294 -4.03125,4.03125h-2.6875c-2.22563,-0.00185 -4.0294,-1.80562 -4.03125,-4.03125zM48.375,32.25h10.75v12.09375c-0.00185,2.22563 -1.80562,4.0294 -4.03125,4.03125h-2.6875c-2.22563,-0.00185 -4.0294,-1.80562 -4.03125,-4.03125zM64.5,32.25h10.75v12.09375c-0.00185,2.22563 -1.80562,4.0294 -4.03125,4.03125h-2.6875c-2.22563,-0.00185 -4.0294,-1.80562 -4.03125,-4.03125zM80.625,32.25h10.75v12.09375c-0.00185,2.22563 -1.80562,4.0294 -4.03125,4.03125h-2.6875c-2.22563,-0.00185 -4.0294,-1.80562 -4.03125,-4.03125zM96.75,32.25h10.75v12.09375c-0.00185,2.22563 -1.80562,4.0294 -4.03125,4.03125h-2.6875c-2.22563,-0.00185 -4.0294,-1.80562 -4.03125,-4.03125zM112.875,32.25h10.75v12.09375c-0.00185,2.22563 -1.80562,4.0294 -4.03125,4.03125h-2.6875c-2.22563,-0.00185 -4.0294,-1.80562 -4.03125,-4.03125zM129,32.25h10.75v12.09375c-0.00185,2.22563 -1.80562,4.0294 -4.03125,4.03125h-2.6875c-2.22563,-0.00185 -4.0294,-1.80562 -4.03125,-4.03125zM45.6875,50.91815c1.76559,1.81207 4.18875,2.8334 6.71875,2.83185h2.6875c2.53,0.00155 4.95316,-1.01978 6.71875,-2.83185c1.76559,1.81207 4.18875,2.8334 6.71875,2.83185h2.6875c2.53,0.00155 4.95316,-1.01978 6.71875,-2.83185c1.76559,1.81207 4.18875,2.8334 6.71875,2.83185h2.6875c2.53,0.00155 4.95316,-1.01978 6.71875,-2.83185c1.76559,1.81207 4.18875,2.8334 6.71875,2.83185h2.6875c2.53,0.00155 4.95316,-1.01978 6.71875,-2.83185c1.76559,1.81207 4.18875,2.8334 6.71875,2.83185h2.6875c2.53,0.00155 4.95316,-1.01978 6.71875,-2.83185c1.44275,1.47708 3.33164,2.43813 5.375,2.73474v48.47211h-53.75v-40.3125c0,-1.48427 -1.20323,-2.6875 -2.6875,-2.6875h-26.875c-1.48427,0 -2.6875,1.20323 -2.6875,2.6875v40.3125h-5.375v-48.47211c2.04336,-0.29662 3.93225,-1.25766 5.375,-2.73474zM86,59.125c-1.48427,0 -2.6875,1.20323 -2.6875,2.6875v32.25c0,1.48427 1.20323,2.6875 2.6875,2.6875h37.625c1.48427,0 2.6875,-1.20323 2.6875,-2.6875v-32.25c0,-1.48427 -1.20323,-2.6875 -2.6875,-2.6875zM51.0625,64.5h21.5v37.625h-21.5zM88.6875,64.5h32.25v26.875h-32.25zM67.10876,77.93881c-1.45292,0.04259 -2.60868,1.23264 -2.60876,2.68619v5.375c0,1.48427 1.20323,2.6875 2.6875,2.6875c1.48427,0 2.6875,-1.20323 2.6875,-2.6875v-5.375c-0.00004,-0.7264 -0.29413,-1.42184 -0.81525,-1.92788c-0.52112,-0.50604 -1.2249,-0.77959 -1.95098,-0.7583zM29.5625,107.5h112.875v2.6875h-112.875zM8.0625,129h155.875v4.03125c-0.00185,2.22563 -1.80562,4.0294 -4.03125,4.03125h-147.8125c-2.22563,-0.00185 -4.0294,-1.80562 -4.03125,-4.03125zM71.8132,142.4375h28.3736l3.58443,10.75h-35.54245zM53.75,158.5625h64.5v2.6875h-64.5z"></path></g></g></svg>