<svg version="1.1" xmlns="http://www.w3.org/2000/svg" xmlns:xlink="http://www.w3.org/1999/xlink" viewBox="0 0 172 172"><g fill="none" fill-rule="nonzero" stroke="none" stroke-width="1" stroke-linecap="butt" stroke-linejoin="miter" stroke-miterlimit="10" stroke-dasharray="" stroke-dashoffset="0" font-family="none" font-weight="none" font-size="none" text-anchor="none" style="mix-blend-mode: normal"><path d="M0,172v-172h172v172z" fill="none"></path><g fill="#0505fe"><path d="M137.94265,18.63781c-0.892,0.04767 -1.73048,0.44041 -2.33812,1.09516l-16.62219,17.94578c-0.62142,0.66891 -0.95146,1.5574 -0.91744,2.46978c0.03403,0.91238 0.42933,1.77383 1.09884,2.39459l-21.0364,22.70937c-1.28959,1.39213 -1.20843,3.56558 0.1814,4.85765l-12.85297,13.88094l-6.94719,-6.43656c0.38875,-1.71192 0.6114,-3.48823 0.6114,-5.31453c0,-13.25827 -10.82172,-24.08 -24.08,-24.08c-13.25828,0 -24.08,10.82173 -24.08,24.08c0,13.25827 10.82172,24.08 24.08,24.08c8.82021,0 16.53936,-4.80237 20.73406,-11.91235l12.20797,11.30094c-0.71779,0.54602 -1.39336,1.16526 -2.0089,1.86781l-0.00672,0.00672l-18.31531,20.4989c-2.93691,-2.79807 -11.6728,-11.1043 -15.28516,-14.76781c-4.10395,-4.15974 -9.80496,-6.99422 -16.24594,-6.99422c-12.30924,0 -22.36,10.05076 -22.36,22.36v32.68c-0.01754,1.24059 0.63425,2.39452 1.7058,3.01993c1.07155,0.62541 2.39684,0.62541 3.46839,0c1.07155,-0.62541 1.72335,-1.77935 1.7058,-3.01993v-32.68c0,-8.5922 6.8878,-15.48 15.48,-15.48c4.4363,0 8.36553,1.92202 11.34797,4.945c4.52885,4.59299 17.99281,17.38813 17.99281,17.38813c0.67481,0.64209 1.58113,0.98311 2.51183,0.94513c0.9307,-0.03799 1.80622,-0.45174 2.42645,-1.14669l20.72062,-23.19313c0.00901,-0.00891 0.01797,-0.01787 0.02688,-0.02687c2.52951,-2.89121 6.81269,-3.17659 9.70859,-0.645c2.88868,2.5273 3.16949,6.81087 0.645,9.70187v0.00672l-27.50656,30.93985c-0.00449,0.00447 -0.00897,0.00895 -0.01344,0.01344c-1.37428,1.56894 -3.26751,2.35156 -5.18687,2.35156c-1.61109,0 -3.19954,-0.54688 -4.52172,-1.69985h-0.00672l-24.13375,-21.50672c-0.9169,-0.81884 -2.20104,-1.08623 -3.36857,-0.70142c-1.16753,0.3848 -2.04103,1.36333 -2.29137,2.56688c-0.25035,1.20355 0.16051,2.44922 1.07775,3.26767l24.16735,21.52687c0.00667,0.00899 0.01339,0.01795 0.02015,0.02688c2.59843,2.27023 5.84718,3.39969 9.05688,3.39969c3.82544,0 7.65473,-1.60757 10.36031,-4.6964l27.50656,-30.93985c0.0045,-0.0067 0.00898,-0.01342 0.01344,-0.02015c4.97668,-5.68829 4.39894,-14.43994 -1.29,-19.41719c-0.60382,-0.52785 -1.25689,-0.96051 -1.92156,-1.3639l9.99078,-10.7836l0.00672,0.00672c1.39395,1.28784 3.56748,1.20366 4.85765,-0.18813l7.84078,-8.46563l-17.6636,75.86813h7.05469l16.89094,-72.54906l16.89094,72.54906h7.05469l-20.18313,-86.70547l3.1511,-3.41313c0.66891,0.62142 1.5574,0.95146 2.46978,0.91744c0.91238,-0.03403 1.77382,-0.42933 2.39459,-1.09884l16.62219,-17.9525c1.28784,-1.39395 1.20366,-3.56748 -0.18812,-4.85765l-20.18985,-18.705c-0.68288,-0.6302 -1.59166,-0.95736 -2.51953,-0.90703zM138.31219,26.93547l15.14406,14.02203l-11.95265,12.9l-7.27641,-6.74563l-7.86094,-7.28312zM124.21625,47.21937l10.09156,9.34578l-18.69828,20.18313l-10.09156,-9.34578zM55.04,55.04c9.54005,0 17.2,7.65995 17.2,17.2c0,9.54005 -7.65995,17.2 -17.2,17.2c-9.54005,0 -17.2,-7.65995 -17.2,-17.2c0,-9.54005 7.65995,-17.2 17.2,-17.2zM103.35453,74.7864l5.0525,4.68297l-12.49016,13.47781c-0.17008,0.0051 -0.34087,-0.02474 -0.51062,-0.01344c-0.08606,0.00573 -0.16938,0.03298 -0.25531,0.04031l-4.64937,-4.30672z"></path></g></g></svg>