<svg version="1.1" xmlns="http://www.w3.org/2000/svg" xmlns:xlink="http://www.w3.org/1999/xlink" viewBox="0 0 172 172"><g fill="none" fill-rule="nonzero" stroke="none" stroke-width="1" stroke-linecap="butt" stroke-linejoin="miter" stroke-miterlimit="10" stroke-dasharray="" stroke-dashoffset="0" font-family="none" font-weight="none" font-size="none" text-anchor="none" style="mix-blend-mode: normal"><path d="M0,172v-172h172v172z" fill="none"></path><g fill="#0505fe"><path d="M80.625,2.6875c-1.48427,0 -2.6875,1.20323 -2.6875,2.6875v5.80804c-35.17754,3.79169 -62.96277,31.57691 -66.75446,66.75446h-5.80804c-1.48427,0 -2.6875,1.20323 -2.6875,2.6875v10.75c0,1.48427 1.20323,2.6875 2.6875,2.6875h5.80804c3.79169,35.17754 31.57691,62.96277 66.75446,66.75446v5.80804c0,1.48427 1.20323,2.6875 2.6875,2.6875h10.75c1.48427,0 2.6875,-1.20323 2.6875,-2.6875v-5.80804c35.17754,-3.79169 62.96277,-31.57691 66.75446,-66.75446h5.80804c1.48427,0 2.6875,-1.20323 2.6875,-2.6875v-10.75c0,-1.48427 -1.20323,-2.6875 -2.6875,-2.6875h-5.80804c-3.79169,-35.17754 -31.57691,-62.96277 -66.75446,-66.75446v-5.80804c0,-1.48427 -1.20323,-2.6875 -2.6875,-2.6875zM83.3125,8.0625h5.375v10.75h-5.375zM77.9375,16.58888v4.91112c0,1.48427 1.20323,2.6875 2.6875,2.6875h10.75c1.48427,0 2.6875,-1.20323 2.6875,-2.6875v-4.91112c32.20415,3.74376 57.60486,29.14447 61.34862,61.34862h-4.91112c-1.48427,0 -2.6875,1.20323 -2.6875,2.6875v10.75c0,1.48427 1.20323,2.6875 2.6875,2.6875h4.91112c-1.8128,15.64385 -8.8616,30.21524 -20.0014,41.34721c-11.13198,11.13981 -25.70337,18.18861 -41.34721,20.0014v-4.91112c0,-1.48427 -1.20323,-2.6875 -2.6875,-2.6875h-10.75c-1.48427,0 -2.6875,1.20323 -2.6875,2.6875v4.91112c-32.20415,-3.74376 -57.60486,-29.14447 -61.34862,-61.34862h4.91112c1.48427,0 2.6875,-1.20323 2.6875,-2.6875v-10.75c0,-1.48427 -1.20323,-2.6875 -2.6875,-2.6875h-4.91112c3.74376,-32.20415 29.14447,-57.60486 61.34862,-61.34862zM86,29.5625c-31.12125,0 -56.4375,25.31625 -56.4375,56.4375c0,31.12125 25.31625,56.4375 56.4375,56.4375c31.12125,0 56.4375,-25.31625 56.4375,-56.4375c0,-31.12125 -25.31625,-56.4375 -56.4375,-56.4375zM86,34.9375c28.15492,0 51.0625,22.90758 51.0625,51.0625c0,28.15492 -22.90758,51.0625 -51.0625,51.0625c-28.15492,0 -51.0625,-22.90758 -51.0625,-51.0625c0,-28.15492 22.90758,-51.0625 51.0625,-51.0625zM86,51.0625c-8.90168,0.00944 -16.11556,7.22332 -16.125,16.125v10.75c0.00445,5.75706 3.07715,11.07528 8.0625,13.95453v2.17047h-2.6875c-8.90168,0.00944 -16.11556,7.22332 -16.125,16.125v8.0625c0,1.48427 1.20323,2.6875 2.6875,2.6875h48.375c1.48427,0 2.6875,-1.20323 2.6875,-2.6875v-8.0625c-0.00944,-8.90168 -7.22332,-16.11556 -16.125,-16.125h-2.6875v-2.17047c4.98535,-2.87925 8.05805,-8.19746 8.0625,-13.95453v-10.75c0,-0.07727 -0.00312,-0.15107 -0.00984,-0.22833c-0.13959,-4.1124 -1.80847,-8.02478 -4.68016,-10.97177c-2.97743,-3.13683 -7.1101,-4.91672 -11.435,-4.9249zM86,56.4375c4.24961,0 8.01539,2.70088 9.74547,6.49698c-6.665,2.96969 -12.13372,3.95435 -15.6913,4.2399c-1.5983,0.13289 -3.20451,0.14166 -4.80417,0.02624v-0.01312c0.00666,-5.9343 4.8157,-10.74334 10.75,-10.75zM96.75,68.36v9.5775c0,5.93706 -4.81294,10.75 -10.75,10.75c-5.93706,0 -10.75,-4.81294 -10.75,-10.75v-5.3481c0.63156,0.04031 1.34026,0.06693 2.13307,0.06693c4.34703,0 11.06591,-0.78578 19.36693,-4.29633zM8.0625,83.3125h10.75v5.375h-10.75zM153.1875,83.3125h10.75v5.375h-10.75zM83.3125,93.83417c1.77872,0.30458 3.59628,0.30458 5.375,0v2.91583c0,1.48427 -1.20323,2.6875 -2.6875,2.6875c-1.48427,0 -2.6875,-1.20323 -2.6875,-2.6875zM75.25,99.4375h3.15138c1.13812,3.22057 4.18286,5.37385 7.59862,5.37385c3.41575,0 6.4605,-2.15329 7.59862,-5.37385h3.15138c5.9343,0.00666 10.74334,4.8157 10.75,10.75v5.375h-5.375v-2.6875c0,-1.48427 -1.20323,-2.6875 -2.6875,-2.6875c-1.48427,0 -2.6875,1.20323 -2.6875,2.6875v2.6875h-21.5v-2.6875c0,-1.48427 -1.20323,-2.6875 -2.6875,-2.6875c-1.48427,0 -2.6875,1.20323 -2.6875,2.6875v2.6875h-5.375v-5.375c0.00666,-5.9343 4.8157,-10.74334 10.75,-10.75zM83.3125,153.1875h5.375v10.75h-5.375z"></path></g></g></svg>