<svg version="1.1" xmlns="http://www.w3.org/2000/svg" xmlns:xlink="http://www.w3.org/1999/xlink" viewBox="0 0 172 172"><g fill="none" fill-rule="nonzero" stroke="none" stroke-width="1" stroke-linecap="butt" stroke-linejoin="miter" stroke-miterlimit="10" stroke-dasharray="" stroke-dashoffset="0" font-family="none" font-weight="none" font-size="none" text-anchor="none" style="mix-blend-mode: normal"><path d="M0,172v-172h172v172z" fill="none"></path><g fill="#0505fe"><path d="M34.9375,5.375c-4.44513,0 -8.0625,3.61738 -8.0625,8.0625v69.875c0,4.44513 3.61737,8.0625 8.0625,8.0625h112.875c4.44513,0 8.0625,-3.61737 8.0625,-8.0625v-69.875c0,-4.44512 -3.61737,-8.0625 -8.0625,-8.0625zM34.9375,10.75h112.875c1.4835,0 2.6875,1.204 2.6875,2.6875v13.4375h-118.25v-13.4375c0,-1.4835 1.204,-2.6875 2.6875,-2.6875zM118.25,16.125v5.375h5.375v-5.375zM129,16.125v5.375h5.375v-5.375zM139.75,16.125v5.375h5.375v-5.375zM32.25,32.25h118.25v51.0625c0,1.4835 -1.204,2.6875 -2.6875,2.6875h-112.875c-1.4835,0 -2.6875,-1.204 -2.6875,-2.6875zM40.3125,37.625c-1.48619,0 -2.6875,1.20131 -2.6875,2.6875v37.625c0,1.48619 1.20131,2.6875 2.6875,2.6875h32.25c1.48619,0 2.6875,-1.20131 2.6875,-2.6875v-37.625c0,-1.48619 -1.20131,-2.6875 -2.6875,-2.6875zM83.3125,37.625c-1.48619,0 -2.6875,1.20131 -2.6875,2.6875v10.75c0,1.48619 1.20131,2.6875 2.6875,2.6875h59.125c1.48619,0 2.6875,-1.20131 2.6875,-2.6875v-10.75c0,-1.48619 -1.20131,-2.6875 -2.6875,-2.6875zM43,43h26.875v32.25h-26.875zM86,43h53.75v5.375h-53.75zM83.3125,59.125c-1.48619,0 -2.6875,1.20131 -2.6875,2.6875v16.125c0,1.48619 1.20131,2.6875 2.6875,2.6875h24.1875c1.48619,0 2.6875,-1.20131 2.6875,-2.6875v-16.125c0,-1.48619 -1.20131,-2.6875 -2.6875,-2.6875zM118.25,59.125c-1.48619,0 -2.6875,1.20131 -2.6875,2.6875v16.125c0,1.48619 1.20131,2.6875 2.6875,2.6875h24.1875c1.48619,0 2.6875,-1.20131 2.6875,-2.6875v-16.125c0,-1.48619 -1.20131,-2.6875 -2.6875,-2.6875zM86,64.5h18.8125v10.75h-18.8125zM120.9375,64.5h18.8125v10.75h-18.8125zM128.59058,96.7605c-2.82452,0.12056 -5.53083,1.70245 -7.02844,4.3147l-5.29102,9.22254c-1.99412,3.46956 -4.37542,5.6188 -7.49561,6.75024l-27.76208,10.07288c-0.65037,0.23381 -1.36374,0.13223 -1.74267,-0.2467c-0.43,-0.42731 -0.45536,-0.86441 -0.39893,-1.16003c0.08331,-0.43537 0.38356,-0.79886 1.03931,-1.0918l13.63171,-7.38013c2.03713,-0.87613 3.62556,-2.56052 4.36194,-4.61914c0.731,-2.04519 0.58764,-4.2326 -0.40942,-6.1676c-1.78181,-3.44806 -5.81,-5.11171 -9.75794,-3.91577l-24.39221,9.27502c-7.47662,2.26287 -13.38186,7.63376 -16.20373,14.72876l-2.62976,6.61377c-1.63669,4.12531 -3.09932,8.36216 -4.34094,12.59766l-5.1178,17.42151c-0.23919,0.81431 -0.08008,1.69262 0.42517,2.37256c0.50525,0.67994 1.30029,1.07605 2.14685,1.07605h31.94031c0.731,0 1.42895,-0.29991 1.93689,-0.82935c0.50525,-0.52944 0.77761,-1.24263 0.74536,-1.97363c-0.18006,-4.32419 2.26472,-8.4453 6.19385,-10.47705l43.78211,-21.76245c4.20325,-2.09357 7.41569,-5.61784 9.03357,-9.9259l5.30151,-14.11462c0.76325,-2.03175 0.66511,-4.23197 -0.2782,-6.19385c-0.9675,-2.00756 -2.69703,-3.50303 -4.86584,-4.20447c-0.92719,-0.30167 -1.88247,-0.42336 -2.82398,-0.38318zM128.76379,102.13025c0.33438,-0.02171 0.67091,0.01659 0.99207,0.12073c0.75519,0.24725 1.35194,0.75061 1.67444,1.42249c0.30638,0.62888 0.33904,1.33119 0.09448,1.97888l-5.30676,14.11462c-1.1395,3.0315 -3.40762,5.5187 -6.38806,7.0022l-43.8241,21.7782c-4.95844,2.56656 -8.29783,7.37064 -9.00732,12.70264h-25.78845l4.10474,-13.97815c1.19862,-4.07694 2.60591,-8.15837 4.18347,-12.13049l2.62976,-6.61377c2.20913,-5.56312 6.86766,-9.78027 12.94409,-11.62659l24.38696,-9.27502c1.2685,-0.38969 2.66865,0.17045 3.24915,1.29651c0.30637,0.59394 0.35429,1.26346 0.13123,1.88965c-0.23919,0.6665 -0.75057,1.19527 -1.64819,1.5957l-13.62647,7.38538c-2.07475,0.89225 -3.5622,2.72815 -3.97876,4.91309c-0.41387,2.18762 0.27446,4.37139 1.88965,5.98389c1.86244,1.849 4.75751,2.4261 7.36438,1.48548l27.76733,-10.07812c4.31881,-1.56681 7.69389,-4.55662 10.31958,-9.12805l5.29626,-9.22253c0.54623,-0.95137 1.53738,-1.55157 2.54053,-1.6167z"></path></g></g></svg>