<svg version="1.1" xmlns="http://www.w3.org/2000/svg" xmlns:xlink="http://www.w3.org/1999/xlink" viewBox="0 0 172 172"><g fill="none" fill-rule="nonzero" stroke="none" stroke-width="1" stroke-linecap="butt" stroke-linejoin="miter" stroke-miterlimit="10" stroke-dasharray="" stroke-dashoffset="0" font-family="none" font-weight="none" font-size="none" text-anchor="none" style="mix-blend-mode: normal"><path d="M0,172v-172h172v172z" fill="none"></path><g fill="#0505fe"><path d="M12.09375,16.125c-5.19255,0.00574 -9.40051,4.2137 -9.40625,9.40625v120.9375c0.00574,5.19255 4.2137,9.40051 9.40625,9.40625h147.8125c5.19255,-0.00574 9.40051,-4.2137 9.40625,-9.40625v-120.9375c-0.00574,-5.19255 -4.2137,-9.40051 -9.40625,-9.40625zM12.09375,21.5h147.8125c2.22563,0.00185 4.0294,1.80562 4.03125,4.03125v6.71875h-155.875v-6.71875c0.00185,-2.22563 1.80562,-4.0294 4.03125,-4.03125zM13.4375,24.1875c-1.48427,0 -2.6875,1.20323 -2.6875,2.6875c0,1.48427 1.20323,2.6875 2.6875,2.6875h2.6875c1.48427,0 2.6875,-1.20323 2.6875,-2.6875c0,-1.48427 -1.20323,-2.6875 -2.6875,-2.6875zM24.1875,24.1875c-1.48427,0 -2.6875,1.20323 -2.6875,2.6875c0,1.48427 1.20323,2.6875 2.6875,2.6875h2.6875c1.48427,0 2.6875,-1.20323 2.6875,-2.6875c0,-1.48427 -1.20323,-2.6875 -2.6875,-2.6875zM34.9375,24.1875c-1.48427,0 -2.6875,1.20323 -2.6875,2.6875c0,1.48427 1.20323,2.6875 2.6875,2.6875h2.6875c1.48427,0 2.6875,-1.20323 2.6875,-2.6875c0,-1.48427 -1.20323,-2.6875 -2.6875,-2.6875zM8.0625,37.625h155.875v108.84375c-0.00185,2.22563 -1.80562,4.0294 -4.03125,4.03125h-147.8125c-2.22563,-0.00185 -4.0294,-1.80562 -4.03125,-4.03125zM16.125,43c-1.48427,0 -2.6875,1.20323 -2.6875,2.6875v32.25c0,1.48427 1.20323,2.6875 2.6875,2.6875h139.75c1.48427,0 2.6875,-1.20323 2.6875,-2.6875v-32.25c0,-1.48427 -1.20323,-2.6875 -2.6875,-2.6875zM39.72133,48.375h92.55735l-46.27867,10.67914zM18.8125,49.06722l55.23482,12.74528l-55.23482,12.74528zM153.1875,49.06722v25.49057l-55.23482,-12.74528zM86,64.57086l46.27867,10.67914h-92.55735zM16.125,86c-1.48427,0 -2.6875,1.20323 -2.6875,2.6875c0,1.48427 1.20323,2.6875 2.6875,2.6875h53.75c1.48427,0 2.6875,-1.20323 2.6875,-2.6875c0,-1.48427 -1.20323,-2.6875 -2.6875,-2.6875zM77.9375,86c-1.48427,0 -2.6875,1.20323 -2.6875,2.6875c0,1.48427 1.20323,2.6875 2.6875,2.6875h2.6875c1.48427,0 2.6875,-1.20323 2.6875,-2.6875c0,-1.48427 -1.20323,-2.6875 -2.6875,-2.6875zM91.375,86c-1.48427,0 -2.6875,1.20323 -2.6875,2.6875v26.875c0,1.48427 1.20323,2.6875 2.6875,2.6875h64.5c1.48427,0 2.6875,-1.20323 2.6875,-2.6875v-26.875c0,-1.48427 -1.20323,-2.6875 -2.6875,-2.6875zM94.0625,91.375h59.125v21.5h-59.125zM16.125,94.0625c-1.48427,0 -2.6875,1.20323 -2.6875,2.6875c0,1.48427 1.20323,2.6875 2.6875,2.6875h53.75c1.48427,0 2.6875,-1.20323 2.6875,-2.6875c0,-1.48427 -1.20323,-2.6875 -2.6875,-2.6875zM77.9375,94.0625c-1.48427,0 -2.6875,1.20323 -2.6875,2.6875c0,1.48427 1.20323,2.6875 2.6875,2.6875h2.6875c1.48427,0 2.6875,-1.20323 2.6875,-2.6875c0,-1.48427 -1.20323,-2.6875 -2.6875,-2.6875zM16.125,102.125c-1.48427,0 -2.6875,1.20323 -2.6875,2.6875c0,1.48427 1.20323,2.6875 2.6875,2.6875h53.75c1.48427,0 2.6875,-1.20323 2.6875,-2.6875c0,-1.48427 -1.20323,-2.6875 -2.6875,-2.6875zM77.9375,102.125c-1.48427,0 -2.6875,1.20323 -2.6875,2.6875c0,1.48427 1.20323,2.6875 2.6875,2.6875h2.6875c1.48427,0 2.6875,-1.20323 2.6875,-2.6875c0,-1.48427 -1.20323,-2.6875 -2.6875,-2.6875zM16.125,112.875c-1.48427,0 -2.6875,1.20323 -2.6875,2.6875v26.875c0,1.48427 1.20323,2.6875 2.6875,2.6875h64.5c1.48427,0 2.6875,-1.20323 2.6875,-2.6875v-26.875c0,-1.48427 -1.20323,-2.6875 -2.6875,-2.6875zM18.8125,118.25h59.125v21.5h-59.125zM91.375,123.625c-1.48427,0 -2.6875,1.20323 -2.6875,2.6875c0,1.48427 1.20323,2.6875 2.6875,2.6875h53.75c1.48427,0 2.6875,-1.20323 2.6875,-2.6875c0,-1.48427 -1.20323,-2.6875 -2.6875,-2.6875zM153.1875,123.625c-1.48427,0 -2.6875,1.20323 -2.6875,2.6875c0,1.48427 1.20323,2.6875 2.6875,2.6875h2.6875c1.48427,0 2.6875,-1.20323 2.6875,-2.6875c0,-1.48427 -1.20323,-2.6875 -2.6875,-2.6875zM91.375,131.6875c-1.48427,0 -2.6875,1.20323 -2.6875,2.6875c0,1.48427 1.20323,2.6875 2.6875,2.6875h53.75c1.48427,0 2.6875,-1.20323 2.6875,-2.6875c0,-1.48427 -1.20323,-2.6875 -2.6875,-2.6875zM153.1875,131.6875c-1.48427,0 -2.6875,1.20323 -2.6875,2.6875c0,1.48427 1.20323,2.6875 2.6875,2.6875h2.6875c1.48427,0 2.6875,-1.20323 2.6875,-2.6875c0,-1.48427 -1.20323,-2.6875 -2.6875,-2.6875zM91.375,139.75c-1.48427,0 -2.6875,1.20323 -2.6875,2.6875c0,1.48427 1.20323,2.6875 2.6875,2.6875h53.75c1.48427,0 2.6875,-1.20323 2.6875,-2.6875c0,-1.48427 -1.20323,-2.6875 -2.6875,-2.6875zM153.1875,139.75c-1.48427,0 -2.6875,1.20323 -2.6875,2.6875c0,1.48427 1.20323,2.6875 2.6875,2.6875h2.6875c1.48427,0 2.6875,-1.20323 2.6875,-2.6875c0,-1.48427 -1.20323,-2.6875 -2.6875,-2.6875z"></path></g></g></svg>