<svg version="1.1" xmlns="http://www.w3.org/2000/svg" xmlns:xlink="http://www.w3.org/1999/xlink" viewBox="0 0 172 172"><g fill="none" fill-rule="nonzero" stroke="none" stroke-width="1" stroke-linecap="butt" stroke-linejoin="miter" stroke-miterlimit="10" stroke-dasharray="" stroke-dashoffset="0" font-family="none" font-weight="none" font-size="none" text-anchor="none" style="mix-blend-mode: normal"><path d="M0,172v-172h172v172z" fill="none"></path><g fill="#0505fe"><path d="M20.64,13.76c-3.76014,0 -6.88,3.11986 -6.88,6.88v130.72c0,3.76014 3.11986,6.88 6.88,6.88h130.72c3.76014,0 6.88,-3.11986 6.88,-6.88v-130.72c0,-3.76014 -3.11986,-6.88 -6.88,-6.88zM20.64,20.64h130.72v130.72h-130.72zM68.5514,48.16l-16.9514,75.68h8.25063l4.90469,-22.13156h16.51469l4.78375,22.13156h8.36485l-16.50797,-75.68zM112.60625,48.16c-2.83456,0 -5.10625,2.15172 -5.10625,5.375c0,3.22328 2.15747,5.375 4.99203,5.375h0.11422c3.17512,0 5.21375,-2.15172 5.21375,-5.375c0,-3.22328 -2.03863,-5.375 -5.21375,-5.375zM73.01937,56.55172h0.32922c0.88064,5.504 1.8756,11.66756 2.9764,16.95141l3.9036,19.38359l-14.0825,-0.00672l3.78937,-19.26265c1.1008,-5.06712 2.19982,-11.45155 3.0839,-17.06563zM108.36,65.36v58.48h8.6v-58.48z"></path></g></g></svg>