<svg version="1.1" xmlns="http://www.w3.org/2000/svg" xmlns:xlink="http://www.w3.org/1999/xlink" viewBox="0 0 172 172"><g fill="none" fill-rule="nonzero" stroke="none" stroke-width="1" stroke-linecap="butt" stroke-linejoin="miter" stroke-miterlimit="10" stroke-dasharray="" stroke-dashoffset="0" font-family="none" font-weight="none" font-size="none" text-anchor="none" style="mix-blend-mode: normal"><path d="M0,172v-172h172v172z" fill="none"></path><g fill="#0505fe"><path d="M118.68,8.6c-11.35469,0 -20.64,9.28531 -20.64,20.64c0,11.35469 9.28531,20.64 20.64,20.64c11.35469,0 20.64,-9.28531 20.64,-20.64c0,-11.35469 -9.28531,-20.64 -20.64,-20.64zM53.105,8.815c-2.00219,0.02688 -4.05812,0.34938 -6.02,0.9675c-12.69844,4.09844 -18.10031,19.06781 -11.5025,30.2075c3.25188,5.28094 8.55969,9.04344 14.5125,9.89c3.73563,0.5375 6.81281,2.59344 8.7075,5.6975l0.1075,0.215l0.9675,1.8275c0.04031,0.04031 0.06719,0.06719 0.1075,0.1075c2.12313,3.70875 2.0425,8.57313 -0.3225,12.255c0,0.04031 0,0.06719 0,0.1075c-5.83187,9.32563 -6.16781,21.3925 -0.43,31.7125c8.51938,15.11719 28.2725,20.15625 43,10.8575c0.04031,0 0.06719,0 0.1075,0c13.16875,-8.51937 18.54375,-26.13594 11.5025,-40.205c-5.40187,-11.19344 -16.83719,-17.76437 -28.4875,-17.415c-0.04031,0 -0.06719,0 -0.1075,0c-4.66281,-0.02687 -8.61344,-2.17687 -11.0725,-5.9125c-0.02687,-0.04031 -0.08062,-0.06719 -0.1075,-0.1075l-0.86,-1.72c-0.02687,-0.06719 -0.06719,-0.14781 -0.1075,-0.215c-1.89469,-3.25187 -2.12312,-6.86656 -0.7525,-10.4275c2.45906,-6.54406 1.58563,-14.43187 -3.655,-20.5325c-0.02687,-0.02687 0.02688,-0.08062 0,-0.1075h-0.1075c-3.80281,-4.67625 -9.54062,-7.26969 -15.48,-7.2025zM118.68,15.48c7.64594,0 13.76,6.11406 13.76,13.76c0,7.64594 -6.11406,13.76 -13.76,13.76c-7.64594,0 -13.76,-6.11406 -13.76,-13.76c0,-7.64594 6.11406,-13.76 13.76,-13.76zM53.2125,15.695c1.33031,-0.01344 2.62031,0.17469 3.87,0.5375c2.48594,0.71219 4.64938,2.20375 6.235,4.1925c0.04031,0.04031 0.06719,0.06719 0.1075,0.1075c3.64156,4.20594 4.13875,9.21813 2.4725,13.6525c-2.0425,5.30781 -1.62594,11.26063 1.1825,16.2325l0.1075,0.215l0.9675,1.8275c0.02688,0.1075 0.06719,0.215 0.1075,0.3225c3.70875,5.77813 10.15875,9.1375 17.0925,9.1375c0.04031,0 0.06719,0 0.1075,0c8.94938,-0.29562 18.04656,4.82406 22.2525,13.545c5.34813,10.69625 1.08844,24.77875 -9.1375,31.39c-11.395,7.2025 -26.68687,3.27875 -33.325,-8.385c-0.01344,-0.02687 0.01344,-0.08062 0,-0.1075c-4.52844,-8.23719 -4.15219,-17.45531 0.3225,-24.6175h-0.1075c0.01344,-0.02687 -0.01344,-0.08062 0,-0.1075c3.74906,-5.89906 3.74906,-13.26281 0.43,-19.135v-0.1075l-0.86,-1.935c-0.02687,-0.06719 -0.06719,-0.14781 -0.1075,-0.215c-2.92937,-5.02562 -8.04906,-8.41187 -13.8675,-9.245c-3.655,-0.52406 -7.31,-2.94281 -9.5675,-6.5575c-0.01344,-0.02687 0.01344,-0.08062 0,-0.1075c-4.32687,-7.4175 -0.86,-17.22687 7.74,-19.995c1.30344,-0.41656 2.64719,-0.63156 3.9775,-0.645zM20.64,65.36c-11.35469,0 -20.64,9.28531 -20.64,20.64c0,11.35469 9.28531,20.64 20.64,20.64c11.35469,0 20.64,-9.28531 20.64,-20.64c0,-11.35469 -9.28531,-20.64 -20.64,-20.64zM151.36,65.36c-11.35469,0 -20.64,9.28531 -20.64,20.64c0,11.35469 9.28531,20.64 20.64,20.64c11.35469,0 20.64,-9.28531 20.64,-20.64c0,-11.35469 -9.28531,-20.64 -20.64,-20.64zM20.64,72.24c7.64594,0 13.76,6.11406 13.76,13.76c0,7.64594 -6.11406,13.76 -13.76,13.76c-7.64594,0 -13.76,-6.11406 -13.76,-13.76c0,-7.64594 6.11406,-13.76 13.76,-13.76zM151.36,72.24c7.64594,0 13.76,6.11406 13.76,13.76c0,7.64594 -6.11406,13.76 -13.76,13.76c-7.64594,0 -13.76,-6.11406 -13.76,-13.76c0,-7.64594 6.11406,-13.76 13.76,-13.76zM53.32,122.12c-11.35469,0 -20.64,9.28531 -20.64,20.64c0,11.35469 9.28531,20.64 20.64,20.64c11.35469,0 20.64,-9.28531 20.64,-20.64c0,-11.35469 -9.28531,-20.64 -20.64,-20.64zM118.68,122.12c-11.35469,0 -20.64,9.28531 -20.64,20.64c0,11.35469 9.28531,20.64 20.64,20.64c11.35469,0 20.64,-9.28531 20.64,-20.64c0,-11.35469 -9.28531,-20.64 -20.64,-20.64zM53.32,129c7.64594,0 13.76,6.11406 13.76,13.76c0,7.64594 -6.11406,13.76 -13.76,13.76c-7.64594,0 -13.76,-6.11406 -13.76,-13.76c0,-7.64594 6.11406,-13.76 13.76,-13.76zM118.68,129c7.64594,0 13.76,6.11406 13.76,13.76c0,7.64594 -6.11406,13.76 -13.76,13.76c-7.64594,0 -13.76,-6.11406 -13.76,-13.76c0,-7.64594 6.11406,-13.76 13.76,-13.76z"></path></g></g></svg>