<svg version="1.1" xmlns="http://www.w3.org/2000/svg" xmlns:xlink="http://www.w3.org/1999/xlink" viewBox="0 0 172 172"><g fill="none" fill-rule="nonzero" stroke="none" stroke-width="1" stroke-linecap="butt" stroke-linejoin="miter" stroke-miterlimit="10" stroke-dasharray="" stroke-dashoffset="0" font-family="none" font-weight="none" font-size="none" text-anchor="none" style="mix-blend-mode: normal"><path d="M0,172v-172h172v172z" fill="none"></path><g fill="#0505fe"><path d="M65.36,27.52v17.2h-45.365c-1.42437,-3.99094 -5.20031,-6.88 -9.675,-6.88c-5.6975,0 -10.32,4.6225 -10.32,10.32c0,5.6975 4.6225,10.32 10.32,10.32c4.47469,0 8.25063,-2.88906 9.675,-6.88h38.485c-17.46875,9.33906 -29.62969,27.31844 -30.8525,48.16h-17.3075v41.28h41.28v-41.28h-16.985c1.30344,-19.68594 13.51813,-36.34844 30.745,-43.86v12.9h41.28v-12.9c17.2,7.53844 29.455,24.17406 30.745,43.86h-16.985v41.28h41.28v-41.28h-17.3075c-1.19594,-20.88187 -13.37031,-38.82094 -30.8525,-48.16h38.485c1.42438,3.99094 5.20031,6.88 9.675,6.88c5.6975,0 10.32,-4.6225 10.32,-10.32c0,-5.6975 -4.6225,-10.32 -10.32,-10.32c-4.47469,0 -8.25062,2.88906 -9.675,6.88h-45.365v-17.2zM72.24,34.4h27.52v12.5775c-0.20156,0.67188 -0.20156,1.37063 0,2.0425v12.9h-27.52v-13.115c0.09406,-0.45687 0.09406,-0.94062 0,-1.3975zM17.2,106.64h27.52v27.52h-27.52zM127.28,106.64h27.52v27.52h-27.52z"></path></g></g></svg>