<svg version="1.1" xmlns="http://www.w3.org/2000/svg" xmlns:xlink="http://www.w3.org/1999/xlink" viewBox="0 0 172 172"><g fill="none" fill-rule="nonzero" stroke="none" stroke-width="1" stroke-linecap="butt" stroke-linejoin="miter" stroke-miterlimit="10" stroke-dasharray="" stroke-dashoffset="0" font-family="none" font-weight="none" font-size="none" text-anchor="none" style="mix-blend-mode: normal"><path d="M0,172v-172h172v172z" fill="none"></path><g fill="#0505fe"><path d="M134.16,0v6.88h26.015l-43.215,43.215l-11.2875,-11.2875l-2.4725,-2.365l-2.4725,2.365l-38.8075,38.8075l-11.2875,-11.2875l-2.4725,-2.365l-2.4725,2.365l-44.72,44.72l4.945,4.945l42.2475,-42.2475l11.2875,11.2875l2.4725,2.365l2.4725,-2.365l38.8075,-38.8075l11.2875,11.2875l2.4725,2.365l2.4725,-2.365l45.6875,-45.6875v26.015h6.88v-37.84zM144.48,48.16v123.84h6.88v-123.84zM165.12,51.6v120.4h6.88v-120.4zM103.2,68.8v103.2h6.88v-103.2zM123.84,68.8v103.2h6.88v-103.2zM82.56,82.56v89.44h6.88v-89.44zM41.28,96.32v75.68h6.88v-75.68zM61.92,103.2v68.8h6.88v-68.8zM20.64,116.96v55.04h6.88v-55.04zM0,130.72v41.28h6.88v-41.28z"></path></g></g></svg>