<svg version="1.1" xmlns="http://www.w3.org/2000/svg" xmlns:xlink="http://www.w3.org/1999/xlink" viewBox="0 0 172 172"><g fill="none" fill-rule="nonzero" stroke="none" stroke-width="1" stroke-linecap="butt" stroke-linejoin="miter" stroke-miterlimit="10" stroke-dasharray="" stroke-dashoffset="0" font-family="none" font-weight="none" font-size="none" text-anchor="none" style="mix-blend-mode: normal"><path d="M0,172v-172h172v172z" fill="none"></path><g><path d="M31.46055,94.35477h-4.82406c-5.56599,0 -10.07812,-4.51213 -10.07812,-10.07812v-58.19109c0,-5.56599 4.51213,-10.07812 10.07813,-10.07812h-13.4375c-5.56599,0 -10.07812,4.51213 -10.07812,10.07813v58.19109c0,5.56599 4.51213,10.07813 10.07813,10.07813h4.82406c1.78786,-0.0029 3.32137,1.27456 3.64156,3.03352c2.42883,13.55844 11.90227,16.555 11.90227,16.555c0.07055,0.11086 0.13773,0.03023 0.20156,-0.20156c0.48375,-1.72672 0.32922,-6.5743 1.88797,-10.98852c0.14848,-0.41925 0.31242,-0.8348 0.49383,-1.24297c-0.44945,-1.34647 -0.79976,-2.72402 -1.04813,-4.12162c-0.32004,-1.75909 -1.85359,-3.03672 -3.64156,-3.03385z" fill="#d4e1f4"></path><path d="M89.25355,63.15625c0,1.1132 0.90243,2.01563 2.01563,2.01563h27.13871c1.1132,0 2.01563,-0.90243 2.01563,-2.01562c0,-1.1132 -0.90243,-2.01562 -2.01562,-2.01562h-27.13871c-1.1132,0 -2.01562,0.90243 -2.01562,2.01563z" fill="#0505fe"></path><path d="M80.46577,63.15625c0,-1.1132 -0.90243,-2.01562 -2.01562,-2.01562h-42.77358c-1.1132,0 -2.01562,0.90243 -2.01562,2.01563c0,1.1132 0.90243,2.01563 2.01563,2.01563h42.77358c1.1132,0 2.01563,-0.90243 2.01563,-2.01562z" fill="#0505fe"></path><path d="M16.36016,65.17188h9.3357c1.1132,0 2.01563,-0.90243 2.01563,-2.01562c0,-1.1132 -0.90243,-2.01562 -2.01562,-2.01562h-9.3357c-1.1132,0 -2.01562,0.90243 -2.01562,2.01563c0,1.1132 0.90243,2.01563 2.01562,2.01563z" fill="#0505fe"></path><path d="M109.30634,50.05469c0,1.1132 0.90243,2.01563 2.01563,2.01563h7.08593c1.1132,0 2.01563,-0.90243 2.01563,-2.01562c0,-1.1132 -0.90243,-2.01562 -2.01562,-2.01562h-7.08593c-1.1132,0 -2.01562,0.90243 -2.01562,2.01563z" fill="#0505fe"></path><path d="M89.53675,52.07031h11.8633c1.1132,0 2.01563,-0.90243 2.01563,-2.01562c0,-1.1132 -0.90243,-2.01562 -2.01562,-2.01562h-11.8633c-1.1132,0 -2.01562,0.90243 -2.01562,2.01563c0,1.1132 0.90243,2.01563 2.01563,2.01563z" fill="#0505fe"></path><path d="M16.36016,52.07031h63.17372c1.1132,0 2.01563,-0.90243 2.01563,-2.01562c0,-1.1132 -0.90243,-2.01562 -2.01562,-2.01562h-63.17372c-1.1132,0 -2.01562,0.90243 -2.01562,2.01563c0,1.1132 0.90243,2.01563 2.01562,2.01563z" fill="#0505fe"></path><path d="M118.40789,35.94531c1.1132,0 2.01563,-0.90243 2.01563,-2.01562c0,-1.1132 -0.90243,-2.01562 -2.01562,-2.01562h-5.72908c-1.1132,0 -2.01562,0.90243 -2.01562,2.01563c0,1.1132 0.90243,2.01563 2.01563,2.01563z" fill="#0505fe"></path><path d="M104.63714,33.92969c0,-1.1132 -0.90243,-2.01562 -2.01562,-2.01562h-24.53822c-1.1132,0 -2.01562,0.90243 -2.01562,2.01563c0,1.1132 0.90243,2.01563 2.01563,2.01563h24.53822c1.1132,0 2.01563,-0.90243 2.01563,-2.01562z" fill="#0505fe"></path><path d="M16.36016,35.94531h51.72027c1.1132,0 2.01563,-0.90243 2.01563,-2.01562c0,-1.1132 -0.90243,-2.01562 -2.01562,-2.01562h-51.72027c-1.1132,0 -2.01562,0.90243 -2.01562,2.01563c0,1.1132 0.90243,2.01563 2.01562,2.01563z" fill="#0505fe"></path><path d="M62.05975,78.60938h19.60666c1.1132,0 2.01563,-0.90243 2.01563,-2.01562c0,-1.1132 -0.90243,-2.01562 -2.01562,-2.01562h-19.60666c-1.1132,0 -2.01562,0.90243 -2.01562,2.01563c0,1.1132 0.90243,2.01563 2.01563,2.01563z" fill="#0505fe"></path><path d="M16.36016,78.60938h33.19298c1.1132,0 2.01563,-0.90243 2.01563,-2.01562c0,-1.1132 -0.90243,-2.01562 -2.01562,-2.01562h-33.19298c-1.1132,0 -2.01562,0.90243 -2.01562,2.01563c0,1.1132 0.90243,2.01563 2.01562,2.01563z" fill="#0505fe"></path><path d="M103.50234,74.57813h-12.88791c-1.1132,0 -2.01562,0.90243 -2.01562,2.01563c0,1.1132 0.90243,2.01563 2.01563,2.01563h12.88791c1.1132,0 2.01563,-0.90243 2.01563,-2.01562c0,-1.1132 -0.90243,-2.01562 -2.01562,-2.01562z" fill="#0505fe"></path><path d="M158.80135,79.95313h-27.11385v4.03125h27.11385c4.48424,0.03222 8.11498,3.65294 8.15959,8.13708v41.54069c-0.04736,4.47753 -3.68184,8.08702 -8.15959,8.10348h-36.04609c-0.46858,-0.00762 -0.92612,0.14252 -1.29907,0.4263l-11.94056,9.58463v-8.0363c0.01356,-0.52319 -0.1865,-1.02934 -0.55409,-1.40187c-0.36759,-0.37254 -0.87103,-0.57934 -1.39435,-0.57277h-3.40137c-4.46329,-0.02303 -8.07337,-3.64016 -8.0877,-8.10348v-39.2637h-4.03125v39.2637c0.01603,6.68902 5.42995,12.11 12.11895,12.13473h1.31855v10.19537c0.01364,0.78165 0.47132,1.48726 1.17948,1.81843c0.27724,0.12995 0.57968,0.19728 0.88587,0.1972c0.46097,0.00765 0.91065,-0.1428 1.27421,-0.4263l14.6415,-11.78469h35.33592c6.70309,-0.01897 12.14095,-5.43181 12.19084,-12.13473v-41.54069c-0.04718,-6.70951 -5.48125,-12.13355 -12.19084,-12.16833z" fill="#0505fe"></path><path d="M159.16517,105.82031c1.1132,0 2.01563,-0.90243 2.01563,-2.01562c0,-1.1132 -0.90243,-2.01562 -2.01562,-2.01562h-9.73849c-1.1132,0 -2.01562,0.90243 -2.01562,2.01563c0,1.1132 0.90243,2.01563 2.01563,2.01563z" fill="#0505fe"></path><path d="M125.42294,105.82031h15.67451c1.1132,0 2.01563,-0.90243 2.01563,-2.01562c0,-1.1132 -0.90243,-2.01562 -2.01562,-2.01562h-15.67451c-1.1132,0 -2.01562,0.90243 -2.01562,2.01563c0,1.1132 0.90243,2.01563 2.01563,2.01563z" fill="#0505fe"></path><path d="M138.10928,115.89844c0,1.1132 0.90243,2.01563 2.01563,2.01563h19.04027c1.1132,0 2.01563,-0.90243 2.01563,-2.01562c0,-1.1132 -0.90243,-2.01562 -2.01562,-2.01562h-19.04027c-1.1132,0 -2.01562,0.90243 -2.01562,2.01563z" fill="#0505fe"></path><path d="M118.13713,115.89844c0,1.1132 0.90243,2.01563 2.01563,2.01563h11.81627c1.1132,0 2.01563,-0.90243 2.01563,-2.01562c0,-1.1132 -0.90243,-2.01562 -2.01562,-2.01562h-11.81627c-1.1132,0 -2.01562,0.90243 -2.01562,2.01563z" fill="#0505fe"></path><path d="M106.6652,117.91406h5.03604c1.1132,0 2.01563,-0.90243 2.01563,-2.01562c0,-1.1132 -0.90243,-2.01562 -2.01562,-2.01562h-5.03604c-1.1132,0 -2.01562,0.90243 -2.01562,2.01563c0,1.1132 0.90243,2.01563 2.01563,2.01563z" fill="#0505fe"></path><path d="M159.16517,125.97656h-5.86614c-1.1132,0 -2.01562,0.90243 -2.01562,2.01563c0,1.1132 0.90243,2.01563 2.01563,2.01563h5.86614c1.1132,0 2.01563,-0.90243 2.01563,-2.01562c0,-1.1132 -0.90243,-2.01562 -2.01562,-2.01562z" fill="#0505fe"></path><path d="M131.22928,125.97656c-1.1132,0 -2.01562,0.90243 -2.01562,2.01563c0,1.1132 0.90243,2.01563 2.01563,2.01563h13.91386c1.1132,0 2.01563,-0.90243 2.01563,-2.01562c0,-1.1132 -0.90243,-2.01562 -2.01562,-2.01562z" fill="#0505fe"></path><path d="M106.6652,130.00781h16.11291c1.1132,0 2.01563,-0.90243 2.01563,-2.01562c0,-1.1132 -0.90243,-2.01562 -2.01562,-2.01562h-16.11291c-1.1132,0 -2.01562,0.90243 -2.01562,2.01563c0,1.1132 0.90243,2.01563 2.01563,2.01563z" fill="#0505fe"></path><path d="M106.76262,105.82031h10.07443c1.1132,0 2.01563,-0.90243 2.01563,-2.01562c0,-1.1132 -0.90243,-2.01562 -2.01562,-2.01562h-10.07443c-1.1132,0 -2.01562,0.90243 -2.01562,2.01563c0,1.1132 0.90243,2.01563 2.01563,2.01563z" fill="#0505fe"></path><path d="M84.65625,110.44651c-1.1132,0 -2.01562,0.90243 -2.01562,2.01563v20.36252c0,1.1132 0.90243,2.01563 2.01563,2.01563c1.1132,0 2.01563,-0.90243 2.01563,-2.01562v-20.36252c0,-1.1132 -0.90243,-2.01562 -2.01562,-2.01562z" fill="#0505fe"></path><path d="M84.65625,101.04026c-1.1132,0 -2.01562,0.90243 -2.01562,2.01563v1.88595c0,1.1132 0.90243,2.01563 2.01563,2.01563c1.1132,0 2.01563,-0.90243 2.01563,-2.01562v-1.88595c0,-1.1132 -0.90243,-2.01562 -2.01562,-2.01562z" fill="#0505fe"></path><path d="M121.72662,14.10938h-108.52797c-6.72431,0.02047 -12.17036,5.46652 -12.19084,12.19084v57.97777c0.01974,6.69438 5.4417,12.11634 12.13608,12.13608h4.87781c0.8079,-0.01474 1.50851,0.55568 1.65785,1.3498c2.37676,13.26147 11.04462,17.26248 12.92956,17.98609c0.30884,0.17469 0.65803,0.26549 1.01285,0.26338c0.10295,-0.00089 0.20569,-0.00943 0.30738,-0.02553c0.88848,-0.14274 1.59673,-0.81893 1.78047,-1.69984c0.22987,-1.02141 0.37593,-2.05988 0.43672,-3.10507c0.69909,-7.48334 2.17889,-14.76882 11.70171,-14.76882h52.59706c1.1132,0 2.01563,-0.90243 2.01563,-2.01562c0,-1.1132 -0.90243,-2.01562 -2.01562,-2.01562h-52.59706c-6.05225,0 -10.42246,2.34753 -12.98902,7.14237c-2.07643,3.87873 -2.46746,8.6467 -2.7436,11.3342v0c-2.6146,-1.67969 -6.96566,-5.48955 -8.46563,-13.86683c-0.49886,-2.70473 -2.8783,-4.65355 -5.6283,-4.60973h-4.82305c-4.50098,-0.0131 -8.14649,-3.65861 -8.15959,-8.15959v-57.92302c-0.00009,-2.16408 0.85955,-4.23956 2.38979,-5.7698c1.53024,-1.53024 3.60571,-2.38988 5.7698,-2.38979h108.37041c4.46962,0.0131 8.08971,3.63319 8.10281,8.10281v58.03455c-0.01365,4.47051 -3.63432,8.09118 -8.10483,8.10483h-7.68423c-1.1132,0 -2.01562,0.90243 -2.01562,2.01563c0,1.1132 0.90243,2.01563 2.01563,2.01563h7.68625c6.69334,-0.01956 12.11451,-5.44072 12.13406,-12.13406v-58.19412c0.00009,-3.17639 -1.26169,-6.22272 -3.50774,-8.46877c-2.24605,-2.24605 -5.29237,-3.50783 -8.46877,-3.50774z" fill="#0505fe"></path></g></g></svg>