<svg version="1.1" xmlns="http://www.w3.org/2000/svg" xmlns:xlink="http://www.w3.org/1999/xlink" viewBox="0 0 172 172"><g fill="none" fill-rule="nonzero" stroke="none" stroke-width="1" stroke-linecap="butt" stroke-linejoin="miter" stroke-miterlimit="10" stroke-dasharray="" stroke-dashoffset="0" font-family="none" font-weight="none" font-size="none" text-anchor="none" style="mix-blend-mode: normal"><path d="M0,172v-172h172v172z" fill="none"></path><g><path d="M64.88297,115.5625l9.34074,-9.54365l7.24752,-43.09641l-6.7117,-6.08853z" fill="#d4e1f4"></path><path d="M165.81875,54.42188h-90.99304c-0.98443,0.00004 -1.82482,0.71118 -1.98774,1.68204l-9.94274,59.12265c-0.09889,0.58506 0.06503,1.18398 0.44807,1.63714c0.38305,0.45316 0.94631,0.71452 1.53967,0.71443h90.99203c0.98443,-0.00004 1.82482,-0.71118 1.98774,-1.68204l9.94308,-59.12265c0.09889,-0.58506 -0.06503,-1.18398 -0.44807,-1.63714c-0.38305,-0.45316 -0.94631,-0.71452 -1.53967,-0.71443zM120.78633,87.27656c-3.05298,2.23082 -7.25351,2.00821 -10.0536,-0.5328l-31.18273,-28.29064h80.68513zM76.1362,60.80133l20.93462,18.99122l-14.28541,14.59548c-0.77289,0.78952 -0.76615,2.05408 0.01512,2.83531v0c0.38067,0.38069 0.89781,0.59327 1.43617,0.59037c0.53835,-0.0029 1.05317,-0.22105 1.42972,-0.60582l14.39223,-14.70466l7.96474,7.22568c4.21723,3.82565 10.54244,4.16052 15.14003,0.80155l9.39248,-6.86085l19.58751,29.87727h-82.46728l6.59042,-6.73454c0.77878,-0.79557 0.76516,-2.07182 -0.0304,-2.8506c-0.79557,-0.77878 -2.07182,-0.76516 -2.8506,0.0304l-5.44958,5.56783zM154.74054,110.15391l-18.92538,-28.86644l27.11016,-19.80654z" fill="#0505fe"></path><path d="M55.86439,90.70313h-4.13203c-1.1132,0 -2.01562,0.90243 -2.01562,2.01563c0,1.1132 0.90243,2.01563 2.01563,2.01563h4.13203c1.1132,0 2.01563,-0.90243 2.01563,-2.01562c0,-1.1132 -0.90243,-2.01562 -2.01562,-2.01562z" fill="#0505fe"></path><path d="M29.73047,93.05469c0,1.1132 0.90243,2.01563 2.01563,2.01563h12.65477c1.1132,0 2.01563,-0.90243 2.01563,-2.01562c0,-1.1132 -0.90243,-2.01562 -2.01562,-2.01562h-12.65477c-1.1132,0 -2.01562,0.90243 -2.01562,2.01563z" fill="#0505fe"></path><path d="M15.86599,91.03906h-7.04259c-1.1132,0 -2.01562,0.90243 -2.01562,2.01563c0,1.1132 0.90243,2.01563 2.01563,2.01563h7.04259c1.1132,0 2.01562,-0.90243 2.01562,-2.01562c0,-1.1132 -0.90243,-2.01562 -2.01562,-2.01562z" fill="#0505fe"></path><path d="M21.02599,93.05469c0,1.1132 0.90243,2.01563 2.01563,2.01563h1.30075c1.1132,0 2.01563,-0.90243 2.01563,-2.01562c0,-1.1132 -0.90243,-2.01562 -2.01562,-2.01562h-1.30075c-1.1132,0 -2.01562,0.90243 -2.01562,2.01563z" fill="#0505fe"></path><path d="M59.11727,76.92969h-19.03355c-1.1132,0 -2.01562,0.90243 -2.01562,2.01563c0,1.1132 0.90243,2.01563 2.01563,2.01563h19.03355c1.1132,0 2.01563,-0.90243 2.01563,-2.01562c0,-1.1132 -0.90243,-2.01562 -2.01562,-2.01562z" fill="#0505fe"></path><path d="M27.98359,81.29688h4.77031c1.1132,0 2.01563,-0.90243 2.01563,-2.01562c0,-1.1132 -0.90243,-2.01562 -2.01562,-2.01562h-4.77031c-1.1132,0 -2.01562,0.90243 -2.01562,2.01563c0,1.1132 0.90243,2.01563 2.01563,2.01563z" fill="#0505fe"></path><path d="M13.0982,81.29688h7.14774c1.1132,0 2.01562,-0.90243 2.01562,-2.01562c0,-1.1132 -0.90243,-2.01562 -2.01562,-2.01562h-7.14774c-1.1132,0 -2.01562,0.90243 -2.01562,2.01563c0,1.1132 0.90243,2.01563 2.01563,2.01563z" fill="#0505fe"></path><path d="M63.52276,63.15625h-6.8837c-1.1132,0 -2.01562,0.90243 -2.01562,2.01563c0,1.1132 0.90243,2.01563 2.01563,2.01563h6.88235c1.1132,0 2.01563,-0.90243 2.01563,-2.01562c0,-1.1132 -0.90243,-2.01562 -2.01562,-2.01562z" fill="#0505fe"></path><path d="M29.32734,67.1875h19.98156c1.1132,0 2.01563,-0.90243 2.01563,-2.01562c0,-1.1132 -0.90243,-2.01562 -2.01562,-2.01562h-19.98156c-1.1132,0 -2.01562,0.90243 -2.01562,2.01563c0,1.1132 0.90243,2.01563 2.01563,2.01563z" fill="#0505fe"></path><path d="M17.15834,67.1875h4.76729c1.1132,0 2.01563,-0.90243 2.01563,-2.01562c0,-1.1132 -0.90243,-2.01562 -2.01562,-2.01562h-4.76729c-1.1132,0 -2.01562,0.90243 -2.01562,2.01563c0,1.1132 0.90243,2.01563 2.01563,2.01563z" fill="#0505fe"></path><path d="M51.73438,104.8125h-7.5811c-1.1132,0 -2.01562,0.90243 -2.01562,2.01563c0,1.1132 0.90243,2.01563 2.01563,2.01563h7.5811c1.1132,0 2.01563,-0.90243 2.01563,-2.01562c0,-1.1132 -0.90243,-2.01562 -2.01562,-2.01562z" fill="#0505fe"></path><path d="M35.45888,104.8125h-14.25013c-1.1132,0 -2.01562,0.90243 -2.01562,2.01563c0,1.1132 0.90243,2.01563 2.01563,2.01563h14.25013c1.1132,0 2.01563,-0.90243 2.01563,-2.01562c0,-1.1132 -0.90243,-2.01562 -2.01562,-2.01562z" fill="#0505fe"></path><path d="M12.79922,104.8125h-6.61797c-1.1132,0 -2.01562,0.90243 -2.01562,2.01563c0,1.1132 0.90243,2.01563 2.01563,2.01563h6.61797c1.1132,0 2.01563,-0.90243 2.01563,-2.01562c0,-1.1132 -0.90243,-2.01562 -2.01562,-2.01562z" fill="#0505fe"></path></g></g></svg>