<svg version="1.1" xmlns="http://www.w3.org/2000/svg" xmlns:xlink="http://www.w3.org/1999/xlink" viewBox="0 0 172 172"><g fill="none" fill-rule="nonzero" stroke="none" stroke-width="1" stroke-linecap="butt" stroke-linejoin="miter" stroke-miterlimit="10" stroke-dasharray="" stroke-dashoffset="0" font-family="none" font-weight="none" font-size="none" text-anchor="none" style="mix-blend-mode: normal"><path d="M0,172v-172h172v172z" fill="none"></path><g fill="#0505fe"><path d="M13.76,20.64v20.64c-0.215,1.06156 -3.44,16.64906 -3.44,25.8c0,4.74344 0.92719,9.27188 3.44,12.9v85.14h144.48v-85.14c2.51281,-3.62812 3.44,-8.15656 3.44,-12.9c0,-9.05687 -3.15781,-24.20094 -3.44,-25.585c0,-0.06719 0,-0.14781 0,-0.215v-20.64zM20.64,27.52h130.72v10.32h-16.555c-0.45687,-0.09406 -0.94062,-0.09406 -1.3975,0h-22.575c-0.34937,-0.09406 -0.71219,-0.13437 -1.075,-0.1075c-0.1075,0.02688 -0.215,0.06719 -0.3225,0.1075h-22.6825c-0.34937,-0.09406 -0.71219,-0.13437 -1.075,-0.1075c-0.1075,0.02688 -0.215,0.06719 -0.3225,0.1075h-22.6825c-0.34937,-0.09406 -0.71219,-0.13437 -1.075,-0.1075c-0.1075,0.02688 -0.215,0.06719 -0.3225,0.1075h-22.6825c-0.34937,-0.09406 -0.71219,-0.13437 -1.075,-0.1075c-0.1075,0.02688 -0.215,0.06719 -0.3225,0.1075h-16.555zM20.21,44.72h14.19v30.53c-2.20375,2.32469 -5.17344,3.87 -8.6,3.87c-2.66062,0 -4.34031,-0.67187 -5.59,-1.935c-0.215,-0.41656 -0.49719,-0.77937 -0.86,-1.075c-1.37062,-1.97531 -2.15,-5.22719 -2.15,-9.03c0,-6.78594 2.41875,-19.20219 3.01,-22.36zM41.28,44.72h17.2v30.53c-2.20375,2.32469 -5.17344,3.87 -8.6,3.87c-3.42656,0 -6.39625,-1.54531 -8.6,-3.87zM65.36,44.72h17.2v30.53c-2.20375,2.32469 -5.17344,3.87 -8.6,3.87c-3.42656,0 -6.39625,-1.54531 -8.6,-3.87zM89.44,44.72h17.2v30.6375c-2.19031,2.29781 -5.18687,3.7625 -8.6,3.7625c-3.42656,0 -6.39625,-1.54531 -8.6,-3.87zM113.52,44.72h17.2v30.6375c-2.19031,2.29781 -5.18687,3.7625 -8.6,3.7625c-3.41312,0 -6.40969,-1.46469 -8.6,-3.7625zM137.6,44.72h14.19c0.59125,3.15781 3.01,15.57406 3.01,22.36c0,3.38625 -0.61812,6.27531 -1.72,8.2775c-0.80625,0.47031 -1.38406,1.24969 -1.6125,2.15c-1.20937,1.06156 -2.83531,1.6125 -5.2675,1.6125c-3.41312,0 -6.40969,-1.46469 -8.6,-3.7625zM110.08,80.9475c3.30563,2.88906 7.29656,5.0525 12.04,5.0525c4.74344,0 8.73438,-2.16344 12.04,-5.0525c3.30563,2.88906 7.29656,5.0525 12.04,5.0525c1.8275,0 3.58781,-0.3225 5.16,-0.86v73.1h-10.32v-61.92h-37.84v61.92h-82.56v-73.1c1.57219,0.5375 3.3325,0.86 5.16,0.86c4.73,0 8.73438,-2.06937 12.04,-4.945c3.30563,2.87563 7.31,4.945 12.04,4.945c4.73,0 8.73438,-2.06937 12.04,-4.945c3.30563,2.87563 7.31,4.945 12.04,4.945c4.73,0 8.73438,-2.06937 12.04,-4.945c3.30563,2.87563 7.31,4.945 12.04,4.945c4.74344,0 8.73438,-2.16344 12.04,-5.0525zM30.96,96.32v51.6h61.92v-51.6zM37.84,103.2h48.16v37.84h-48.16zM110.08,103.2h24.08v55.04h-24.08z"></path></g></g></svg>