<svg version="1.1" id="Layer_1" xmlns="http://www.w3.org/2000/svg" xmlns:xlink="http://www.w3.org/1999/xlink" width="804.47287" height="781.84651" x="0px" y="0px"
	 viewBox="0 0 804.5 781.8" style="enable-background:new 0 0 804.5 781.8;" xml:space="preserve">
<style type="text/css">
	.st0{fill:#F2F2F2;}
	.st1{fill:#3F3D56;}
	.st2{fill:#0505FE;}
	.st3{fill:#2F2E41;}
	.st4{fill:#FFFFFF;}
	.st5{fill:#FFB6B6;}
	.st6{fill:#E6E6E6;}
	.st7{opacity:0.2;enable-background:new    ;}
</style>
<circle class="st0" cx="465.2" cy="83.7" r="26.7"/>
<path class="st0" d="M744.3,710.6c47.5-46.3,70.2-124,56-198.1c-0.4-1.8-0.7-3.7-1.1-5.5c-9.4-44-32.7-85.8-66.6-99.9
	c-28.5-11.8-59.6-2.7-89.3-7.4c-58.4-9.2-103.6-69.6-135.4-132.8c-31.8-63.2-56.3-134-98.6-186.3C339.4-5.5,225.7-24.1,139.2,32
	C52.8,88-2.3,212.4,0.1,336.3c2.3,123.9,59.9,242.4,143.4,305.3c30.7,23.1,66.2,39.5,101.5,33.7c30.6-5,58.5-26,89-32.3
	c48-9.8,95.6,17.9,137.1,50.2c41.5,32.3,81.6,70.6,128.7,85.6C645.6,793.4,702.3,751.6,744.3,710.6z"/>
<path class="st1" d="M693.8,121.6c-1.2-0.8-2.4-1.5-3.6-2.2C655.8,98.6,619,81.7,580.5,69l-8.9,116.8H515V52
	c-3.6-0.7-7.2-1.4-10.7-2v135.8h-67.3c-77.1,0-139.7-59.3-139.7-132.4v0c-3.6,0.7-7.2,1.5-10.8,2.4v130h-54.8l-8.5-111.3
	c-39.6,14.4-77.2,33.3-111.9,56.3c-0.6,0.4-1.2,0.8-1.8,1.2c-3,2-6,4.1-9,6.1v445.4h161.5l-2.9-37.5l-15.7-205.7h316.2l-15.7,205.7
	l-2.9,37.5h159.7V126.1C698.6,124.6,696.2,123.1,693.8,121.6z M286.5,306.4h-45.6L232.5,196h54V306.4z M504.2,306.4h-76.6v-2.2
	c0-4.4-3.8-8-8.4-8c0,0,0,0,0,0h-33.3c-4.7,0-8.4,3.6-8.4,8c0,0,0,0,0,0v2.2h-80.2V196h206.9L504.2,306.4z M515,306.4V196h55.8
	l-8.4,110.4H515z"/>
<path class="st1" d="M6.9,575.6c8.7,10.3,18.1,20,28.1,29l730.6,1c10-9,19.4-18.7,28.1-29L6.9,575.6z"/>
<path class="st1" d="M502.3,482.9v85.7c0,2.3,1.8,4.1,4.1,4.1h127c2.3,0,4.1-1.8,4.1-4.1v-85.7c0-2.3-1.8-4.1-4.1-4.1h-127
	C504.2,478.8,502.3,480.7,502.3,482.9z"/>
<path class="st2" d="M505.3,484v83.6c0,1.2,1,2.2,2.2,2.2h124.9c1.2,0,2.2-1,2.2-2.2V484c0-1.2-1-2.2-2.2-2.2H507.5
	C506.3,481.8,505.3,482.8,505.3,484z"/>
<path class="st3" d="M499.7,585.3c0.5,0.6,1.2,0.9,1.9,0.9h136c1.4,0,2.5-1.1,2.5-2.5c0-0.2,0-0.3-0.1-0.5l-2.1-10
	c-0.2-0.8-0.8-1.5-1.6-1.8c-0.3-0.1-0.6-0.2-0.9-0.2H503.7c-0.3,0-0.6,0.1-0.9,0.2c-0.8,0.3-1.4,1-1.6,1.8l-2.1,10
	C499,584,499.2,584.8,499.7,585.3z"/>
<path class="st1" d="M634,575.6h-3.2c-0.3,0-0.5-0.2-0.5-0.5v-1.5c0-0.3,0.2-0.5,0.5-0.5h3.2c0.3,0,0.5,0.2,0.5,0.5v1.5
	C634.5,575.3,634.3,575.6,634,575.6z"/>
<path class="st1" d="M625.7,575.6h-3.2c-0.3,0-0.5-0.2-0.5-0.5v-1.5c0-0.3,0.2-0.5,0.5-0.5h3.2c0.3,0,0.5,0.2,0.5,0.5v1.5
	C626.2,575.3,625.9,575.6,625.7,575.6z"/>
<path class="st1" d="M617.3,575.6h-3.2c-0.3,0-0.5-0.2-0.5-0.5v-1.5c0-0.3,0.2-0.5,0.5-0.5h3.2c0.3,0,0.5,0.2,0.5,0.5v1.5
	C617.8,575.3,617.6,575.6,617.3,575.6z"/>
<path class="st1" d="M608.9,575.6h-3.2c-0.3,0-0.5-0.2-0.5-0.5v-1.5c0-0.3,0.2-0.5,0.5-0.5h3.2c0.3,0,0.5,0.2,0.5,0.5v1.5
	C609.4,575.3,609.2,575.6,608.9,575.6z"/>
<path class="st1" d="M600.5,575.6h-3.2c-0.3,0-0.5-0.2-0.5-0.5v-1.5c0-0.3,0.2-0.5,0.5-0.5h3.2c0.3,0,0.5,0.2,0.5,0.5v1.5
	C601,575.3,600.8,575.6,600.5,575.6z"/>
<path class="st1" d="M592.2,575.6H589c-0.3,0-0.5-0.2-0.5-0.5v-1.5c0-0.3,0.2-0.5,0.5-0.5h3.2c0.3,0,0.5,0.2,0.5,0.5v1.5
	C592.7,575.3,592.4,575.6,592.2,575.6z"/>
<path class="st1" d="M583.8,575.6h-3.2c-0.3,0-0.5-0.2-0.5-0.5v-1.5c0-0.3,0.2-0.5,0.5-0.5h3.2c0.3,0,0.5,0.2,0.5,0.5v1.5
	C584.3,575.3,584.1,575.6,583.8,575.6z"/>
<path class="st1" d="M575.4,575.6h-3.2c-0.3,0-0.5-0.2-0.5-0.5v-1.5c0-0.3,0.2-0.5,0.5-0.5h3.2c0.3,0,0.5,0.2,0.5,0.5v1.5
	C575.9,575.3,575.7,575.6,575.4,575.6z"/>
<path class="st1" d="M567,575.6h-3.2c-0.3,0-0.5-0.2-0.5-0.5v-1.5c0-0.3,0.2-0.5,0.5-0.5h3.2c0.3,0,0.5,0.2,0.5,0.5v1.5
	C567.5,575.3,567.3,575.6,567,575.6z"/>
<path class="st1" d="M558.7,575.6h-3.2c-0.3,0-0.5-0.2-0.5-0.5v-1.5c0-0.3,0.2-0.5,0.5-0.5h3.2c0.3,0,0.5,0.2,0.5,0.5v1.5
	C559.1,575.3,558.9,575.6,558.7,575.6z"/>
<path class="st1" d="M550.3,575.6h-3.2c-0.3,0-0.5-0.2-0.5-0.5v-1.5c0-0.3,0.2-0.5,0.5-0.5h3.2c0.3,0,0.5,0.2,0.5,0.5v1.5
	C550.8,575.3,550.5,575.6,550.3,575.6z"/>
<path class="st1" d="M541.9,575.6h-3.2c-0.3,0-0.5-0.2-0.5-0.5v-1.5c0-0.3,0.2-0.5,0.5-0.5h3.2c0.3,0,0.5,0.2,0.5,0.5v1.5
	C542.4,575.3,542.2,575.6,541.9,575.6z"/>
<path class="st1" d="M533.5,575.6h-3.2c-0.3,0-0.5-0.2-0.5-0.5v-1.5c0-0.3,0.2-0.5,0.5-0.5h3.2c0.3,0,0.5,0.2,0.5,0.5v1.5
	C534,575.3,533.8,575.6,533.5,575.6z"/>
<path class="st1" d="M525.1,575.6h-3.2c-0.3,0-0.5-0.2-0.5-0.5v-1.5c0-0.3,0.2-0.5,0.5-0.5h3.2c0.3,0,0.5,0.2,0.5,0.5v1.5
	C525.6,575.3,525.4,575.6,525.1,575.6z"/>
<path class="st1" d="M516.8,575.6h-3.2c-0.3,0-0.5-0.2-0.5-0.5v-1.5c0-0.3,0.2-0.5,0.5-0.5h3.2c0.3,0,0.5,0.2,0.5,0.5v1.5
	C517.3,575.3,517,575.6,516.8,575.6z"/>
<path class="st1" d="M508.4,575.6h-3.2c-0.3,0-0.5-0.2-0.5-0.5v-1.5c0-0.3,0.2-0.5,0.5-0.5h3.2c0.3,0,0.5,0.2,0.5,0.5v1.5
	C508.9,575.3,508.7,575.6,508.4,575.6z"/>
<path class="st1" d="M634.1,579.8h-3.2c-0.3,0-0.5-0.2-0.5-0.5v-1.5c0-0.3,0.2-0.5,0.5-0.5h3.2c0.3,0,0.5,0.2,0.5,0.5v1.5
	C634.6,579.5,634.4,579.8,634.1,579.8z"/>
<path class="st1" d="M625.8,579.8h-3.2c-0.3,0-0.5-0.2-0.5-0.5v-1.5c0-0.3,0.2-0.5,0.5-0.5h3.2c0.3,0,0.5,0.2,0.5,0.5v1.5
	C626.3,579.5,626,579.8,625.8,579.8z"/>
<path class="st1" d="M617.4,579.8h-3.2c-0.3,0-0.5-0.2-0.5-0.5v-1.5c0-0.3,0.2-0.5,0.5-0.5h3.2c0.3,0,0.5,0.2,0.5,0.5v1.5
	C617.9,579.5,617.7,579.8,617.4,579.8z"/>
<path class="st1" d="M609,579.8h-3.2c-0.3,0-0.5-0.2-0.5-0.5v-1.5c0-0.3,0.2-0.5,0.5-0.5h3.2c0.3,0,0.5,0.2,0.5,0.5v1.5
	C609.5,579.5,609.3,579.8,609,579.8z"/>
<path class="st1" d="M600.6,579.8h-3.2c-0.3,0-0.5-0.2-0.5-0.5v-1.5c0-0.3,0.2-0.5,0.5-0.5h3.2c0.3,0,0.5,0.2,0.5,0.5v1.5
	C601.1,579.5,600.9,579.8,600.6,579.8z"/>
<path class="st1" d="M592.3,579.8H589c-0.3,0-0.5-0.2-0.5-0.5v-1.5c0-0.3,0.2-0.5,0.5-0.5h3.2c0.3,0,0.5,0.2,0.5,0.5v1.5
	C592.7,579.5,592.5,579.8,592.3,579.8z"/>
<path class="st1" d="M583.9,579.8h-3.2c-0.3,0-0.5-0.2-0.5-0.5v-1.5c0-0.3,0.2-0.5,0.5-0.5h3.2c0.3,0,0.5,0.2,0.5,0.5v1.5
	C584.4,579.5,584.2,579.8,583.9,579.8z"/>
<path class="st1" d="M575.5,579.8h-3.2c-0.3,0-0.5-0.2-0.5-0.5v-1.5c0-0.3,0.2-0.5,0.5-0.5h3.2c0.3,0,0.5,0.2,0.5,0.5v1.5
	C576,579.5,575.8,579.8,575.5,579.8z"/>
<path class="st1" d="M567.1,579.8h-3.2c-0.3,0-0.5-0.2-0.5-0.5v-1.5c0-0.3,0.2-0.5,0.5-0.5h3.2c0.3,0,0.5,0.2,0.5,0.5v1.5
	C567.6,579.5,567.4,579.8,567.1,579.8z"/>
<path class="st1" d="M558.8,579.8h-3.2c-0.3,0-0.5-0.2-0.5-0.5v-1.5c0-0.3,0.2-0.5,0.5-0.5h3.2c0.3,0,0.5,0.2,0.5,0.5v1.5
	C559.2,579.5,559,579.8,558.8,579.8z"/>
<path class="st1" d="M550.4,579.8h-3.2c-0.3,0-0.5-0.2-0.5-0.5v-1.5c0-0.3,0.2-0.5,0.5-0.5h3.2c0.3,0,0.5,0.2,0.5,0.5v1.5
	C550.9,579.5,550.6,579.8,550.4,579.8z"/>
<path class="st1" d="M542,579.8h-3.2c-0.3,0-0.5-0.2-0.5-0.5v-1.5c0-0.3,0.2-0.5,0.5-0.5h3.2c0.3,0,0.5,0.2,0.5,0.5v1.5
	C542.5,579.5,542.3,579.8,542,579.8z"/>
<path class="st1" d="M533.6,579.8h-3.2c-0.3,0-0.5-0.2-0.5-0.5v-1.5c0-0.3,0.2-0.5,0.5-0.5h3.2c0.3,0,0.5,0.2,0.5,0.5v1.5
	C534.1,579.5,533.9,579.8,533.6,579.8z"/>
<path class="st1" d="M525.2,579.8H522c-0.3,0-0.5-0.2-0.5-0.5v-1.5c0-0.3,0.2-0.5,0.5-0.5h3.2c0.3,0,0.5,0.2,0.5,0.5v1.5
	C525.7,579.5,525.5,579.8,525.2,579.8z"/>
<path class="st1" d="M516.9,579.8h-3.2c-0.3,0-0.5-0.2-0.5-0.5v-1.5c0-0.3,0.2-0.5,0.5-0.5h3.2c0.3,0,0.5,0.2,0.5,0.5v1.5
	C517.4,579.5,517.1,579.8,516.9,579.8z"/>
<path class="st1" d="M508.5,579.8h-3.2c-0.3,0-0.5-0.2-0.5-0.5v-1.5c0-0.3,0.2-0.5,0.5-0.5h3.2c0.3,0,0.5,0.2,0.5,0.5v1.5
	C509,579.5,508.8,579.8,508.5,579.8z"/>
<path class="st1" d="M593.9,584.8h-32.5c-0.3,0-0.5-0.2-0.5-0.5v-1.5c0-0.3,0.2-0.5,0.5-0.5h32.5c0.3,0,0.5,0.2,0.5,0.5v1.5
	C594.4,584.6,594.2,584.8,593.9,584.8z"/>
<path class="st4" d="M524.1,500.1h2.8c0.9,0,1.6,0.7,1.6,1.6v0c0,0.9-0.7,1.6-1.6,1.6h-2.8c-0.9,0-1.6-0.7-1.6-1.6v0
	C522.5,500.8,523.2,500.1,524.1,500.1z"/>
<path class="st4" d="M556.6,500.1h2.8c0.9,0,1.6,0.7,1.6,1.6v0c0,0.9-0.7,1.6-1.6,1.6h-2.8c-0.9,0-1.6-0.7-1.6-1.6v0
	C555.1,500.8,555.8,500.1,556.6,500.1z"/>
<path class="st4" d="M565.8,500.1h2.8c0.9,0,1.6,0.7,1.6,1.6v0c0,0.9-0.7,1.6-1.6,1.6h-2.8c-0.9,0-1.6-0.7-1.6-1.6v0
	C564.3,500.8,565,500.1,565.8,500.1z"/>
<path class="st4" d="M532.9,499.8h17.7c0.9,0,1.6,0.7,1.6,1.6v0c0,0.9-0.7,1.6-1.6,1.6h-17.7c-0.9,0-1.6-0.7-1.6-1.6v0
	C531.4,500.5,532.1,499.8,532.9,499.8z"/>
<path class="st4" d="M576.3,499.8H594c0.9,0,1.6,0.7,1.6,1.6v0c0,0.9-0.7,1.6-1.6,1.6h-17.7c-0.9,0-1.6-0.7-1.6-1.6v0
	C574.7,500.5,575.4,499.8,576.3,499.8z"/>
<path class="st4" d="M532.8,507.1h2.8c0.9,0,1.6,0.7,1.6,1.6l0,0c0,0.9-0.7,1.6-1.6,1.6h-2.8c-0.9,0-1.6-0.7-1.6-1.6l0,0
	C531.2,507.8,531.9,507.1,532.8,507.1z"/>
<path class="st4" d="M565.3,507.1h2.8c0.9,0,1.6,0.7,1.6,1.6l0,0c0,0.9-0.7,1.6-1.6,1.6h-2.8c-0.9,0-1.6-0.7-1.6-1.6l0,0
	C563.7,507.8,564.4,507.1,565.3,507.1z"/>
<path class="st4" d="M574.5,507.1h2.8c0.9,0,1.6,0.7,1.6,1.6l0,0c0,0.9-0.7,1.6-1.6,1.6h-2.8c-0.9,0-1.6-0.7-1.6-1.6l0,0
	C572.9,507.8,573.6,507.1,574.5,507.1z"/>
<path class="st4" d="M541.6,506.9h17.7c0.9,0,1.6,0.7,1.6,1.6v0c0,0.9-0.7,1.6-1.6,1.6h-17.7c-0.9,0-1.6-0.7-1.6-1.6v0
	C540.1,507.6,540.8,506.9,541.6,506.9z"/>
<path class="st4" d="M585,506.9h17.7c0.9,0,1.6,0.7,1.6,1.6v0c0,0.9-0.7,1.6-1.6,1.6H585c-0.9,0-1.6-0.7-1.6-1.6v0
	C583.4,507.6,584.1,506.9,585,506.9z"/>
<path class="st4" d="M541.4,514.2h2.8c0.9,0,1.6,0.7,1.6,1.6v0c0,0.9-0.7,1.6-1.6,1.6h-2.8c-0.9,0-1.6-0.7-1.6-1.6v0
	C539.9,514.9,540.6,514.2,541.4,514.2z"/>
<path class="st4" d="M574,514.2h2.8c0.9,0,1.6,0.7,1.6,1.6v0c0,0.9-0.7,1.6-1.6,1.6H574c-0.9,0-1.6-0.7-1.6-1.6v0
	C572.4,514.9,573.1,514.2,574,514.2z"/>
<path class="st4" d="M583.2,514.2h2.8c0.9,0,1.6,0.7,1.6,1.6v0c0,0.9-0.7,1.6-1.6,1.6h-2.8c-0.9,0-1.6-0.7-1.6-1.6v0
	C581.6,514.9,582.3,514.2,583.2,514.2z"/>
<path class="st4" d="M550.3,513.9H568c0.9,0,1.6,0.7,1.6,1.6l0,0c0,0.9-0.7,1.6-1.6,1.6h-17.7c-0.9,0-1.6-0.7-1.6-1.6l0,0
	C548.7,514.6,549.4,513.9,550.3,513.9z"/>
<path class="st4" d="M593.7,513.9h17.7c0.9,0,1.6,0.7,1.6,1.6l0,0c0,0.9-0.7,1.6-1.6,1.6h-17.7c-0.9,0-1.6-0.7-1.6-1.6l0,0
	C592.1,514.6,592.8,513.9,593.7,513.9z"/>
<path class="st4" d="M550.1,521.2h2.8c0.9,0,1.6,0.7,1.6,1.6l0,0c0,0.9-0.7,1.6-1.6,1.6h-2.8c-0.9,0-1.6-0.7-1.6-1.6l0,0
	C548.6,521.9,549.3,521.2,550.1,521.2z"/>
<path class="st4" d="M582.6,521.2h2.8c0.9,0,1.6,0.7,1.6,1.6l0,0c0,0.9-0.7,1.6-1.6,1.6h-2.8c-0.9,0-1.6-0.7-1.6-1.6l0,0
	C581.1,521.9,581.8,521.2,582.6,521.2z"/>
<path class="st4" d="M591.9,521.2h2.8c0.9,0,1.6,0.7,1.6,1.6l0,0c0,0.9-0.7,1.6-1.6,1.6h-2.8c-0.9,0-1.6-0.7-1.6-1.6l0,0
	C590.3,521.9,591,521.2,591.9,521.2z"/>
<path class="st4" d="M559,521h17.7c0.9,0,1.6,0.7,1.6,1.6v0c0,0.9-0.7,1.6-1.6,1.6H559c-0.9,0-1.6-0.7-1.6-1.6v0
	C557.4,521.7,558.1,521,559,521z"/>
<path class="st4" d="M556.6,549.2h2.8c0.9,0,1.6,0.7,1.6,1.6v0c0,0.9-0.7,1.6-1.6,1.6h-2.8c-0.9,0-1.6-0.7-1.6-1.6v0
	C555.1,549.9,555.8,549.2,556.6,549.2z"/>
<path class="st4" d="M565.8,549.2h2.8c0.9,0,1.6,0.7,1.6,1.6v0c0,0.9-0.7,1.6-1.6,1.6h-2.8c-0.9,0-1.6-0.7-1.6-1.6v0
	C564.3,549.9,565,549.2,565.8,549.2z"/>
<path class="st4" d="M576.3,549.5H594c0.9,0,1.6,0.7,1.6,1.6v0c0,0.9-0.7,1.6-1.6,1.6h-17.7c-0.9,0-1.6-0.7-1.6-1.6v0
	C574.7,550.2,575.4,549.5,576.3,549.5z"/>
<path class="st4" d="M524.1,549.2h2.8c0.9,0,1.6,0.7,1.6,1.6v0c0,0.9-0.7,1.6-1.6,1.6h-2.8c-0.9,0-1.6-0.7-1.6-1.6v0
	C522.5,549.9,523.2,549.2,524.1,549.2z"/>
<path class="st4" d="M532.9,549.5h17.7c0.9,0,1.6,0.7,1.6,1.6v0c0,0.9-0.7,1.6-1.6,1.6h-17.7c-0.9,0-1.6-0.7-1.6-1.6v0
	C531.4,550.2,532.1,549.5,532.9,549.5z"/>
<path class="st4" d="M532.8,542.2h2.8c0.9,0,1.6,0.7,1.6,1.6l0,0c0,0.9-0.7,1.6-1.6,1.6h-2.8c-0.9,0-1.6-0.7-1.6-1.6l0,0
	C531.2,542.9,531.9,542.2,532.8,542.2z"/>
<path class="st4" d="M565.3,542.2h2.8c0.9,0,1.6,0.7,1.6,1.6l0,0c0,0.9-0.7,1.6-1.6,1.6h-2.8c-0.9,0-1.6-0.7-1.6-1.6l0,0
	C563.7,542.9,564.4,542.2,565.3,542.2z"/>
<path class="st4" d="M574.5,542.2h2.8c0.9,0,1.6,0.7,1.6,1.6l0,0c0,0.9-0.7,1.6-1.6,1.6h-2.8c-0.9,0-1.6-0.7-1.6-1.6l0,0
	C572.9,542.9,573.6,542.2,574.5,542.2z"/>
<path class="st4" d="M541.6,542.4h17.7c0.9,0,1.6,0.7,1.6,1.6v0c0,0.9-0.7,1.6-1.6,1.6h-17.7c-0.9,0-1.6-0.7-1.6-1.6v0
	C540.1,543.1,540.8,542.4,541.6,542.4z"/>
<path class="st4" d="M541.4,535.1h2.8c0.9,0,1.6,0.7,1.6,1.6v0c0,0.9-0.7,1.6-1.6,1.6h-2.8c-0.9,0-1.6-0.7-1.6-1.6v0
	C539.9,535.8,540.6,535.1,541.4,535.1z"/>
<path class="st4" d="M574,535.1h2.8c0.9,0,1.6,0.7,1.6,1.6v0c0,0.9-0.7,1.6-1.6,1.6H574c-0.9,0-1.6-0.7-1.6-1.6v0
	C572.4,535.8,573.1,535.1,574,535.1z"/>
<path class="st4" d="M583.2,535.1h2.8c0.9,0,1.6,0.7,1.6,1.6v0c0,0.9-0.7,1.6-1.6,1.6h-2.8c-0.9,0-1.6-0.7-1.6-1.6v0
	C581.6,535.8,582.3,535.1,583.2,535.1z"/>
<path class="st4" d="M550.3,535.4H568c0.9,0,1.6,0.7,1.6,1.6l0,0c0,0.9-0.7,1.6-1.6,1.6h-17.7c-0.9,0-1.6-0.7-1.6-1.6l0,0
	C548.7,536.1,549.4,535.4,550.3,535.4z"/>
<path class="st4" d="M550.1,528.1h2.8c0.9,0,1.6,0.7,1.6,1.6l0,0c0,0.9-0.7,1.6-1.6,1.6h-2.8c-0.9,0-1.6-0.7-1.6-1.6l0,0
	C548.6,528.8,549.3,528.1,550.1,528.1z"/>
<path class="st4" d="M582.6,528.1h2.8c0.9,0,1.6,0.7,1.6,1.6l0,0c0,0.9-0.7,1.6-1.6,1.6h-2.8c-0.9,0-1.6-0.7-1.6-1.6l0,0
	C581.1,528.8,581.8,528.1,582.6,528.1z"/>
<path class="st4" d="M591.9,528.1h2.8c0.9,0,1.6,0.7,1.6,1.6l0,0c0,0.9-0.7,1.6-1.6,1.6h-2.8c-0.9,0-1.6-0.7-1.6-1.6l0,0
	C590.3,528.8,591,528.1,591.9,528.1z"/>
<path class="st4" d="M559,528.4h17.7c0.9,0,1.6,0.7,1.6,1.6v0c0,0.9-0.7,1.6-1.6,1.6H559c-0.9,0-1.6-0.7-1.6-1.6v0
	C557.4,529.1,558.1,528.4,559,528.4z"/>
<path class="st5" d="M511.8,631.8l-13.3-21.1l41.9-33.4l17.3-19.2c7.1-7.9,19.2-8.5,27.1-1.4c2.5,2.2,4.3,5.1,5.4,8.2l0,0
	c3.2,9.8-1.9,20.4-11.6,24L551.2,599L511.8,631.8z"/>
<path class="st3" d="M198.6,478.8v102.6h71.9V478.8c0-1.5-1-2.9-2.4-3.3c-0.3-0.1-0.7-0.2-1-0.2h-64.9
	C200.2,475.4,198.6,476.9,198.6,478.8C198.6,478.8,198.6,478.8,198.6,478.8z M226.6,514.1c0-4.2,3.5-7.6,7.7-7.6
	c4.2,0,7.6,3.4,7.6,7.6V526c0,4.2-3.5,7.7-7.7,7.6c-4.2,0-7.6-3.4-7.6-7.6V514.1z"/>
<path class="st1" d="M198.4,578.1v9.9c0,1.1,0.9,1.9,1.9,1.9h68.4c1.1,0,1.9-0.9,1.9-1.9v-9.9H198.4z"/>
<path class="st1" d="M85.6,324.3v187.3c0,5,4,9,9,9h277.5c5,0,9-4,9-9V324.3c0-5-4-9-9-9H94.6C89.6,315.3,85.6,319.3,85.6,324.3z"/>
<path class="st4" d="M92.1,326.6v182.6c0,2.7,2.2,4.8,4.8,4.8h272.9c2.7,0,4.8-2.2,4.8-4.8V326.6c0-2.7-2.2-4.8-4.8-4.8H96.9
	C94.2,321.8,92.1,324,92.1,326.6z"/>
<path class="st3" d="M142.7,589.3c0.6,0.7,1.4,1.1,2.3,1.1h162.3c1.6,0,3-1.3,3-3c0-0.2,0-0.4-0.1-0.6l-2.5-12
	c-0.2-1-0.9-1.8-1.9-2.2c-0.3-0.1-0.7-0.2-1.1-0.2H147.5c-0.4,0-0.7,0.1-1.1,0.2c-0.9,0.4-1.6,1.2-1.9,2.2l-2.5,12
	C141.9,587.6,142.1,588.6,142.7,589.3z"/>
<path class="st1" d="M360.9,347H105.6c-0.6,0-1-0.5-1-1c0-0.5,0.4-1,1-1h255.3c0.6,0,1,0.5,1,1C361.9,346.5,361.4,347,360.9,347z"/>
<ellipse class="st1" cx="123" cy="333.7" rx="6" ry="6.1"/>
<ellipse class="st1" cx="143.5" cy="333.7" rx="6" ry="6.1"/>
<ellipse class="st1" cx="164.1" cy="333.7" rx="6" ry="6.1"/>
<path class="st1" d="M348.5,329.1h-14.6c-0.6,0-1.1,0.5-1.1,1.1c0,0.6,0.5,1.1,1.1,1.1h14.6c0.6,0,1.1-0.5,1.1-1.1
	C349.6,329.6,349.1,329.1,348.5,329.1z"/>
<path class="st1" d="M348.5,333.2h-14.6c-0.6,0-1.1,0.5-1.1,1.1c0,0.6,0.5,1.1,1.1,1.1h14.6c0.6,0,1.1-0.5,1.1-1.1
	C349.6,333.7,349.1,333.2,348.5,333.2z"/>
<path class="st1" d="M348.5,337.4h-14.6c-0.6,0-1.1,0.5-1.1,1.1c0,0.6,0.5,1.1,1.1,1.1h14.6c0.6,0,1.1-0.5,1.1-1.1
	C349.6,337.9,349.1,337.4,348.5,337.4z"/>
<path class="st3" d="M700.5,582.4c0.9,2.6,3.4,4.4,6.2,4.3l26.5-0.7c2.8-0.1,5.2-2,6-4.7l3.7-40.1c1.3,0.6,2.8,0.9,4.2,0.9
	c5.3-0.1,9.5-4.6,9.4-9.9s-4.6-9.5-9.9-9.4c-0.6,0-1.2,0.1-1.7,0.2c-1.3-1.4-3-2.1-4.9-2.1l-40.8,1.1c-0.3,0-0.7,0.1-1,0.1
	c-3.5,0.6-5.7,4-5.1,7.4c0.1,0.3,0.1,0.6,0.2,0.8L700.5,582.4z M743.7,538.6l2.7-9.6c0.3-1.1,0.3-2.3,0-3.4c0.1,0,0.2-0.1,0.4-0.1
	c3.8-0.1,7,3,7.1,6.8c0.1,3.8-2.9,7-6.7,7.1C745.9,539.5,744.7,539.2,743.7,538.6z"/>
<path class="st1" d="M698.3,522.2c0.9,5,10.6,8.5,22.4,7.8c10.8-0.5,19.6-4.3,21.2-8.8c-0.6-0.2-1.2-0.3-1.8-0.2l-40.8,1.1
	C699,522,698.6,522.1,698.3,522.2z"/>
<path class="st2" d="M722.8,560.4c0.1,0,0.1,0,0.2-0.1l5.8-3.8c0.2-0.2,0.3-0.5,0.1-0.7c0-0.1-0.1-0.1-0.1-0.1l-6-3.9
	c-0.2-0.2-0.5-0.1-0.7,0.1c-0.2,0.2-0.1,0.5,0.1,0.7l5.3,3.5l-5.1,3.3c-0.2,0.2-0.3,0.5-0.1,0.7
	C722.4,560.4,722.6,560.5,722.8,560.4L722.8,560.4z"/>
<path class="st2" d="M713.7,560.8c0.3-0.1,0.4-0.3,0.4-0.6c0-0.1-0.1-0.2-0.2-0.3l-5.3-3l5.1-3.8c0.2-0.2,0.3-0.5,0.1-0.7
	c-0.2-0.2-0.5-0.3-0.7-0.1l-5.7,4.3c-0.2,0.2-0.3,0.5-0.1,0.7c0,0.1,0.1,0.1,0.2,0.1l6,3.4C713.5,560.8,713.6,560.9,713.7,560.8z"/>
<path class="st2" d="M722.2,563.7c0,0,0.1,0,0.1-0.1c0.2-0.1,0.3-0.5,0.2-0.7c0,0,0,0,0,0l-8.2-13.4c-0.1-0.2-0.5-0.3-0.7-0.2
	s-0.3,0.5-0.2,0.7l8.2,13.4C721.8,563.7,722,563.8,722.2,563.7z"/>
<path class="st2" d="M219.6,402.2h44.2c1.8,0,3.3,1.5,3.3,3.3v4.3c0,1.8-1.5,3.3-3.3,3.3h-44.2c-1.8,0-3.3-1.5-3.3-3.3v-4.3
	C216.3,403.6,217.7,402.2,219.6,402.2z"/>
<path class="st6" d="M193.8,423.9h95.7c1.8,0,3.3,1.5,3.3,3.3v4.3c0,1.8-1.5,3.3-3.3,3.3h-95.7c-1.8,0-3.3-1.5-3.3-3.3v-4.3
	C190.5,425.3,192,423.9,193.8,423.9z"/>
<path class="st6" d="M193.8,445.5h95.7c1.8,0,3.3,1.5,3.3,3.3v4.3c0,1.8-1.5,3.3-3.3,3.3h-95.7c-1.8,0-3.3-1.5-3.3-3.3v-4.3
	C190.5,447,192,445.5,193.8,445.5z"/>
<path class="st1" d="M297.6,518.2l0.2,0.7l0,0l6.5,19.8l7.5,22.9l14.1,43l0.1,6.7v0l1,93.7l-2.9,7.3l3.3,11.9c0,0-1.5-18-9.6-7.7
	c-4.6,5.9-9.9,11.9-14.3,17.6c6.4,2.6,12.9,4.9,19.5,7c1.4,0.5,2.9,0.9,4.3,1.3c0.3,0.1,0.6,0.2,0.9,0.3
	c21.9,6.5,44.5,10.1,67.4,10.8c1.2,0,2.3,0.1,3.5,0.1c0.4,0,0.8,0,1.2,0c1.3,0,2.5,0,3.8,0c2.6,0,5.1,0,7.7-0.1
	c18.9-0.5,37.7-3.1,56.1-7.6c-0.1-7.6-0.5-16.4-1-25.9c-0.2-4.6-5.4-9.7-5.7-14.5c-0.2-3.7,4.4-7.1,4.1-10.8
	c-1.6-22.8-3.5-54.1-4.9-70.2c-0.1-1.6-0.3-3.1-0.4-4.6c-0.9-10.4-1.6-16.9-1.6-16.9l6.1-38.7l9.6-60.7l-0.7-1.2l-0.8-0.4L422,476.8
	l-2.8-7.1c-1.6-4.2-5.7-6.9-10.1-6.9l-33.5-0.1c-3.5,0-6.8,1.7-8.9,4.5l-9.1,12.6L297.6,518.2z"/>
<path class="st1" d="M333.7,595l-7.6,16.2l-5.2,11.1L312,709l-4.5,4.7l-3.8-16.8l-40,8.9c-1.3-7.3-0.4,0.2-1.2-7.8
	c0.2-0.2,0.5-0.5,0.7-0.7c0.6-0.6,1.2-1.2,1.2-1.7c-0.5-27.6,0.9-114.5,12.3-143c1.8-4.6,4.2-9,7-13.1c0.2-0.3,0.4-0.6,0.7-0.9
	c5.3-7.4,8.6-14.6,13.3-19.8v0c0,0,0.1-0.1,0.1-0.1c0,0,0,0,0,0l32.4-17.2l1.4,39.1l1,28.1L333.7,595z"/>
<path class="st1" d="M450.7,599.6l9.5,20.3l3.3,7.1l8.9,86.6l4.4,4.7l3.8-16.8l1.8-0.4l32.5-6.7l9.5,30c4.4-7.3,3-16.7-3.3-22.5
	c-0.6-0.6-1.2-1.2-1.2-1.7c0.5-32.4-1.4-131.7-19.4-156.1c-5.7-7.7-9.1-15.4-14.1-20.8c0,0,0,0,0,0l-12.1-19.8l-0.7-1.2l-0.8-0.4
	L450.7,599.6z"/>
<circle id="a657ec4b-47ce-4d2a-9c58-81a811696ca9" class="st5" cx="393.3" cy="408.5" r="44.6"/>
<path class="st3" d="M453.5,377.4c-0.7-0.7-1.7-1.2-2.7-1.2l0.7-1.9c0.7-1.8-0.2-3.9-2.1-4.5c-0.6-0.2-1.3-0.3-1.9-0.2l-2.4,0.5
	l0.2-1.6c0.3-1.9-1.1-3.7-3-4c-0.6-0.1-1.2,0-1.7,0.2c-1.1,0.4-2.3,0.3-3.2-0.2c-1-0.5-1.7-1.5-1.9-2.6l-0.8-4.1l-0.1-0.2
	c-4.1-6.9-12.1-11.9-21.8-13.8c-8.7-1.7-17.6-0.8-26.1,0c-3.4,0.3-7.2,0.7-10.4,2.6c-2.7,1.7-5,5-4.5,8.4c-8.5-2.6-17.5,2.6-22,9.1
	c-5.3,7.8-6.2,17.5-6.3,25.1c-0.4,18,3.3,32.7,11,43.7c0.6,0.8,0.7,2.5,1.8,3l-0.2-0.4c1.2,0.6,2.5,1.6,2,2.7
	c-1.3,3.1,7.6,9.9,13.9,12.1c11.5,4.1,26.9,3.8,37.6,2.3l0.4-2.5c3.9-0.5,6.6-1.5,7.4-3.1c1.4-1.2,2.5-2.2,3.5-3.2l0,0
	c0,0,0.1,0,0.1-0.1c4.9-4.7,6-7.3,6.5-11.4c0.5-4-0.4-8-1.3-11.6c18.7,2.9-7.4-20,10.1-24.4c0.2-0.1,0.4-0.1,0.6-0.1
	c0.5-0.1,1-0.2,1.5-0.4c2.4-0.6,4.6-1.6,6.7-2.9c4.9-3,6.5-6.9,9-11.4C454.7,380.1,454.5,378.5,453.5,377.4z"/>
<path class="st3" d="M550.9,602.8c0,1.8,0,4.2-0.1,7.2c0,0.4,0,0.8,0,1.3c-0.1,5.6-0.3,10.2-0.5,15.4c0,0.4,0,0.7,0,1.1
	c-0.3,7.2-0.7,55.7-1.5,69c-1.4,24.7-3.9,3.4-6.3,12c-0.1,0.4-0.2,0.9-0.4,1.5c-0.4,2.2-1,4.3-1.9,6.3c-1.3,0.8-2.7,1.5-4,2.3
	c-3.8,2.1-7.6,4.1-11.5,6.1c-2.2,1.1-4.4,2.1-6.6,3.2c-0.3,0.2-0.7,0.3-1,0.5c-11.3,5.2-22.9,9.6-34.7,13.3c-2.3,0.7-4.6,1.4-7,2
	c-2.4,0.7-4.9,1.3-7.3,1.9c-18.4,4.5-37.2,7.1-56.1,7.6c-2.5,0.1-5.1,0.1-7.7,0.1c-1.3,0-2.5,0-3.8,0c-0.4,0-0.8,0-1.2,0
	c-1.1,0-2.3,0-3.5-0.1c-22.8-0.7-45.5-4.4-67.3-10.8l-0.9-0.3c-1.4-0.4-2.9-0.9-4.3-1.3c-6.6-2.1-13.1-4.4-19.5-7
	c-4.9-2-9.7-4.1-14.5-6.3c0,0-0.1,0-0.1-0.1c-1-0.5-2-0.9-3-1.4c-0.1-0.1-0.3-0.1-0.4-0.2c-3.7-1.8-7.4-3.7-11.1-5.7
	c-3.1-7.1-7.4-8.4-10.1-14.6c-0.8-1.8-1.3-3.8-1.7-5.7c0,0,0,0,0-0.1c0.3,3.7-1.2-6.6,0,0c0-0.1,0-0.2,0-0.4c0-0.4-0.1-0.8-0.1-1.3
	c-3.4-33.5-3.2-111.8-4.7-143.3c-0.1-2-0.2-4-0.3-5.9c0-0.6-0.1-1.2-0.1-1.8c0.1-0.2,0.1-0.4,0.2-0.5c0-0.1,0-0.1,0.1-0.2
	c0-0.1,0.1-0.1,0.1-0.2c0,0,0-0.1,0.1-0.1c0,0,0-0.1,0-0.1c0.1-0.1,0.2-0.3,0.3-0.4c0-0.1,0.1-0.1,0.1-0.2c0-0.1,0.1-0.1,0.1-0.1
	c0,0,0.1-0.1,0.1-0.1c0,0,0.1-0.1,0.1-0.1c0,0,0-0.1,0.1-0.1c0.1-0.1,0.2-0.2,0.3-0.2c0.4-0.3,0.7-0.6,1.1-0.9
	c0.1-0.1,0.3-0.2,0.4-0.3c1-0.6,2.1-1.1,3.2-1.5c0.4-0.1,0.8-0.3,1.2-0.4c0.1,0,0.3-0.1,0.4-0.1c0.2-0.1,0.4-0.1,0.7-0.2
	c1.1-0.3,2.4-0.6,3.7-0.9c0.2,0,0.3-0.1,0.5-0.1c0.2,0,0.5-0.1,0.7-0.1c0.3-0.1,0.7-0.1,1-0.2c3-0.5,6.3-0.8,10.1-1
	c0.4,0,0.7,0,1-0.1c0.4,0,0.8,0,1.2-0.1c0.4,0,0.7,0,1.1,0c0.4,0,0.7,0,1.1,0c1,0,2-0.1,3.1-0.1c3-0.1,6.2,0,9.5,0
	c1.5,0,3.1,0.1,4.8,0.2c0.1,0,0.2,0,0.3,0c1.4,0,2.8,0.1,4.3,0.2c1,0,2,0.1,3.1,0.2c1,0.1,1.9,0.1,2.9,0.2c0.8,0,1.5,0.1,2.3,0.2
	c0.7,0,1.3,0.1,2,0.1l0.9,0.1c0.5,0,1,0.1,1.5,0.1c1.1,0.1,2.2,0.2,3.3,0.3c1.1,0.1,2.2,0.2,3.4,0.3s2.3,0.2,3.4,0.3
	c0.1,0,0.2,0,0.3,0c1,0.1,2.1,0.2,3.1,0.3c0.2,0,0.5,0,0.7,0.1c1,0.1,2,0.2,3,0.3c0.3,0,0.6,0.1,0.9,0.1c0.8,0.1,1.6,0.2,2.4,0.3
	c1,0.1,2.1,0.2,3.2,0.4c0.8,0.1,1.6,0.2,2.4,0.3c1.3,0.2,2.6,0.3,3.8,0.5c0.5,0.1,1,0.1,1.5,0.2c3.7,0.5,7.4,1,11.2,1.5
	c5.7,0.8,11.5,1.7,17.4,2.6c5.9,1,11.8,2,17.7,3c1.5,0.3,3,0.5,4.5,0.8c0.7,0.1,1.4,0.3,2,0.4c1.2,0.2,2.3,0.4,3.5,0.7
	c1.2,0.2,2.3,0.4,3.5,0.7c1.4,0.3,2.8,0.5,4.2,0.8c9.1,1.8,18.1,3.7,27,5.7c1.5,0.3,2.9,0.7,4.3,1c2.9,0.7,5.7,1.3,8.6,2
	c0.8,0.2,1.5,0.4,2.3,0.6c1.9,0.5,3.8,1,5.7,1.5l0.3,0.1c1.4,0.3,2.8,0.7,4.1,1c3.2,0.8,6.4,1.7,9.5,2.5c2.1,0.6,4.1,1.1,6.1,1.7
	c3,0.9,6,1.8,8.8,2.6c0.7,0.2,1.4,0.4,2.1,0.7c2.1,0.7,4.2,1.3,6.2,2c1.6,0.5,3.2,1,4.7,1.6c1.5,0.5,3,1.1,4.5,1.6
	c0.9,0.3,1.9,0.7,2.8,1c1.3,0.5,2.7,1,4,1.5c0.4,0.2,0.8,0.3,1.2,0.5c0.2,0.1,0.5,0.2,0.7,0.3c0.5,0.2,0.9,0.4,1.4,0.6
	c0.5,0.2,0.9,0.4,1.4,0.6c0.5,0.2,0.9,0.4,1.3,0.6c0.5,0.2,0.9,0.4,1.3,0.6c0.4,0.2,0.7,0.3,1.1,0.5c0.7,0.3,1.4,0.6,2.1,0.9
	c0.3,0.2,0.7,0.3,1,0.5l0.8,0.4c0.1,0.1,0.2,0.1,0.3,0.2c0.2,0.1,0.5,0.2,0.8,0.4c0.6,0.3,1.2,0.6,1.7,0.8c0.8,0.4,1.5,0.8,2.2,1.1
	c0.7,0.4,1.4,0.8,2.1,1.1c0.1,0.1,0.2,0.1,0.3,0.2c0.2,0.1,0.3,0.2,0.4,0.2c0.5,0.3,1,0.6,1.5,0.9c1,0.6,1.9,1.2,2.7,1.8
	c0.2,0.1,0.4,0.3,0.6,0.4c0.6,0.5,1.2,0.9,1.8,1.3c0,0,0,0,0,0c0.2,0.1,0.4,0.3,0.6,0.4c0.2,0.1,0.3,0.3,0.5,0.4
	c0.5,0.5,1,0.9,1.4,1.3c0.1,0.1,0.3,0.3,0.4,0.4c0.1,0,0.1,0.1,0.2,0.2c0.2,0.2,0.4,0.4,0.5,0.6c0,0,0,0.1,0.1,0.1
	c0.2,0.3,0.5,0.6,0.7,0.8c0.1,0.1,0.2,0.3,0.3,0.4c0.1,0.2,0.2,0.3,0.3,0.5c0.1,0.1,0.2,0.3,0.2,0.4c0.2,0.4,0.4,0.7,0.5,1.1
	c0.1,0.3,0.2,0.5,0.3,0.8C550.8,602.2,550.9,602.5,550.9,602.8z"/>
<path class="st7" d="M550.9,602.8c0,1.8,0,4.2-0.1,7.2c0,0.4,0,0.8,0,1.3c-0.1,4.2-0.2,9.5-0.5,15.4c0,0.4,0,0.7,0,1.1
	c-0.3,7.2-0.7,55.7-1.5,69c-1.4,24.7-3.9,3.4-6.3,12c-6.9-4.2-14.4-8.6-22.4-13.2c-1.4-0.8-2.9-1.6-4.4-2.5
	c-16.1-9-34-58.4-52.8-67.7c-0.7-0.4-1.5-0.7-2.2-1.1c-43-21.2-89.8-41.9-127.8-55.7c-7.3-2.7-14.3-5.1-20.9-7.2
	c-13.9-4.4-25.8-7.5-35.1-8.9c-9.6-1.4-16.2-0.9-18.9,2c-0.1-2-0.2-4-0.3-5.9c0-0.6-0.1-1.2-0.1-1.8c0.1-0.2,0.1-0.3,0.2-0.5
	c0,0,0,0,0-0.1c0-0.1,0-0.1,0.1-0.2c0-0.1,0.1-0.1,0.1-0.2c0-0.1,0.1-0.1,0.1-0.2c0.1-0.1,0.2-0.3,0.3-0.4c0.1-0.1,0.2-0.2,0.3-0.3
	c0,0,0.1-0.1,0.1-0.1c0,0,0.1-0.1,0.1-0.1c0,0,0-0.1,0.1-0.1c0.1-0.1,0.2-0.2,0.3-0.2c0.4-0.3,0.7-0.6,1.1-0.9
	c0.1-0.1,0.3-0.2,0.4-0.3c1-0.6,2.1-1.1,3.2-1.5c0.4-0.1,0.8-0.3,1.2-0.4c0.1,0,0.3-0.1,0.4-0.1c0.2-0.1,0.4-0.1,0.7-0.2
	c1.1-0.3,2.4-0.6,3.7-0.9c0.4-0.1,0.8-0.2,1.2-0.2c0.3-0.1,0.7-0.1,1-0.2c3-0.5,6.3-0.8,10.1-1c0.4,0,0.7,0,1-0.1
	c0.4,0,0.8,0,1.2-0.1c0.4,0,0.7,0,1.1,0c0.4,0,0.7,0,1.1,0c1,0,2-0.1,3.1-0.1c3,0,6.2,0,9.5,0c1.5,0,3.1,0.1,4.8,0.2
	c0.1,0,0.2,0,0.3,0c1.4,0,2.8,0.1,4.3,0.2c1,0,2,0.1,3.1,0.2c1,0.1,1.9,0.1,2.9,0.2c0.8,0,1.5,0.1,2.3,0.2c0.7,0,1.3,0.1,2,0.1
	c0.8,0.1,1.6,0.1,2.4,0.2c1.1,0.1,2.2,0.2,3.3,0.3c1.1,0.1,2.2,0.2,3.4,0.3s2.3,0.2,3.4,0.3c0.1,0,0.2,0,0.3,0
	c1,0.1,2.1,0.2,3.1,0.3c5.8,0.6,11.8,1.3,18,2.1c3.7,0.5,7.4,1,11.2,1.5c5.7,0.8,11.5,1.7,17.4,2.6c5.9,1,11.8,2,17.7,3
	c1.5,0.3,3,0.5,4.5,0.8c1.8,0.3,3.7,0.7,5.5,1c1.2,0.2,2.3,0.4,3.5,0.7c1.4,0.3,2.8,0.5,4.2,0.8c9.1,1.8,18.1,3.7,27,5.7
	c1.5,0.3,2.9,0.7,4.3,1c2.9,0.7,5.7,1.3,8.6,2c0.8,0.2,1.5,0.4,2.3,0.6c1.9,0.5,3.8,1,5.7,1.4v0c0.1,0,0.2,0,0.3,0.1
	c1.4,0.3,2.8,0.7,4.1,1.1c3.2,0.8,6.4,1.7,9.5,2.5c2.1,0.6,4.1,1.2,6.1,1.7c3,0.9,6,1.8,8.8,2.6c0.7,0.2,1.4,0.4,2.1,0.7
	c2.1,0.7,4.2,1.3,6.2,2c1.6,0.5,3.2,1,4.7,1.6c1.5,0.5,3,1.1,4.5,1.6c1,0.3,1.9,0.7,2.8,1c1.4,0.5,2.7,1,4,1.5
	c0.4,0.2,0.8,0.3,1.2,0.5c0.7,0.3,1.4,0.6,2.1,0.9c0.5,0.2,0.9,0.4,1.4,0.6c0.4,0.2,0.9,0.4,1.3,0.6c0.4,0.2,0.9,0.4,1.3,0.6
	c0.4,0.2,0.7,0.3,1.1,0.5c0.7,0.3,1.4,0.6,2.1,0.9c0.3,0.2,0.7,0.3,1,0.5l0.8,0.4c0.1,0.1,0.2,0.1,0.3,0.2c0.8,0.4,1.7,0.8,2.5,1.2
	c0.8,0.4,1.5,0.8,2.2,1.1c0.8,0.4,1.6,0.9,2.4,1.3c0.2,0.1,0.3,0.2,0.4,0.2c0.5,0.3,1,0.6,1.5,0.9c1,0.6,1.9,1.2,2.7,1.8
	c0.8,0.6,1.6,1.2,2.3,1.7c0,0,0,0,0,0c0.3,0.3,0.7,0.6,1,0.8c0.5,0.5,1,0.9,1.4,1.3c0.1,0.1,0.3,0.3,0.4,0.4c0.1,0,0.1,0.1,0.2,0.2
	c0.2,0.2,0.4,0.5,0.6,0.7c0.2,0.3,0.5,0.6,0.7,0.8c0.1,0.1,0.2,0.3,0.3,0.4c0.1,0.2,0.2,0.3,0.3,0.5c0.1,0.1,0.2,0.3,0.2,0.4
	c0.2,0.4,0.4,0.7,0.5,1.1c0.1,0.3,0.2,0.5,0.3,0.8C550.8,602.2,550.9,602.5,550.9,602.8z"/>
</svg>
